M48
;DRILL file {KiCad 4.0.2-stable} date Monday, November 12, 2018 'PMt' 10:07:10 PM
;FORMAT={-:-/ absolute / inch / decimal}
FMAT,2
INCH,TZ
T1C0.025
T2C0.039
T3C0.039
T4C0.040
T5C0.047
%
G90
G05
M72
T1
X2.2587Y-7.3583
X2.2587Y-7.4252
X2.8354Y-2.9921
X2.9634Y-3.252
X2.9799Y-2.7732
X2.9827Y-2.9496
X3.0591Y-2.5748
X3.1409Y-2.7732
X3.1409Y-2.9496
X3.2628Y-2.6772
X3.2894Y-3.127
X3.3661Y-3.2984
X3.476Y-2.9969
X3.6791Y-2.9596
X3.7156Y-6.9124
X3.7943Y-6.4754
X3.837Y-2.5799
X3.8415Y-5.4823
X3.8415Y-6.1919
X3.8425Y-4.0728
X3.8425Y-4.7815
X3.8425Y-5.1368
X3.8425Y-5.8317
X3.8435Y-4.4183
X3.8455Y-7.3465
X3.8494Y-7.3002
X3.863Y-4.1437
X3.8642Y-2.8967
X3.865Y-5.2185
X3.8711Y-7.3839
X3.8728Y-4.8622
X3.8868Y-3.0728
X3.8878Y-3.1201
X3.8907Y-7.2776
X3.8925Y-4.5157
X3.9024Y-5.5709
X3.9055Y-7.4144
X3.9094Y-4.0768
X3.9094Y-4.4213
X3.9094Y-4.7854
X3.9094Y-5.1516
X3.9094Y-5.4902
X3.9094Y-5.8484
X3.9094Y-6.2018
X3.9094Y-6.563
X3.9173Y-3.0384
X3.9201Y-6.2795
X3.922Y-5.9272
X3.9252Y-7.248
X3.9262Y-3.1447
X3.9319Y-2.7378
X3.939Y-5.5305
X3.939Y-7.6358
X3.9429Y-7.44
X3.9528Y-3.0098
X3.9594Y-3.7894
X3.9626Y-7.2215
X3.9646Y-5.189
X3.9656Y-3.1703
X3.9764Y-4.1112
X3.9813Y-7.4636
X3.9833Y-2.9734
X3.9862Y-4.8248
X3.9961Y-4.4567
X4.Y-7.1959
X4.001Y-3.2008
X4.0128Y-2.938
X4.0187Y-7.4892
X4.0374Y-7.1703
X4.0394Y-3.2264
X4.0719Y-3.2589
X4.0817Y-6.6073
X4.0827Y-5.8829
X4.0876Y-6.4498
X4.0876Y-7.875
X4.0886Y-6.0994
X4.1118Y-2.7228
X4.128Y-6.8465
X4.128Y-7.562
X4.1457Y-3.3071
X4.1772Y-6.9951
X4.1831Y-6.8514
X4.187Y-7.6388
X4.19Y-4.0689
X4.1919Y-4.4213
X4.1949Y-4.7825
X4.1959Y-5.8445
X4.1969Y-5.126
X4.1969Y-6.1909
X4.1969Y-6.5561
X4.1978Y-5.4852
X4.2142Y-2.8902
X4.2142Y-2.9413
X4.2142Y-2.9925
X4.2142Y-3.0437
X4.2142Y-3.0949
X4.2142Y-3.1461
X4.2142Y-3.1972
X4.2142Y-3.2484
X4.2154Y-4.5059
X4.2154Y-7.1031
X4.2154Y-7.1543
X4.2154Y-7.2055
X4.2154Y-7.2567
X4.2154Y-7.3079
X4.2154Y-7.3591
X4.2154Y-7.4102
X4.2154Y-7.4614
X4.2173Y-4.8642
X4.2195Y-6.7559
X4.2195Y-7.0157
X4.2254Y-4.1033
X4.2431Y-4.439
X4.2579Y-6.7096
X4.2638Y-4.7913
X4.2638Y-5.1201
X4.2638Y-5.4852
X4.2638Y-5.8435
X4.2638Y-6.2047
X4.2638Y-6.5541
X4.2654Y-2.8902
X4.2654Y-2.9413
X4.2654Y-2.9925
X4.2654Y-3.0449
X4.2654Y-3.0949
X4.2654Y-3.1461
X4.2654Y-3.1972
X4.2654Y-3.2484
X4.2665Y-7.1031
X4.2665Y-7.1543
X4.2665Y-7.2055
X4.2665Y-7.2567
X4.2665Y-7.3079
X4.2665Y-7.3591
X4.2665Y-7.4102
X4.2665Y-7.4614
X4.2843Y-5.1654
X4.2882Y-5.563
X4.302Y-5.8937
X4.3022Y-7.0394
X4.3098Y-2.7201
X4.3165Y-2.8902
X4.3165Y-2.9413
X4.3165Y-2.9925
X4.3165Y-3.0433
X4.3165Y-3.0949
X4.3165Y-3.1461
X4.3165Y-3.1972
X4.3165Y-3.2484
X4.3177Y-7.1031
X4.3177Y-7.1543
X4.3177Y-7.2055
X4.3177Y-7.2567
X4.3177Y-7.3079
X4.3177Y-7.3591
X4.3177Y-7.4102
X4.3177Y-7.4614
X4.3335Y-6.5591
X4.3374Y-6.6063
X4.3406Y-7.0157
X4.3413Y-6.6535
X4.3413Y-6.7047
X4.3677Y-2.8902
X4.3677Y-2.9413
X4.3677Y-2.9925
X4.3677Y-3.0437
X4.3677Y-3.0949
X4.3677Y-3.1461
X4.3677Y-3.1972
X4.3677Y-3.2484
X4.3689Y-7.1031
X4.3689Y-7.1543
X4.3689Y-7.2055
X4.3689Y-7.2567
X4.3689Y-7.3079
X4.3689Y-7.3591
X4.3689Y-7.4102
X4.3689Y-7.4614
X4.3809Y-6.9941
X4.3957Y-7.5984
X4.4201Y-3.7638
X4.4201Y-4.1319
X4.437Y-3.3081
X4.4419Y-3.997
X4.4488Y-7.561
X4.4559Y-2.737
X4.4734Y-4.3701
X4.4734Y-5.4104
X4.4734Y-6.0758
X4.4744Y-4.7018
X4.4803Y-5.0669
X4.4811Y-6.2343
X4.4852Y-5.7776
X4.4941Y-7.7746
X4.5108Y-3.2579
X4.5344Y-7.498
X4.5453Y-3.2264
X4.5512Y-4.0679
X4.5512Y-4.4124
X4.5512Y-4.7766
X4.5512Y-5.4744
X4.5512Y-5.8465
X4.5512Y-6.1959
X4.5512Y-6.5463
X4.5512Y-7.1722
X4.5561Y-2.9547
X4.5797Y-7.4852
X4.5807Y-3.1969
X4.5886Y-7.1978
X4.5945Y-2.9803
X4.6122Y-2.5957
X4.6177Y-5.1433
X4.6181Y-4.0689
X4.6181Y-4.4232
X4.6181Y-4.7766
X4.6181Y-5.4813
X4.6181Y-5.8553
X4.6181Y-6.2028
X4.6181Y-6.5531
X4.6201Y-3.1713
X4.6209Y-3.7677
X4.622Y-7.4675
X4.626Y-7.2254
X4.6378Y-3.0079
X4.6524Y-5.8976
X4.6535Y-7.2618
X4.6545Y-7.435
X4.6585Y-3.1427
X4.6602Y-4.4665
X4.6622Y-5.5315
X4.6665Y-5.1358
X4.6752Y-5.4803
X4.6801Y-3.0335
X4.6811Y-4.7766
X4.6841Y-7.4006
X4.6898Y-5.1831
X4.6959Y-7.2795
X4.7047Y-3.1171
X4.7136Y-3.0689
X4.7146Y-7.3671
X4.7156Y-7.3209
X4.8209Y-6.4232
X4.8335Y-4.8169
X4.8337Y-4.0217
X4.8337Y-5.06
X4.8346Y-4.374
X4.8356Y-6.0965
X4.8366Y-5.7628
X4.8394Y-6.2303
X4.8413Y-4.128
X4.8543Y-6.9439
X4.8829Y-6.9803
X4.8984Y-6.5388
X4.9051Y-4.7734
X4.9051Y-5.8419
X4.9055Y-4.0667
X4.9055Y-4.4187
X4.9063Y-5.4856
X4.9063Y-6.1915
X4.9091Y-7.3171
X4.9091Y-7.3632
X4.9437Y-7.2856
X4.9437Y-7.3931
X4.9551Y-2.5807
X4.9577Y-3.0719
X4.9577Y-3.1181
X4.9724Y-4.0689
X4.9724Y-4.4203
X4.9724Y-4.7785
X4.9724Y-5.1236
X4.9724Y-5.4882
X4.9724Y-5.8415
X4.9724Y-6.1939
X4.9724Y-6.5453
X4.9774Y-3.0305
X4.9795Y-7.2549
X4.9807Y-7.4199
X4.9902Y-5.1736
X4.9951Y-3.1486
X4.9988Y-5.8819
X5.0106Y-5.5295
X5.0138Y-7.225
X5.0146Y-4.813
X5.0157Y-3.0069
X5.0165Y-3.7736
X5.0169Y-7.4478
X5.0205Y-4.122
X5.0205Y-4.4764
X5.0335Y-3.1752
X5.0374Y-5.1309
X5.0402Y-5.1811
X5.0461Y-7.1935
X5.0551Y-2.9803
X5.0571Y-7.4695
X5.061Y-4.0659
X5.061Y-4.4193
X5.062Y-4.7717
X5.0709Y-3.2028
X5.0843Y-7.1683
X5.0935Y-2.9557
X5.0969Y-7.4919
X5.1063Y-3.2333
X5.1427Y-7.872
X5.1447Y-3.2598
X5.1476Y-6.4203
X5.1484Y-2.7488
X5.1496Y-5.7628
X5.1516Y-6.1339
X5.1524Y-6.2343
X5.1545Y-5.4173
X5.1831Y-7.5551
X5.2077Y-3.3061
X5.2327Y-2.7248
X5.2472Y-6.9955
X5.2549Y-7.6339
X5.2598Y-6.5384
X5.263Y-4.1211
X5.2634Y-4.4498
X5.2646Y-5.84
X5.2654Y-5.1301
X5.2654Y-5.4844
X5.2661Y-6.1939
X5.2677Y-4.7789
X5.2776Y-7.1035
X5.2776Y-7.1547
X5.2776Y-7.2059
X5.2776Y-7.2571
X5.2776Y-7.3083
X5.2776Y-7.3594
X5.2776Y-7.4106
X5.2776Y-7.4618
X5.2823Y-2.8909
X5.2823Y-2.9421
X5.2823Y-2.9933
X5.2823Y-3.0445
X5.2823Y-3.0957
X5.2823Y-3.1469
X5.2823Y-3.198
X5.2823Y-3.2492
X5.2823Y-5.2008
X5.2874Y-4.0778
X5.289Y-7.0136
X5.2937Y-6.8301
X5.3071Y-4.4232
X5.3258Y-4.7776
X5.3268Y-5.1289
X5.3268Y-5.4833
X5.3268Y-5.8356
X5.3268Y-6.1949
X5.3268Y-6.5472
X5.3287Y-7.1035
X5.3287Y-7.1547
X5.3287Y-7.2059
X5.3287Y-7.2571
X5.3287Y-7.3083
X5.3287Y-7.3594
X5.3287Y-7.4106
X5.3287Y-7.4618
X5.3335Y-2.8909
X5.3335Y-2.9421
X5.3335Y-2.9933
X5.3335Y-3.0445
X5.3335Y-3.0957
X5.3335Y-3.1469
X5.3335Y-3.198
X5.3335Y-3.2492
X5.335Y-6.6132
X5.3429Y-6.8459
X5.3551Y-5.5295
X5.365Y-5.8937
X5.3669Y-6.7569
X5.3709Y-6.2303
X5.3713Y-2.7236
X5.3732Y-7.0407
X5.3799Y-7.1035
X5.3799Y-7.1547
X5.3799Y-7.2059
X5.3799Y-7.2571
X5.3799Y-7.3083
X5.3799Y-7.3594
X5.3799Y-7.4106
X5.3799Y-7.4618
X5.3846Y-2.8909
X5.3846Y-2.9421
X5.3846Y-2.9933
X5.3846Y-3.0445
X5.3846Y-3.0957
X5.3846Y-3.1469
X5.3846Y-3.198
X5.3846Y-3.2492
X5.3949Y-6.7199
X5.411Y-7.0148
X5.4287Y-2.8909
X5.4287Y-2.9429
X5.4291Y-2.9933
X5.4291Y-3.0445
X5.4291Y-3.0957
X5.4291Y-3.1469
X5.4291Y-3.1984
X5.4291Y-3.2496
X5.4307Y-7.2059
X5.4311Y-7.1035
X5.4311Y-7.1547
X5.4311Y-7.2571
X5.4311Y-7.3083
X5.4311Y-7.3594
X5.4311Y-7.4106
X5.4311Y-7.4618
X5.4512Y-6.9907
X5.4557Y-7.5994
X5.4811Y-2.7248
X5.4811Y-4.1299
X5.4831Y-3.7717
X5.4961Y-7.5689
X5.4969Y-6.6081
X5.5Y-3.3041
X5.5098Y-4.003
X5.5106Y-4.811
X5.5146Y-4.4843
X5.5246Y-5.4134
X5.5266Y-5.7628
X5.5276Y-4.7096
X5.5276Y-5.0591
X5.5285Y-4.375
X5.5315Y-6.4016
X5.535Y-6.6435
X5.5364Y-6.0974
X5.5453Y-7.7657
X5.5673Y-6.7057
X5.5728Y-3.2579
X5.6093Y-3.2313
X5.6094Y-7.4943
X5.6106Y-7.1719
X5.6142Y-4.0573
X5.6142Y-4.4203
X5.6142Y-4.7703
X5.6142Y-5.4844
X5.6142Y-5.8329
X5.6142Y-6.553
X5.6146Y-6.1844
X5.622Y-2.937
X5.639Y-5.1673
X5.6406Y-4.1319
X5.6457Y-3.2018
X5.6496Y-7.1947
X5.6508Y-7.4758
X5.6594Y-2.9636
X5.6614Y-2.5961
X5.6661Y-3.7756
X5.6781Y-3.1693
X5.6811Y-4.061
X5.6811Y-4.4213
X5.6811Y-4.7746
X5.6811Y-5.126
X5.6811Y-5.4852
X5.6811Y-5.8356
X5.6811Y-6.187
X5.6811Y-6.5581
X5.6839Y-7.2246
X5.685Y-3.002
X5.6929Y-7.4585
X5.7114Y-4.811
X5.7165Y-3.1427
X5.7175Y-3.0374
X5.7193Y-4.4744
X5.7193Y-5.5295
X5.7195Y-5.8602
X5.7236Y-7.2486
X5.7331Y-7.4368
X5.737Y-5.187
X5.7402Y-4.7736
X5.7402Y-5.4803
X5.753Y-3.0679
X5.7559Y-3.1161
X5.7559Y-5.1289
X5.7594Y-7.3986
X5.7606Y-7.277
X5.7846Y-7.3152
X5.7866Y-7.3612
X5.8691Y-7.6309
X5.8878Y-6.4291
X5.8886Y-7.0557
X5.8917Y-6.1427
X5.8937Y-4.0128
X5.8947Y-4.374
X5.8984Y-5.8976
X5.9122Y-7.0978
X5.9319Y-6.2303
X5.9563Y-7.3545
X5.9571Y-7.3081
X5.965Y-6.5451
X5.9681Y-5.4833
X5.9685Y-4.0659
X5.9685Y-4.4167
X5.9685Y-5.1262
X5.9693Y-6.1896
X5.9697Y-5.8344
X5.9709Y-4.7659
X5.987Y-5.8996
X5.9894Y-7.388
X5.9976Y-7.2884
X6.0209Y-2.5803
X6.0283Y-7.4132
X6.0295Y-5.4937
X6.0303Y-3.1173
X6.0354Y-4.0591
X6.0354Y-4.4134
X6.0354Y-4.7677
X6.0354Y-5.1201
X6.0354Y-5.8356
X6.0354Y-6.189
X6.0354Y-6.5463
X6.0358Y-7.2624
X6.0413Y-6.5974
X6.0433Y-6.2362
X6.0581Y-3.0344
X6.0669Y-3.1447
X6.0669Y-5.872
X6.0669Y-7.4376
X6.0697Y-4.1181
X6.0717Y-4.4646
X6.0717Y-4.813
X6.0717Y-5.5295
X6.0736Y-7.2372
X6.0803Y-3.0756
X6.0846Y-5.4823
X6.0894Y-5.189
X6.0906Y-3.002
X6.1004Y-4.7717
X6.1033Y-3.1722
X6.1033Y-5.126
X6.1047Y-7.2045
X6.1059Y-7.4628
X6.1191Y-2.9646
X6.1388Y-3.2008
X6.1437Y-7.1805
X6.1447Y-2.9272
X6.1453Y-7.486
X6.1722Y-3.2323
X6.2087Y-3.2598
X6.2136Y-7.873
X6.2177Y-2.7543
X6.247Y-7.561
X6.2579Y-4.3829
X6.2589Y-4.0167
X6.2665Y-3.7657
X6.2717Y-3.2982
X6.3059Y-6.9974
X6.322Y-5.4797
X6.3228Y-4.4203
X6.3228Y-4.7738
X6.3228Y-5.1321
X6.3228Y-5.8341
X6.3228Y-6.1915
X6.3232Y-6.5443
X6.3244Y-2.7252
X6.3252Y-4.0671
X6.3406Y-7.1047
X6.3406Y-7.1559
X6.3406Y-7.2071
X6.3406Y-7.2583
X6.3406Y-7.3094
X6.3406Y-7.3606
X6.3406Y-7.4118
X6.3406Y-7.463
X6.3409Y-2.8878
X6.3409Y-2.939
X6.3409Y-2.9902
X6.3409Y-3.0413
X6.3409Y-3.0925
X6.3409Y-3.1437
X6.3409Y-3.1949
X6.3409Y-3.2461
X6.3484Y-7.0183
X6.3846Y-5.9055
X6.3898Y-4.0669
X6.3898Y-4.4203
X6.3898Y-4.7756
X6.3898Y-5.1299
X6.3898Y-5.4862
X6.3898Y-5.8327
X6.3898Y-6.1929
X6.3898Y-6.5463
X6.3917Y-7.1047
X6.3917Y-7.1559
X6.3917Y-7.2071
X6.3917Y-7.2583
X6.3917Y-7.3094
X6.3917Y-7.3606
X6.3917Y-7.4118
X6.3917Y-7.463
X6.3921Y-2.8878
X6.3921Y-2.939
X6.3921Y-2.9902
X6.3921Y-3.0413
X6.3921Y-3.0925
X6.3921Y-3.1437
X6.3921Y-3.1949
X6.3921Y-3.2461
X6.3984Y-3.7717
X6.4161Y-5.5295
X6.4181Y-6.2343
X6.4193Y-5.8671
X6.424Y-4.1161
X6.424Y-4.813
X6.4358Y-4.4744
X6.4358Y-5.1949
X6.4362Y-7.04
X6.4366Y-2.7146
X6.44Y-5.1348
X6.4429Y-7.1047
X6.4429Y-7.1559
X6.4429Y-7.2071
X6.4429Y-7.2583
X6.4429Y-7.3094
X6.4429Y-7.3606
X6.4429Y-7.4118
X6.4429Y-7.463
X6.4433Y-2.8878
X6.4433Y-2.939
X6.4433Y-2.9902
X6.4433Y-3.0413
X6.4433Y-3.0925
X6.4433Y-3.1437
X6.4433Y-3.1949
X6.4433Y-3.2461
X6.4567Y-4.7746
X6.4689Y-6.9343
X6.4713Y-7.0108
X6.4937Y-2.9902
X6.4941Y-7.1047
X6.4941Y-7.1559
X6.4941Y-7.2071
X6.4941Y-7.2583
X6.4941Y-7.3094
X6.4941Y-7.3606
X6.4941Y-7.4118
X6.4941Y-7.463
X6.4945Y-2.8878
X6.4945Y-2.939
X6.4945Y-3.0413
X6.4945Y-3.0925
X6.4945Y-3.1437
X6.4945Y-3.1949
X6.4945Y-3.2461
X6.511Y-6.9892
X6.5169Y-6.9406
X6.5224Y-6.6758
X6.5246Y-7.5984
X6.5386Y-6.8252
X6.5502Y-6.1929
X6.5591Y-6.71
X6.563Y-3.3031
X6.5679Y-7.561
X6.585Y-6.8264
X6.5941Y-6.7423
X6.5955Y-6.435
X6.6043Y-7.7726
X6.6094Y-2.7244
X6.6161Y-5.4311
X6.6171Y-4.372
X6.6181Y-4.0197
X6.6232Y-6.7852
X6.6289Y-3.2648
X6.6604Y-3.2313
X6.6772Y-4.0628
X6.6772Y-4.4167
X6.6772Y-5.4833
X6.6776Y-4.777
X6.6776Y-5.8285
X6.6776Y-6.5285
X6.678Y-6.1974
X6.6795Y-7.1722
X6.6827Y-7.4974
X6.6939Y-2.937
X6.6939Y-3.1998
X6.6996Y-5.8996
X6.7157Y-7.201
X6.722Y-2.5949
X6.7248Y-7.4789
X6.7283Y-3.1703
X6.7303Y-2.9646
X6.7441Y-4.0591
X6.7441Y-4.4222
X6.7441Y-4.7805
X6.7441Y-5.4764
X6.7441Y-5.8278
X6.7441Y-6.1909
X6.7441Y-6.5404
X6.7449Y-3.7717
X6.7488Y-7.2321
X6.7492Y-5.198
X6.7608Y-2.999
X6.7646Y-6.2343
X6.7661Y-7.4557
X6.7677Y-3.1467
X6.7705Y-4.1043
X6.7744Y-5.5276
X6.776Y-5.1272
X6.7764Y-4.8169
X6.7831Y-7.262
X6.7843Y-4.4685
X6.7844Y-5.8484
X6.7943Y-3.0315
X6.7953Y-5.4823
X6.7976Y-7.4219
X6.8051Y-3.1191
X6.8091Y-4.7795
X6.8098Y-5.1969
X6.813Y-3.0738
X6.8201Y-7.2888
X6.8219Y-5.128
X6.8323Y-7.3923
X6.8591Y-7.312
X6.8614Y-7.3577
X6.9461Y-7.0848
X6.9498Y-6.4508
X6.9606Y-4.3947
X6.9616Y-6.1654
X6.9636Y-4.0197
X6.9827Y-7.1148
X7.0087Y-6.2343
X7.0287Y-7.3679
X7.0315Y-4.4207
X7.0315Y-5.8411
X7.0319Y-4.0644
X7.0319Y-4.7703
X7.0319Y-5.4841
X7.0319Y-6.188
X7.0319Y-6.5494
X7.0323Y-5.1329
X7.0323Y-7.3207
X7.048Y-4.1319
X7.0587Y-7.4022
X7.0659Y-6.6329
X7.0681Y-7.29
X7.0896Y-3.0709
X7.0915Y-3.1171
X7.0945Y-2.5815
X7.0984Y-4.0659
X7.0984Y-4.4193
X7.0984Y-4.7746
X7.0984Y-5.128
X7.0984Y-5.4843
X7.0984Y-5.8425
X7.0984Y-6.1939
X7.0984Y-6.5472
X7.0988Y-7.4285
X7.1071Y-3.7776
X7.1094Y-7.2683
X7.125Y-3.0404
X7.125Y-3.1476
X7.1287Y-4.4665
X7.1307Y-4.815
X7.1307Y-5.8878
X7.1319Y-6.2254
X7.1386Y-5.5315
X7.1402Y-7.4474
X7.1406Y-5.185
X7.1429Y-7.2372
X7.1486Y-5.8425
X7.1565Y-3.1801
X7.1604Y-3.0069
X7.1624Y-5.4803
X7.1654Y-4.7756
X7.1732Y-7.4797
X7.1803Y-7.2104
X7.1821Y-5.1319
X7.1929Y-3.2106
X7.1939Y-2.9754
X7.2138Y-7.5014
X7.2224Y-7.1915
X7.2234Y-2.9409
X7.2283Y-3.2411
X7.2667Y-3.2677
X7.2736Y-2.7516
X7.2785Y-7.872
X7.3179Y-4.3957
X7.3189Y-4.0236
X7.3346Y-3.2923
X7.3356Y-7.5561
X7.3717Y-2.726
X7.3724Y-6.999
X7.377Y-7.6309
X7.3858Y-4.0652
X7.3858Y-4.4219
X7.3858Y-4.7738
X7.3858Y-5.1274
X7.3858Y-5.4805
X7.3858Y-6.1888
X7.3866Y-5.8301
X7.3866Y-6.5364
X7.4004Y-4.1319
X7.4024Y-5.1969
X7.4024Y-7.1114
X7.4024Y-7.1626
X7.4024Y-7.2138
X7.4024Y-7.265
X7.4024Y-7.3161
X7.4024Y-7.3673
X7.4024Y-7.4185
X7.4024Y-7.4697
X7.4031Y-3.1949
X7.4039Y-2.8878
X7.4039Y-2.939
X7.4039Y-2.9902
X7.4039Y-3.0409
X7.4039Y-3.0925
X7.4039Y-3.1437
X7.4039Y-3.2461
X7.4063Y-3.7756
X7.4102Y-5.5295
X7.4102Y-5.8898
X7.4122Y-6.2323
X7.4122Y-7.0203
X7.428Y-6.6142
X7.4378Y-6.8872
X7.4508Y-7.0443
X7.4528Y-4.0659
X7.4528Y-4.4193
X7.4528Y-4.7795
X7.4528Y-5.1289
X7.4528Y-5.4862
X7.4528Y-5.8327
X7.4528Y-6.1959
X7.4528Y-6.5472
X7.4535Y-7.1114
X7.4535Y-7.1626
X7.4535Y-7.2138
X7.4535Y-7.265
X7.4535Y-7.3161
X7.4535Y-7.3673
X7.4535Y-7.4185
X7.4535Y-7.4697
X7.4551Y-2.8878
X7.4551Y-2.939
X7.4551Y-2.9902
X7.4551Y-3.0413
X7.4551Y-3.0925
X7.4551Y-3.1437
X7.4551Y-3.1949
X7.4551Y-3.2461
X7.4594Y-6.6535
X7.4634Y-6.7008
X7.4783Y-5.873
X7.4862Y-6.8919
X7.487Y-4.4685
X7.4976Y-7.047
X7.5008Y-4.813
X7.5047Y-7.1114
X7.5047Y-7.1626
X7.5047Y-7.2138
X7.5047Y-7.265
X7.5047Y-7.3161
X7.5047Y-7.3673
X7.5047Y-7.4185
X7.5047Y-7.4697
X7.5063Y-2.8878
X7.5063Y-2.939
X7.5063Y-2.9902
X7.5063Y-3.0413
X7.5063Y-3.0925
X7.5063Y-3.1437
X7.5063Y-3.1949
X7.5063Y-3.2461
X7.5197Y-2.7244
X7.5346Y-7.0128
X7.55Y-6.8937
X7.5559Y-7.1114
X7.5559Y-7.1626
X7.5559Y-7.2138
X7.5559Y-7.265
X7.5559Y-7.3161
X7.5559Y-7.3673
X7.5559Y-7.4185
X7.5559Y-7.4697
X7.5575Y-2.8878
X7.5575Y-2.939
X7.5575Y-2.9902
X7.5575Y-3.0413
X7.5575Y-3.0925
X7.5575Y-3.1437
X7.5575Y-3.1949
X7.5575Y-3.2461
X7.5795Y-6.9939
X7.5846Y-7.5728
X7.5933Y-6.9449
X7.5972Y-6.5787
X7.6014Y-7.6368
X7.626Y-3.2894
X7.6289Y-6.4931
X7.6339Y-7.5709
X7.6406Y-2.7181
X7.6634Y-6.1526
X7.6644Y-4.3976
X7.6644Y-5.0807
X7.6654Y-4.0364
X7.6673Y-7.7717
X7.6683Y-4.7372
X7.6683Y-5.4547
X7.6878Y-6.9055
X7.6919Y-3.2648
X7.7244Y-7.1931
X7.7303Y-3.2382
X7.7311Y-7.4955
X7.7382Y-2.8976
X7.7394Y-6.5463
X7.7398Y-5.1262
X7.7402Y-4.0612
X7.7402Y-6.1852
X7.7409Y-4.4144
X7.7409Y-4.7687
X7.7409Y-5.4868
X7.7409Y-5.8415
X7.753Y-2.9459
X7.7642Y-7.2179
X7.7677Y-3.2116
X7.7717Y-7.4742
X7.7764Y-6.2343
X7.7823Y-5.5276
X7.7864Y-2.9774
X7.7953Y-2.5969
X7.802Y-5.8976
X7.8022Y-3.1811
X7.8043Y-7.2404
X7.8071Y-4.065
X7.8071Y-4.4203
X7.8071Y-4.7687
X7.8071Y-5.128
X7.8071Y-5.4852
X7.8071Y-5.8425
X7.8071Y-6.189
X7.8071Y-6.5443
X7.813Y-7.4522
X7.8199Y-3.0098
X7.8276Y-5.2008
X7.8295Y-6.2283
X7.835Y-4.1039
X7.8394Y-4.813
X7.8425Y-3.1526
X7.8476Y-4.4445
X7.848Y-7.2557
X7.8484Y-5.8612
X7.8492Y-7.4238
X7.8553Y-3.0394
X7.8642Y-4.7717
X7.8661Y-5.4833
X7.874Y-5.1289
X7.8819Y-3.0768
X7.8839Y-3.127
X7.8858Y-7.2821
X7.8894Y-7.4006
X7.9142Y-7.3171
X7.9146Y-7.3632
X8.Y-6.5157
X8.0461Y-3.8169
X8.0551Y-6.9705
X8.0933Y-4.124
X8.1012Y-4.4744
X8.1614Y-5.2461
X8.1801Y-4.497
X8.187Y-5.9026
X8.1939Y-5.2805
X8.2116Y-4.5305
X8.2185Y-5.937
X8.2264Y-5.313
X8.2392Y-4.5679
X8.25Y-5.9715
X8.2608Y-5.3435
X8.2726Y-4.5994
X8.2844Y-6.0059
X8.2982Y-5.3711
X8.3061Y-4.6299
X8.3199Y-6.0423
X8.3376Y-5.3986
X8.3396Y-4.6604
X8.3533Y-6.0738
X8.3711Y-4.6939
X8.373Y-5.4281
X8.376Y-5.688
X8.3848Y-6.4744
X8.3898Y-6.1063
X8.3967Y-3.9193
X8.4006Y-4.9744
X8.4144Y-4.2953
X8.4154Y-6.4409
X8.4193Y-4.6939
X8.4222Y-5.4272
X8.4252Y-5.685
X8.438Y-6.1063
X8.4429Y-3.9242
X8.4459Y-4.9715
X8.4547Y-6.4104
X8.4606Y-4.2933
X8.4656Y-4.6969
X8.4685Y-5.4281
X8.4744Y-5.6713
X8.4843Y-6.1093
X8.4882Y-6.376
X8.4892Y-3.9242
X8.4931Y-3.9705
X8.4931Y-4.9675
X8.4941Y-4.9213
X8.5069Y-4.2933
X8.5108Y-4.6998
X8.5128Y-4.2461
X8.5148Y-5.4281
X8.5236Y-6.3465
X8.5295Y-6.1112
X8.5305Y-5.6673
X8.5394Y-4.9163
X8.5404Y-3.9695
X8.5423Y-5.6132
X8.5561Y-4.7008
X8.56Y-5.4291
X8.561Y-4.247
X8.561Y-6.3189
X8.5748Y-6.1142
X8.5776Y-2.8189
X8.5846Y-4.9124
X8.5854Y-7.2638
X8.5876Y-5.6083
X8.5896Y-3.9685
X8.6014Y-4.7037
X8.6014Y-6.2963
X8.6083Y-4.2451
X8.6083Y-5.4331
X8.6201Y-6.1161
X8.6748Y-6.1642
X8.6748Y-6.2154
X8.6748Y-6.2665
X8.6748Y-6.3177
X8.6756Y-4.0406
X8.6756Y-4.7488
X8.6756Y-4.8
X8.6756Y-4.8512
X8.6756Y-4.898
X8.676Y-4.0917
X8.676Y-4.1429
X8.676Y-4.1894
X8.676Y-5.4571
X8.676Y-5.5083
X8.676Y-5.5594
X8.676Y-5.6071
X8.7254Y-3.7992
X8.726Y-6.1642
X8.726Y-6.2154
X8.726Y-6.2665
X8.726Y-6.3177
X8.7268Y-4.7488
X8.7268Y-4.8
X8.7268Y-4.8512
X8.7268Y-4.898
X8.7272Y-4.0406
X8.7272Y-4.0917
X8.7272Y-4.1429
X8.7272Y-4.1894
X8.7272Y-5.4571
X8.7272Y-5.5083
X8.7272Y-5.5594
X8.7272Y-5.6071
X8.75Y-3.085
X8.7746Y-4.3858
X8.7772Y-6.1642
X8.7772Y-6.2154
X8.7772Y-6.2665
X8.7772Y-6.3177
X8.778Y-4.7488
X8.778Y-4.8
X8.778Y-4.8512
X8.778Y-4.8976
X8.7783Y-4.0406
X8.7783Y-4.0917
X8.7783Y-4.1429
X8.7783Y-4.189
X8.7783Y-5.4571
X8.7783Y-5.5083
X8.7783Y-5.5594
X8.7783Y-5.6071
X8.7815Y-3.8041
X8.7864Y-5.8041
X8.7864Y-6.5325
X8.7933Y-5.0925
X8.8209Y-4.3858
X8.828Y-6.2154
X8.8283Y-6.1642
X8.8283Y-6.2665
X8.8283Y-6.3177
X8.8291Y-4.189
X8.8291Y-4.7488
X8.8291Y-4.8
X8.8291Y-4.8512
X8.8291Y-4.8976
X8.8295Y-4.0406
X8.8295Y-4.0917
X8.8295Y-4.1429
X8.8295Y-5.4571
X8.8295Y-5.5083
X8.8295Y-5.5594
X8.8297Y-3.8002
X8.8299Y-5.6071
X8.8317Y-6.5364
X8.8337Y-5.8051
X8.8425Y-5.0896
X8.8671Y-4.3898
X8.877Y-3.7992
X8.878Y-6.5364
X8.8795Y-6.1642
X8.8795Y-6.2154
X8.8795Y-6.2665
X8.8795Y-6.3177
X8.8799Y-5.8022
X8.8803Y-4.7488
X8.8803Y-4.8
X8.8803Y-4.8512
X8.8803Y-4.8976
X8.8807Y-4.0406
X8.8807Y-4.0917
X8.8807Y-4.1433
X8.8807Y-5.4571
X8.8807Y-5.5083
X8.8807Y-5.5594
X8.8811Y-4.189
X8.8811Y-5.6071
X8.887Y-2.8331
X8.887Y-7.287
X8.8878Y-5.0906
X8.8909Y-7.4358
X8.8913Y-2.9961
X8.9183Y-4.3868
X8.9213Y-5.1309
X8.9242Y-3.7943
X8.9262Y-5.8002
X8.9272Y-6.5335
X8.9307Y-6.1642
X8.9307Y-6.2154
X8.9307Y-6.2665
X8.9307Y-6.3177
X8.9315Y-4.189
X8.9315Y-4.7488
X8.9315Y-4.8
X8.9315Y-4.8512
X8.9315Y-4.8976
X8.9319Y-4.0406
X8.9319Y-4.0917
X8.9319Y-4.1429
X8.9319Y-5.4571
X8.9319Y-5.5083
X8.9319Y-5.5594
X8.9319Y-5.6071
X8.9606Y-5.8327
X8.9646Y-4.3829
X8.9665Y-5.128
X8.9673Y-7.1535
X8.9715Y-3.8002
X8.9754Y-6.5344
X8.9819Y-6.1642
X8.9819Y-6.2154
X8.9819Y-6.2665
X8.9819Y-6.3177
X8.9823Y-5.6071
X8.9827Y-4.7488
X8.9827Y-4.8
X8.9827Y-4.8512
X8.9827Y-4.898
X8.9831Y-4.0406
X8.9831Y-4.0917
X8.9831Y-4.1429
X8.9831Y-4.1894
X8.9831Y-5.4571
X8.9831Y-5.5083
X8.9831Y-5.5594
X8.999Y-4.4557
X9.0069Y-5.8317
X9.0118Y-5.127
X9.0207Y-3.8041
X9.0331Y-6.1642
X9.0331Y-6.2154
X9.0331Y-6.2665
X9.0331Y-6.3177
X9.0339Y-4.7488
X9.0339Y-4.8
X9.0339Y-4.8512
X9.0339Y-4.898
X9.0343Y-4.0406
X9.0343Y-4.0917
X9.0343Y-4.1429
X9.0343Y-4.1894
X9.0343Y-5.4571
X9.0343Y-5.5083
X9.0343Y-5.5594
X9.0343Y-5.6071
X9.0551Y-4.3494
X9.0606Y-7.4382
X9.0654Y-2.9976
X9.0657Y-7.285
X9.0705Y-2.8335
X9.2075Y-2.9154
X9.2215Y-5.3199
X9.2224Y-5.3199
X9.2234Y-4.6014
X9.2254Y-6.0295
X9.2929Y-3.7602
X9.2953Y-3.8976
X9.2982Y-6.1063
X9.3022Y-4.6841
X9.3041Y-6.4606
X9.3061Y-5.0325
X9.3061Y-5.7785
X9.3081Y-5.376
X9.312Y-4.2037
X9.314Y-5.877
X9.315Y-5.1713
X9.315Y-6.5846
X9.3169Y-4.311
X9.4185Y-4.8693
X9.4193Y-3.7205
X9.4197Y-4.1661
X9.4197Y-4.4606
X9.4201Y-5.5846
X9.4205Y-5.9449
X9.4209Y-6.2799
X9.4248Y-5.2047
T2
X2.1642Y-5.6217
X2.1642Y-5.7217
X2.1642Y-5.8217
X2.1642Y-5.9217
X2.1642Y-6.0217
X2.1642Y-6.1217
X2.1642Y-6.2217
X2.1642Y-6.3217
X2.1642Y-6.4217
X2.1642Y-6.5217
X2.1642Y-6.6217
X2.1642Y-6.7217
X2.1642Y-6.8217
X2.1642Y-6.9217
X2.1642Y-7.0217
X2.1642Y-7.1217
X2.1642Y-7.2217
X2.2823Y-4.9598
X2.2823Y-5.0598
X2.2823Y-5.1598
X2.2823Y-5.2598
X2.7642Y-5.6217
X2.7642Y-5.7217
X2.7642Y-5.8217
X2.7642Y-5.9217
X2.7642Y-6.0217
X2.7642Y-6.1217
X2.7642Y-6.2217
X2.7642Y-6.3217
X2.7642Y-6.4217
X2.7642Y-6.5217
X2.7642Y-6.6217
X2.7642Y-6.7217
X2.7642Y-6.8217
X2.7642Y-6.9217
X2.7642Y-7.0217
X2.7642Y-7.1217
X2.7642Y-7.2217
T4
X9.1461Y-6.724
T5
X1.6327Y-5.7992
X1.6327Y-5.937
X1.6327Y-6.0748
X1.6327Y-6.311
X1.6327Y-6.4488
X1.6327Y-6.5866
X1.6327Y-7.2283
X1.6327Y-7.3661
T2
X1.6209Y-5.1063G85X1.6209Y-5.185
G05
X1.6228Y-4.4705G85X1.6228Y-4.5492
G05
X1.6996Y-5.3307G85X1.7783Y-5.3307
G05
X1.7016Y-4.6949G85X1.7803Y-4.6949
G05
X1.8571Y-5.1063G85X1.8571Y-5.185
G05
X1.8591Y-4.4705G85X1.8591Y-4.5492
G05
T3
X1.6189Y-3.8012G85X1.6189Y-3.8799
G05
X1.6209Y-3.126G85X1.6209Y-3.2047
G05
X1.6977Y-4.0256G85X1.7764Y-4.0256
G05
X1.6996Y-3.3504G85X1.7783Y-3.3504
G05
X1.8551Y-3.8012G85X1.8551Y-3.8799
G05
X1.8571Y-3.126G85X1.8571Y-3.2047
G05
T0
M30
