G04 #@! TF.FileFunction,Copper,L2,Inr,Mixed*
%FSLAX46Y46*%
G04 Gerber Fmt 4.6, Leading zero omitted, Abs format (unit mm)*
G04 Created by KiCad (PCBNEW 4.0.2-stable) date Monday, November 12, 2018 'PMt' 10:07:05 PM*
%MOMM*%
G01*
G04 APERTURE LIST*
%ADD10C,0.100000*%
%ADD11R,3.500120X3.500120*%
%ADD12O,3.810000X1.524000*%
%ADD13R,2.235200X2.235200*%
%ADD14R,3.500000X3.500000*%
%ADD15C,2.400000*%
%ADD16R,2.400000X2.400000*%
%ADD17R,1.700000X1.700000*%
%ADD18O,1.700000X1.700000*%
%ADD19C,0.889000*%
%ADD20C,0.254000*%
%ADD21C,0.400000*%
G04 APERTURE END LIST*
D10*
D11*
X47120140Y-97550000D03*
X41120660Y-97550000D03*
X44120400Y-102249000D03*
D12*
X54970000Y-142790000D03*
X54970000Y-145330000D03*
X54970000Y-147870000D03*
X54970000Y-150410000D03*
X54970000Y-152950000D03*
X54970000Y-155490000D03*
X54970000Y-158030000D03*
X54970000Y-160570000D03*
X54970000Y-163110000D03*
X54970000Y-165650000D03*
X54970000Y-168190000D03*
X54970000Y-170730000D03*
X54970000Y-173270000D03*
X54970000Y-175810000D03*
X54970000Y-178350000D03*
X54970000Y-180890000D03*
X54970000Y-183430000D03*
X70210000Y-142790000D03*
X70210000Y-145330000D03*
X70210000Y-147870000D03*
X70210000Y-150410000D03*
X70210000Y-152950000D03*
X70210000Y-155490000D03*
X70210000Y-158030000D03*
X70210000Y-160570000D03*
X70210000Y-163110000D03*
X70210000Y-165650000D03*
X70210000Y-168190000D03*
X70210000Y-170730000D03*
X70210000Y-173270000D03*
X70210000Y-175810000D03*
X70210000Y-178350000D03*
X70210000Y-180890000D03*
X70210000Y-183430000D03*
D13*
X232310000Y-170790000D03*
D11*
X47170140Y-80400000D03*
X41170660Y-80400000D03*
X44170400Y-85099000D03*
D14*
X47170000Y-130700000D03*
X41170000Y-130700000D03*
X44170000Y-135400000D03*
D15*
X41470000Y-163800000D03*
X41470000Y-167300000D03*
D16*
X41470000Y-160300000D03*
D17*
X57970000Y-133600000D03*
D18*
X57970000Y-131060000D03*
X57970000Y-128520000D03*
X57970000Y-125980000D03*
D15*
X41470000Y-187100000D03*
D16*
X41470000Y-183600000D03*
D15*
X41470000Y-150800000D03*
X41470000Y-154300000D03*
D16*
X41470000Y-147300000D03*
D14*
X47220000Y-114550000D03*
X41220000Y-114550000D03*
X44220000Y-119250000D03*
D19*
X106350000Y-194025000D03*
X133475000Y-193900000D03*
X149075000Y-193825000D03*
X193075000Y-193975000D03*
X227770000Y-181700000D03*
X236325000Y-164100000D03*
X236175000Y-155100000D03*
X236375000Y-146775000D03*
X236425000Y-136550000D03*
X236275000Y-118975000D03*
X236525000Y-106775000D03*
X236100000Y-99000000D03*
X233870000Y-74050000D03*
X194070000Y-69040000D03*
X187240000Y-69240000D03*
X167880000Y-69200000D03*
X160640000Y-69220000D03*
X139220000Y-69210000D03*
X132910000Y-69210000D03*
X113180000Y-69520000D03*
X104440000Y-69160000D03*
X72020000Y-76000000D03*
X161050000Y-180460000D03*
X162350000Y-180460000D03*
X161050000Y-181760000D03*
X162350000Y-181760000D03*
X163650000Y-181760000D03*
X164950000Y-181760000D03*
X164950000Y-180460000D03*
X163650000Y-180460000D03*
X85500000Y-83780000D03*
X225830000Y-188870000D03*
X230140000Y-188930000D03*
X230270000Y-185040000D03*
X225730000Y-185090000D03*
X225840000Y-76100000D03*
X230260000Y-76140000D03*
X230390000Y-71970000D03*
X225730000Y-71960000D03*
X75760000Y-74920000D03*
X79780000Y-74920000D03*
X79780000Y-70440000D03*
X75690000Y-70440000D03*
X188020000Y-188430000D03*
X189320000Y-188430000D03*
X190620000Y-188430000D03*
X191920000Y-188430000D03*
X188020000Y-189730000D03*
X189320000Y-189730000D03*
X190620000Y-189730000D03*
X191920000Y-189730000D03*
X188020000Y-180630000D03*
X189320000Y-180630000D03*
X190620000Y-180630000D03*
X191920000Y-180630000D03*
X191920000Y-181930000D03*
X190620000Y-181930000D03*
X189320000Y-181930000D03*
X188020000Y-181930000D03*
X161050000Y-189560000D03*
X162350000Y-189560000D03*
X163650000Y-189560000D03*
X164950000Y-189560000D03*
X164950000Y-188260000D03*
X163650000Y-188260000D03*
X162350000Y-188260000D03*
X161050000Y-188260000D03*
X134050000Y-189530000D03*
X135350000Y-189530000D03*
X136650000Y-189530000D03*
X137950000Y-189530000D03*
X137950000Y-188230000D03*
X136650000Y-188230000D03*
X135350000Y-188230000D03*
X134050000Y-188230000D03*
X137950000Y-181730000D03*
X136650000Y-181730000D03*
X135350000Y-181730000D03*
X134050000Y-181730000D03*
X135350000Y-180430000D03*
X136650000Y-180430000D03*
X137950000Y-180430000D03*
X110970000Y-189520000D03*
X109670000Y-189520000D03*
X108370000Y-189520000D03*
X107070000Y-188220000D03*
X108370000Y-188220000D03*
X109670000Y-188220000D03*
X110970000Y-188220000D03*
X107070000Y-189520000D03*
X110970000Y-180420000D03*
X109670000Y-180420000D03*
X108370000Y-180420000D03*
X107070000Y-180420000D03*
X109670000Y-181720000D03*
X110970000Y-181720000D03*
X108370000Y-181720000D03*
X107070000Y-181720000D03*
X221640000Y-160470000D03*
X221640000Y-159170000D03*
X221640000Y-157870000D03*
X221640000Y-156570000D03*
X220340000Y-156570000D03*
X220340000Y-157870000D03*
X220340000Y-159170000D03*
X220340000Y-160470000D03*
X229440000Y-160470000D03*
X229440000Y-159170000D03*
X229440000Y-157870000D03*
X229440000Y-156570000D03*
X228140000Y-160470000D03*
X228140000Y-159170000D03*
X228140000Y-157870000D03*
X228140000Y-156570000D03*
X221670000Y-138610000D03*
X221670000Y-139910000D03*
X221670000Y-141210000D03*
X221670000Y-142420000D03*
X220370000Y-142420000D03*
X220370000Y-141210000D03*
X220370000Y-139910000D03*
X220370000Y-138610000D03*
X229470000Y-138610000D03*
X229470000Y-139910000D03*
X229470000Y-141210000D03*
X229470000Y-142420000D03*
X228150000Y-142420000D03*
X228170000Y-141210000D03*
X228170000Y-139910000D03*
X228170000Y-138610000D03*
X220360000Y-120620000D03*
X220360000Y-121920000D03*
X220360000Y-123220000D03*
X220360000Y-124410000D03*
X221660000Y-124410000D03*
X221660000Y-123220000D03*
X221660000Y-121920000D03*
X221660000Y-120620000D03*
X229460000Y-121920000D03*
X229460000Y-120620000D03*
X229460000Y-123220000D03*
X229460000Y-124410000D03*
X228160000Y-124410000D03*
X228160000Y-123220000D03*
X228160000Y-121920000D03*
X228160000Y-120620000D03*
X220370000Y-103930000D03*
X220360000Y-102630000D03*
X220370000Y-106410000D03*
X220370000Y-105230000D03*
X221670000Y-102630000D03*
X221670000Y-106410000D03*
X221670000Y-105230000D03*
X221670000Y-103930000D03*
X229470000Y-105230000D03*
X229470000Y-103930000D03*
X229470000Y-102630000D03*
X229470000Y-106410000D03*
X228170000Y-106410000D03*
X228170000Y-105230000D03*
X228170000Y-103930000D03*
X228170000Y-102630000D03*
X188040000Y-81150000D03*
X189360000Y-81150000D03*
X190660000Y-81150000D03*
X191960000Y-81150000D03*
X188060000Y-82450000D03*
X189360000Y-82450000D03*
X190660000Y-82450000D03*
X191960000Y-82450000D03*
X188060000Y-74650000D03*
X189360000Y-74650000D03*
X190660000Y-74650000D03*
X191960000Y-74650000D03*
X188060000Y-73350000D03*
X189360000Y-73350000D03*
X190660000Y-73350000D03*
X191960000Y-73350000D03*
X164960000Y-82450000D03*
X163660000Y-82450000D03*
X162360000Y-82450000D03*
X161060000Y-82450000D03*
X164960000Y-81150000D03*
X163660000Y-81150000D03*
X162360000Y-81150000D03*
X161060000Y-81150000D03*
X164960000Y-73350000D03*
X163660000Y-73350000D03*
X162360000Y-73350000D03*
X161060000Y-74650000D03*
X162360000Y-74650000D03*
X163660000Y-74650000D03*
X164960000Y-74650000D03*
X161060000Y-73350000D03*
X137900000Y-82540000D03*
X136770000Y-82530000D03*
X135470000Y-82530000D03*
X134170000Y-82530000D03*
X136770000Y-81230000D03*
X135470000Y-81230000D03*
X134170000Y-81230000D03*
X137900000Y-81240000D03*
X134170000Y-73430000D03*
X135470000Y-73430000D03*
X136770000Y-73430000D03*
X137890000Y-73430000D03*
X137890000Y-74750000D03*
X136770000Y-74730000D03*
X135470000Y-74730000D03*
X134170000Y-74730000D03*
X107040000Y-82510000D03*
X108340000Y-82510000D03*
X109640000Y-82510000D03*
X110940000Y-82510000D03*
X110940000Y-81210000D03*
X109640000Y-81210000D03*
X108340000Y-81210000D03*
X107040000Y-81210000D03*
X107040000Y-74710000D03*
X108340000Y-74710000D03*
X109640000Y-74710000D03*
X110940000Y-74710000D03*
X110940000Y-73410000D03*
X109640000Y-73410000D03*
X108340000Y-73410000D03*
X107040000Y-73410000D03*
X107040000Y-79910000D03*
X108340000Y-79910000D03*
X109640000Y-79910000D03*
X110940000Y-79910000D03*
X110940000Y-78610000D03*
X109640000Y-78610000D03*
X108340000Y-78610000D03*
X107040000Y-78610000D03*
X107040000Y-77310000D03*
X108340000Y-77340000D03*
X109640000Y-77300000D03*
X110940000Y-77310000D03*
X110940000Y-76010000D03*
X109640000Y-76010000D03*
X108340000Y-76010000D03*
X107040000Y-76010000D03*
X188020000Y-187130000D03*
X189320000Y-187130000D03*
X190620000Y-187130000D03*
X191920000Y-187130000D03*
X191920000Y-185830000D03*
X190620000Y-185830000D03*
X189320000Y-185830000D03*
X188020000Y-185830000D03*
X188020000Y-184530000D03*
X189320000Y-184530000D03*
X190620000Y-184530000D03*
X191920000Y-184530000D03*
X191920000Y-183230000D03*
X190620000Y-183230000D03*
X189320000Y-183230000D03*
X188020000Y-183230000D03*
X161050000Y-186960000D03*
X162350000Y-186960000D03*
X163650000Y-186960000D03*
X164950000Y-186960000D03*
X164950000Y-185660000D03*
X163650000Y-185660000D03*
X162350000Y-185660000D03*
X161050000Y-185660000D03*
X161050000Y-184360000D03*
X162350000Y-184360000D03*
X163650000Y-184360000D03*
X164950000Y-184360000D03*
X164950000Y-183060000D03*
X163650000Y-183060000D03*
X162350000Y-183060000D03*
X161050000Y-183060000D03*
X134050000Y-186930000D03*
X135350000Y-186930000D03*
X136650000Y-186930000D03*
X137950000Y-186930000D03*
X137950000Y-185630000D03*
X136650000Y-185630000D03*
X135350000Y-185630000D03*
X134050000Y-185630000D03*
X134050000Y-184330000D03*
X135350000Y-184330000D03*
X136650000Y-184330000D03*
X137950000Y-184330000D03*
X137940000Y-183030000D03*
X136650000Y-183030000D03*
X135350000Y-183030000D03*
X134050000Y-183030000D03*
X107070000Y-186920000D03*
X108370000Y-186920000D03*
X109670000Y-186920000D03*
X110970000Y-186920000D03*
X110970000Y-185620000D03*
X109670000Y-185620000D03*
X108370000Y-185620000D03*
X107070000Y-185620000D03*
X107070000Y-184320000D03*
X108370000Y-184320000D03*
X109670000Y-184320000D03*
X110970000Y-184320000D03*
X110970000Y-183020000D03*
X109670000Y-183020000D03*
X108370000Y-183020000D03*
X107070000Y-183020000D03*
X222940000Y-160470000D03*
X224240000Y-160470000D03*
X225540000Y-160470000D03*
X226840000Y-160470000D03*
X226840000Y-159170000D03*
X225540000Y-159170000D03*
X224240000Y-159170000D03*
X222940000Y-159170000D03*
X222940000Y-157870000D03*
X224230000Y-157870000D03*
X225540000Y-157870000D03*
X226840000Y-157870000D03*
X226840000Y-156570000D03*
X225540000Y-156570000D03*
X224240000Y-156570000D03*
X222940000Y-156570000D03*
X222970000Y-142420000D03*
X224280000Y-142420000D03*
X225580000Y-142420000D03*
X226870000Y-142420000D03*
X226870000Y-141210000D03*
X225570000Y-141210000D03*
X224270000Y-141210000D03*
X222970000Y-141210000D03*
X222970000Y-139910000D03*
X224270000Y-139910000D03*
X225570000Y-139910000D03*
X226870000Y-139910000D03*
X226870000Y-138610000D03*
X225570000Y-138610000D03*
X224270000Y-138610000D03*
X222970000Y-138610000D03*
X222960000Y-124400000D03*
X224260000Y-124400000D03*
X225560000Y-124400000D03*
X226860000Y-124400000D03*
X226860000Y-123220000D03*
X225560000Y-123220000D03*
X224260000Y-123220000D03*
X222960000Y-123220000D03*
X222960000Y-121920000D03*
X224260000Y-121920000D03*
X225560000Y-121920000D03*
X226860000Y-121920000D03*
X226860000Y-120620000D03*
X225560000Y-120620000D03*
X224260000Y-120620000D03*
X222960000Y-120620000D03*
X226860000Y-106400000D03*
X225580000Y-106400000D03*
X224260000Y-106400000D03*
X222970000Y-106400000D03*
X222970000Y-105230000D03*
X224270000Y-105230000D03*
X225570000Y-105240000D03*
X226870000Y-105230000D03*
X226870000Y-103930000D03*
X225570000Y-103930000D03*
X224270000Y-103930000D03*
X222970000Y-103930000D03*
X226870000Y-102630000D03*
X225570000Y-102630000D03*
X224270000Y-102630000D03*
X222970000Y-102630000D03*
X191960000Y-79850000D03*
X190660000Y-79850000D03*
X189360000Y-79850000D03*
X188060000Y-79850000D03*
X188060000Y-78550000D03*
X189360000Y-78550000D03*
X190660000Y-78550000D03*
X191960000Y-78550000D03*
X191960000Y-77250000D03*
X190660000Y-77250000D03*
X189360000Y-77250000D03*
X188060000Y-77240000D03*
X191960000Y-75950000D03*
X190660000Y-75950000D03*
X189360000Y-75950000D03*
X188060000Y-75950000D03*
X161060000Y-79850000D03*
X162360000Y-79850000D03*
X163660000Y-79850000D03*
X164960000Y-79850000D03*
X164960000Y-78550000D03*
X163660000Y-78550000D03*
X162360000Y-78550000D03*
X161060000Y-78550000D03*
X161060000Y-77250000D03*
X162360000Y-77250000D03*
X163660000Y-77250000D03*
X164960000Y-77250000D03*
X164940000Y-75950000D03*
X163660000Y-75950000D03*
X162360000Y-75950000D03*
X161060000Y-75950000D03*
X137900000Y-79930000D03*
X137900000Y-78630000D03*
X137900000Y-76030000D03*
X137900000Y-77330000D03*
X136770000Y-79930000D03*
X136770000Y-78630000D03*
X136770000Y-77330000D03*
X135470000Y-79930000D03*
X135470000Y-78630000D03*
X135470000Y-77330000D03*
X136770000Y-76030000D03*
X135470000Y-76030000D03*
X134170000Y-79930000D03*
X134170000Y-78630000D03*
X134170000Y-77330000D03*
X134170000Y-76030000D03*
X236375000Y-127825000D03*
X187375000Y-193825000D03*
X100050000Y-193950000D03*
X77700000Y-65400000D03*
X189250000Y-178925000D03*
X134050000Y-180430000D03*
X109275000Y-178800000D03*
X136480000Y-178835000D03*
X192650000Y-192350000D03*
X190440000Y-178995000D03*
X163480000Y-178815000D03*
X111650000Y-193000000D03*
X138575000Y-193025000D03*
X165725000Y-193000000D03*
X227875000Y-96525000D03*
X101000000Y-104425000D03*
X101925000Y-74625000D03*
X99300000Y-103550000D03*
X102550000Y-182125000D03*
X97600000Y-103450000D03*
X101500000Y-113200000D03*
X218650000Y-107825000D03*
X101175000Y-75525000D03*
X99300000Y-112300000D03*
X101600000Y-182775000D03*
X97625000Y-112225000D03*
X207775000Y-114225000D03*
X101250000Y-122550000D03*
X100400000Y-76450000D03*
X99300000Y-121550000D03*
X100650000Y-183425000D03*
X97600000Y-121450000D03*
X100700000Y-131800000D03*
X218050000Y-124775000D03*
X99500000Y-77175000D03*
X99300000Y-130850000D03*
X99700000Y-184100000D03*
X97600000Y-130475000D03*
X100050000Y-140475000D03*
X207300000Y-133250000D03*
X98725000Y-78050000D03*
X99300000Y-139450000D03*
X98825000Y-184850000D03*
X97575000Y-139250000D03*
X103700000Y-149425000D03*
X218125000Y-142450000D03*
X98750000Y-79250000D03*
X99300000Y-148550000D03*
X97775000Y-185425000D03*
X97600000Y-148125000D03*
X103850000Y-154925000D03*
X207950000Y-149925000D03*
X99725000Y-79875000D03*
X99300000Y-157525000D03*
X97675000Y-186600000D03*
X97575000Y-157275000D03*
X103825000Y-163825000D03*
X218475000Y-159925000D03*
X100725000Y-80525000D03*
X99300000Y-166700000D03*
X98325000Y-187550000D03*
X96375000Y-164475000D03*
X112825000Y-101525000D03*
X226675000Y-96375000D03*
X101625000Y-81300000D03*
X107325000Y-104225000D03*
X110270000Y-170300000D03*
X106425000Y-103350000D03*
X99200000Y-188325000D03*
X217450000Y-107875000D03*
X113625000Y-111000000D03*
X102600000Y-81950000D03*
X107775000Y-112750000D03*
X110270000Y-169000000D03*
X106475000Y-112300000D03*
X100150000Y-188975000D03*
X208575000Y-115075000D03*
X113650000Y-119425000D03*
X103425000Y-82775000D03*
X108300000Y-121700000D03*
X101125000Y-189575000D03*
X110170000Y-167800000D03*
X106550000Y-121475000D03*
X113800000Y-128700000D03*
X216900000Y-124875000D03*
X108300000Y-130050000D03*
X105300000Y-84000000D03*
X106600000Y-130200000D03*
X110070000Y-166600000D03*
X102075000Y-190225000D03*
X113625000Y-137425000D03*
X208125000Y-134125000D03*
X108300000Y-139325000D03*
X112700000Y-84025000D03*
X115175000Y-190450000D03*
X104850000Y-173900000D03*
X106625000Y-139325000D03*
X113925000Y-146750000D03*
X216975000Y-142575000D03*
X114575000Y-82750000D03*
X108300000Y-148425000D03*
X106575000Y-148450000D03*
X106250000Y-174025000D03*
X116325000Y-190125000D03*
X113625000Y-154325000D03*
X208750000Y-150800000D03*
X115450000Y-81950000D03*
X108300000Y-157600000D03*
X107175000Y-171600000D03*
X124025000Y-177300000D03*
X117400000Y-189675000D03*
X106600000Y-157250000D03*
X217450000Y-160500000D03*
X103675000Y-167825000D03*
X116350000Y-81200000D03*
X108300000Y-166475000D03*
X108150000Y-170425000D03*
X118225000Y-188850000D03*
X123300000Y-176375000D03*
X106600000Y-166525000D03*
X122775000Y-102150000D03*
X225475000Y-96500000D03*
X117350000Y-80550000D03*
X117300000Y-103350000D03*
X118975000Y-187975000D03*
X115600000Y-103325000D03*
X122800000Y-111100000D03*
X216225000Y-107850000D03*
X118325000Y-79825000D03*
X117300000Y-112350000D03*
X119750000Y-187125000D03*
X115600000Y-112075000D03*
X209275000Y-116025000D03*
X118900000Y-121325000D03*
X119500000Y-79175000D03*
X117300000Y-121325000D03*
X119775000Y-185950000D03*
X115600000Y-121325000D03*
X122775000Y-128525000D03*
X215750000Y-125000000D03*
X119725000Y-77950000D03*
X118530000Y-130450000D03*
X119275000Y-184900000D03*
X117290000Y-130640000D03*
X118750000Y-139200000D03*
X208950000Y-134950000D03*
X118875000Y-77050000D03*
X117300000Y-139225000D03*
X118200000Y-184450000D03*
X115600000Y-139050000D03*
X122850000Y-146375000D03*
X216675000Y-143950000D03*
X117800000Y-76400000D03*
X117300000Y-148725000D03*
X117500000Y-183525000D03*
X115600000Y-148500000D03*
X122825000Y-154850000D03*
X209550000Y-151675000D03*
X116700000Y-75700000D03*
X117300000Y-157550000D03*
X116550000Y-182825000D03*
X115600000Y-157375000D03*
X122450000Y-163150000D03*
X216500000Y-161200000D03*
X115725000Y-75050000D03*
X117300000Y-166450000D03*
X115600000Y-182175000D03*
X115600000Y-166275000D03*
X128550000Y-103275000D03*
X224275000Y-96525000D03*
X129375000Y-75075000D03*
X126300000Y-103350000D03*
X124600000Y-103295000D03*
X129140000Y-182075000D03*
X128550000Y-112250000D03*
X216075000Y-109050000D03*
X128400000Y-75700000D03*
X126300000Y-112275000D03*
X124600000Y-112235000D03*
X128170000Y-182715000D03*
X210125000Y-116825000D03*
X128575000Y-121200000D03*
X127400000Y-76375000D03*
X126300000Y-121375000D03*
X124590000Y-121245000D03*
X127350000Y-183515000D03*
X127950000Y-130325000D03*
X215725000Y-126175000D03*
X126425000Y-76975000D03*
X126300000Y-130140000D03*
X126480000Y-184275000D03*
X126750000Y-131410000D03*
X130925000Y-137600000D03*
X209825000Y-135725000D03*
X125925000Y-78025000D03*
X126300000Y-139400000D03*
X125570000Y-185055000D03*
X124620000Y-139335000D03*
X130800000Y-146375000D03*
X215250000Y-144050000D03*
X125925000Y-79200000D03*
X126300000Y-148375000D03*
X124590000Y-148385000D03*
X124690000Y-185855000D03*
X130850000Y-155800000D03*
X210425000Y-152550000D03*
X126875000Y-79975000D03*
X126300000Y-157325000D03*
X124620000Y-157265000D03*
X124690000Y-187025000D03*
X130750000Y-163075000D03*
X215600000Y-161950000D03*
X127850000Y-80650000D03*
X126300000Y-166250000D03*
X124420000Y-166085000D03*
X125570000Y-187785000D03*
X139950000Y-101675000D03*
X223050000Y-96625000D03*
X128800000Y-81350000D03*
X134300000Y-103575000D03*
X133680000Y-104675000D03*
X126510000Y-188465000D03*
X141410000Y-170325000D03*
X140425000Y-111125000D03*
X214900000Y-109050000D03*
X129700000Y-82125000D03*
X134800000Y-112350000D03*
X133690000Y-113025000D03*
X127430000Y-189175000D03*
X140590000Y-168745000D03*
X210975000Y-117600000D03*
X140400000Y-119625000D03*
X130675000Y-82800000D03*
X135275000Y-121350000D03*
X133800000Y-121385000D03*
X128450000Y-189725000D03*
X139620000Y-167845000D03*
X140400000Y-128500000D03*
X214525000Y-126275000D03*
X132275000Y-83975000D03*
X135300000Y-130275000D03*
X133740000Y-130305000D03*
X129460000Y-190295000D03*
X135510000Y-167975000D03*
X140325000Y-137500000D03*
X210775000Y-136425000D03*
X139700000Y-83925000D03*
X135300000Y-139275000D03*
X133740000Y-139305000D03*
X142480000Y-190355000D03*
X134460000Y-173485000D03*
X214000000Y-144400000D03*
X140375000Y-146375000D03*
X141550000Y-82750000D03*
X135300000Y-148225000D03*
X135710000Y-173885000D03*
X143530000Y-189885000D03*
X133720000Y-148335000D03*
X140625000Y-154875000D03*
X211325000Y-153475000D03*
X142475000Y-82075000D03*
X135300000Y-157350000D03*
X136320000Y-171625000D03*
X144600000Y-189445000D03*
X150170000Y-180285000D03*
X133760000Y-157325000D03*
X140500000Y-162600000D03*
X214750000Y-162825000D03*
X143400000Y-81325000D03*
X135300000Y-166300000D03*
X137030000Y-170685000D03*
X145620000Y-188895000D03*
X149570000Y-179215000D03*
X133600000Y-166075000D03*
X149700000Y-101925000D03*
X221625000Y-96500000D03*
X144225000Y-80500000D03*
X144300000Y-103150000D03*
X142600000Y-103055000D03*
X146290000Y-187925000D03*
X149725000Y-111100000D03*
X213725000Y-109100000D03*
X145200000Y-79825000D03*
X144300000Y-112300000D03*
X142600000Y-112275000D03*
X146980000Y-186975000D03*
X211825000Y-118375000D03*
X145800000Y-121250000D03*
X146200000Y-79150000D03*
X144300000Y-121275000D03*
X142600000Y-121165000D03*
X146930000Y-185805000D03*
X146200000Y-130275000D03*
X213375000Y-126350000D03*
X146125000Y-77925000D03*
X144300000Y-130200000D03*
X146320000Y-184835000D03*
X143230000Y-131250000D03*
X145800000Y-139200000D03*
X211775000Y-137125000D03*
X145225000Y-77150000D03*
X144300000Y-139325000D03*
X142600000Y-139305000D03*
X145380000Y-184115000D03*
X145275000Y-148850000D03*
X212750000Y-144475000D03*
X144400000Y-76250000D03*
X144300000Y-148225000D03*
X142600000Y-148155000D03*
X144370000Y-183505000D03*
X149650000Y-156025000D03*
X212175000Y-154275000D03*
X143750000Y-75275000D03*
X144300000Y-157150000D03*
X142610000Y-157085000D03*
X143500000Y-182745000D03*
X149550000Y-163300000D03*
X213750000Y-163600000D03*
X142800000Y-74600000D03*
X144300000Y-166575000D03*
X142600000Y-166445000D03*
X142510000Y-182165000D03*
X158975000Y-102025000D03*
X213275000Y-99550000D03*
X156075000Y-74350000D03*
X153300000Y-103100000D03*
X151600000Y-103275000D03*
X156050000Y-182385000D03*
X222875000Y-111400000D03*
X158950000Y-111325000D03*
X155425000Y-75300000D03*
X153300000Y-112100000D03*
X151600000Y-112185000D03*
X155060000Y-182995000D03*
X212625000Y-119225000D03*
X154950000Y-121200000D03*
X153300000Y-121100000D03*
X154700000Y-76250000D03*
X151660000Y-121055000D03*
X154270000Y-183825000D03*
X155025000Y-130200000D03*
X223350000Y-129350000D03*
X153300000Y-130050000D03*
X153875000Y-77075000D03*
X151600000Y-130205000D03*
X153310000Y-184465000D03*
X212675000Y-137875000D03*
X154550000Y-139250000D03*
X154440000Y-78120000D03*
X153150000Y-139540000D03*
X151590000Y-139275000D03*
X152340000Y-185125000D03*
X154100000Y-149150000D03*
X223175000Y-147425000D03*
X153170000Y-79180000D03*
X153300000Y-148225000D03*
X151630000Y-148195000D03*
X151310000Y-185625000D03*
X153500000Y-158400000D03*
X213100000Y-155100000D03*
X154100000Y-79875000D03*
X153300000Y-157200000D03*
X151290000Y-186805000D03*
X151620000Y-157215000D03*
X153450000Y-167575000D03*
X212975000Y-164450000D03*
X155025000Y-80575000D03*
X153300000Y-166275000D03*
X151510000Y-166245000D03*
X152130000Y-187655000D03*
X168100000Y-102100000D03*
X214450000Y-99675000D03*
X155925000Y-81300000D03*
X162300000Y-103300000D03*
X153120000Y-188295000D03*
X160660000Y-103305000D03*
X168230000Y-172345000D03*
X224050000Y-111400000D03*
X168075000Y-111050000D03*
X156775000Y-82100000D03*
X162300000Y-112275000D03*
X154100000Y-188915000D03*
X160600000Y-112275000D03*
X167490000Y-171255000D03*
X213850000Y-119225000D03*
X164000000Y-121275000D03*
X157700000Y-82800000D03*
X162300000Y-121300000D03*
X160600000Y-121255000D03*
X155090000Y-189555000D03*
X166600000Y-170435000D03*
X163575000Y-130425000D03*
X224600000Y-129275000D03*
X159300000Y-83775000D03*
X162300000Y-130300000D03*
X160600000Y-130355000D03*
X156090000Y-190145000D03*
X165670000Y-169565000D03*
X168050000Y-137950000D03*
X213925000Y-137850000D03*
X166700000Y-83900000D03*
X162300000Y-139350000D03*
X169740000Y-190435000D03*
X160580000Y-139185000D03*
X164310000Y-176130000D03*
X163050000Y-149025000D03*
X224375000Y-147450000D03*
X168375000Y-82925000D03*
X162300000Y-148150000D03*
X170810000Y-189965000D03*
X160600000Y-148185000D03*
X165530000Y-176290000D03*
X166375000Y-157300000D03*
X214325000Y-155100000D03*
X169175000Y-82075000D03*
X162300000Y-157300000D03*
X160600000Y-157265000D03*
X166080000Y-173360000D03*
X171860000Y-189375000D03*
X177360000Y-180715000D03*
X167525000Y-163450000D03*
X223175000Y-165925000D03*
X170025000Y-81275000D03*
X162300000Y-166275000D03*
X160610000Y-166225000D03*
X167260000Y-173390000D03*
X176430000Y-179955000D03*
X172660000Y-188515000D03*
X176875000Y-102100000D03*
X215625000Y-99675000D03*
X170900000Y-80525000D03*
X171300000Y-103100000D03*
X169600000Y-103195000D03*
X173540000Y-187765000D03*
X225225000Y-111500000D03*
X176800000Y-111625000D03*
X171900000Y-79925000D03*
X171300000Y-112325000D03*
X169600000Y-112185000D03*
X174280000Y-186885000D03*
X215025000Y-119300000D03*
X172950000Y-121400000D03*
X172850000Y-79225000D03*
X171300000Y-121425000D03*
X169610000Y-121335000D03*
X174220000Y-185725000D03*
X173275000Y-130250000D03*
X225750000Y-129300000D03*
X173050000Y-78075000D03*
X172110000Y-130230000D03*
X173230000Y-185135000D03*
X171430000Y-132030000D03*
X172600000Y-139250000D03*
X215100000Y-137875000D03*
X172575000Y-77000000D03*
X171300000Y-139100000D03*
X169600000Y-139275000D03*
X172290000Y-184455000D03*
X172325000Y-148550000D03*
X225550000Y-147375000D03*
X171725000Y-76175000D03*
X171300000Y-148025000D03*
X169610000Y-148045000D03*
X171420000Y-183695000D03*
X215500000Y-155175000D03*
X176825000Y-156600000D03*
X170950000Y-75300000D03*
X171300000Y-157250000D03*
X169620000Y-157415000D03*
X170580000Y-182905000D03*
X176525000Y-163850000D03*
X224325000Y-166025000D03*
X170025000Y-74600000D03*
X171300000Y-166125000D03*
X169610000Y-165825000D03*
X169660000Y-182175000D03*
X185900000Y-102200000D03*
X215725000Y-100850000D03*
X180300000Y-103275000D03*
X183475000Y-74700000D03*
X178610000Y-103235000D03*
X183450000Y-182665000D03*
X226525000Y-111425000D03*
X185875000Y-111650000D03*
X180300000Y-112250000D03*
X182725000Y-75575000D03*
X178600000Y-112285000D03*
X182380000Y-183145000D03*
X216175000Y-119375000D03*
X182000000Y-121300000D03*
X180300000Y-121275000D03*
X181875000Y-76375000D03*
X178610000Y-121165000D03*
X181430000Y-183825000D03*
X182425000Y-130350000D03*
X226600000Y-130325000D03*
X180300000Y-130250000D03*
X180975000Y-77225000D03*
X178620000Y-130375000D03*
X180580000Y-184615000D03*
X181925000Y-139200000D03*
X216275000Y-137875000D03*
X180075000Y-78000000D03*
X180300000Y-139300000D03*
X178610000Y-139295000D03*
X179530000Y-185165000D03*
X181575000Y-148400000D03*
X226725000Y-147325000D03*
X180300000Y-148400000D03*
X180125000Y-79175000D03*
X178600000Y-148365000D03*
X178620000Y-185945000D03*
X216650000Y-155225000D03*
X181150000Y-158125000D03*
X180300000Y-157325000D03*
X180975000Y-79950000D03*
X178610000Y-157175000D03*
X178530000Y-187145000D03*
X179475000Y-168475000D03*
X225500000Y-166025000D03*
X180300000Y-166300000D03*
X181775000Y-80775000D03*
X178610000Y-166355000D03*
X179290000Y-188015000D03*
X194700000Y-102525000D03*
X216925000Y-100825000D03*
X189300000Y-103275000D03*
X182700000Y-81550000D03*
X192970000Y-167100000D03*
X187600000Y-103255000D03*
X180310000Y-188685000D03*
X194675000Y-111700000D03*
X227700000Y-111325000D03*
X189300000Y-112250000D03*
X183600000Y-82325000D03*
X189570000Y-170200000D03*
X187600000Y-112315000D03*
X181360000Y-189165000D03*
X217325000Y-119400000D03*
X194775000Y-120325000D03*
X189300000Y-121400000D03*
X184575000Y-83000000D03*
X189470000Y-169000000D03*
X182200000Y-189985000D03*
X187600000Y-121255000D03*
X194675000Y-129050000D03*
X227750000Y-130250000D03*
X186300000Y-83625000D03*
X189300000Y-130275000D03*
X188670000Y-168000000D03*
X183230000Y-190535000D03*
X187600000Y-130235000D03*
X217425000Y-137900000D03*
X194775000Y-138550000D03*
X189300000Y-139350000D03*
X193700000Y-83550000D03*
X195270000Y-175400000D03*
X187600000Y-139205000D03*
X188920000Y-174935000D03*
X196370000Y-190385000D03*
X189950000Y-149175000D03*
X227600000Y-148150000D03*
X195375000Y-82925000D03*
X189300000Y-148150000D03*
X187620000Y-148085000D03*
X197400000Y-189845000D03*
X190150000Y-175055000D03*
X217800000Y-155300000D03*
X194650000Y-156275000D03*
X189300000Y-157375000D03*
X196350000Y-82250000D03*
X191770000Y-175100000D03*
X198450000Y-189285000D03*
X187600000Y-157195000D03*
X193775000Y-164925000D03*
X226750000Y-165950000D03*
X197300000Y-81575000D03*
X189300000Y-166300000D03*
X192870000Y-176400000D03*
X199370000Y-188565000D03*
X187620000Y-166025000D03*
X199010000Y-104240000D03*
X218175000Y-100800000D03*
X198300000Y-103250000D03*
X198175000Y-80800000D03*
X196600000Y-103155000D03*
X200390000Y-187975000D03*
X228575000Y-113175000D03*
X199330000Y-112890000D03*
X198300000Y-112275000D03*
X199200000Y-80075000D03*
X201030000Y-187025000D03*
X196620000Y-112125000D03*
X218475000Y-119475000D03*
X199750000Y-121200000D03*
X198300000Y-121125000D03*
X200250000Y-79425000D03*
X201020000Y-185855000D03*
X196620000Y-121125000D03*
X200000000Y-130275000D03*
X228900000Y-130225000D03*
X198300000Y-130250000D03*
X200200000Y-78150000D03*
X200300000Y-184965000D03*
X196590000Y-130205000D03*
X199800000Y-139275000D03*
X218650000Y-138000000D03*
X198300000Y-139325000D03*
X199525000Y-77200000D03*
X199340000Y-184295000D03*
X196620000Y-139365000D03*
X199350000Y-148875000D03*
X228775000Y-148125000D03*
X198300000Y-148400000D03*
X198625000Y-76450000D03*
X198230000Y-183905000D03*
X196620000Y-148375000D03*
X218950000Y-155350000D03*
X198870000Y-158200000D03*
X198300000Y-157200000D03*
X197775000Y-75625000D03*
X197210000Y-183335000D03*
X196600000Y-157105000D03*
X203200000Y-165500000D03*
X227975000Y-165975000D03*
X198300000Y-166225000D03*
X196925000Y-74825000D03*
X196580000Y-166275000D03*
X196200000Y-182705000D03*
X97460000Y-65530000D03*
X103825000Y-200025000D03*
X106100000Y-177675000D03*
X133280000Y-177685000D03*
X130625000Y-199950000D03*
X160170000Y-177735000D03*
X157825000Y-199975000D03*
X187260000Y-177775000D03*
X184875000Y-199950000D03*
X239250000Y-94500000D03*
X239260000Y-113300000D03*
X239390000Y-132200000D03*
X239280000Y-151000000D03*
X125860000Y-65550000D03*
X152930000Y-65540000D03*
X180200000Y-65570000D03*
X165380000Y-177525000D03*
X138460000Y-177565000D03*
X111275000Y-177650000D03*
X114150000Y-197475000D03*
X140850000Y-197250000D03*
X167750000Y-197425000D03*
X192520000Y-177645000D03*
X194750000Y-197400000D03*
X230000000Y-110475000D03*
X236650000Y-109500000D03*
X236600000Y-131350000D03*
X236575000Y-149275000D03*
X236600000Y-167250000D03*
X198000000Y-65960000D03*
X170740000Y-65910000D03*
X143800000Y-65940000D03*
X117150000Y-65930000D03*
X93450000Y-75175000D03*
X186325000Y-191925000D03*
X188270000Y-178315000D03*
X161250000Y-178265000D03*
X158675000Y-192050000D03*
X131650000Y-191900000D03*
X134340000Y-178145000D03*
X104850000Y-192075000D03*
X107175000Y-178200000D03*
X234325000Y-153150000D03*
X234250000Y-135125000D03*
X234225000Y-135125000D03*
X234275000Y-116875000D03*
X99870000Y-69540000D03*
X130770000Y-69820000D03*
X157930000Y-69960000D03*
X184750000Y-69890000D03*
X236040000Y-95510000D03*
X110250000Y-178200000D03*
X113000000Y-192050000D03*
X139600000Y-192250000D03*
X137440000Y-178175000D03*
X166825000Y-192050000D03*
X164370000Y-178075000D03*
X193900000Y-192300000D03*
X191380000Y-178125000D03*
X196550000Y-73600000D03*
X94375000Y-175575000D03*
X229125000Y-96625000D03*
X204600000Y-177050000D03*
X98150000Y-73575000D03*
X222250000Y-78360000D03*
X239290000Y-159510000D03*
X239270000Y-141850000D03*
X239230000Y-123680000D03*
X239260000Y-105820000D03*
X163490000Y-68950000D03*
X136430000Y-69180000D03*
X191000000Y-69200000D03*
X109470000Y-69090000D03*
X82875000Y-68000000D03*
X88290000Y-76120000D03*
X57370000Y-188600000D03*
X218070000Y-184500000D03*
X217870000Y-71600000D03*
X75270000Y-82600000D03*
X57370000Y-186900000D03*
X83550000Y-79425000D03*
X99620000Y-150550000D03*
X99570000Y-159500000D03*
X112270000Y-95600000D03*
X112270000Y-104950000D03*
X107070000Y-114450000D03*
X98370000Y-123500000D03*
X98170000Y-132550000D03*
X107120000Y-123550000D03*
X108820000Y-131200000D03*
X119120000Y-131650000D03*
X128020000Y-131600000D03*
X134170000Y-132100000D03*
X145720000Y-131750000D03*
X99120000Y-141500000D03*
X108920000Y-141300000D03*
X109270000Y-149700000D03*
X113820000Y-158350000D03*
X118420000Y-140500000D03*
X118170000Y-149800000D03*
X122920000Y-158250000D03*
X130870000Y-158350000D03*
X126970000Y-149400000D03*
X127270000Y-140450000D03*
X136020000Y-140450000D03*
X136270000Y-149700000D03*
X136420000Y-158250000D03*
X150670000Y-158250000D03*
X149820000Y-149800000D03*
X145270000Y-140450000D03*
X122770000Y-122350000D03*
X118370000Y-113450000D03*
X122970000Y-104850000D03*
X117370000Y-95700000D03*
X127520000Y-104700000D03*
X145070000Y-122200000D03*
X139970000Y-122200000D03*
X127370000Y-122250000D03*
X127420000Y-95850000D03*
X127520000Y-113700000D03*
X140070000Y-113900000D03*
X139220000Y-104900000D03*
X139270000Y-95800000D03*
X145270000Y-113650000D03*
X143270000Y-104950000D03*
X143920000Y-95900000D03*
X163470000Y-113650000D03*
X163170000Y-104550000D03*
X171320000Y-95800000D03*
X162520000Y-95800000D03*
X159170000Y-95650000D03*
X154170000Y-104600000D03*
X154220000Y-113400000D03*
X154220000Y-122250000D03*
X154670000Y-131800000D03*
X154220000Y-140450000D03*
X152070000Y-149850000D03*
X163020000Y-158350000D03*
X162170000Y-150000000D03*
X162970000Y-140450000D03*
X163470000Y-131950000D03*
X163170000Y-122250000D03*
X172970000Y-132000000D03*
X171970000Y-104250000D03*
X172320000Y-113500000D03*
X172120000Y-122350000D03*
X172070000Y-140400000D03*
X170170000Y-149850000D03*
X171820000Y-158350000D03*
X178020000Y-158350000D03*
X181120000Y-149550000D03*
X181320000Y-140500000D03*
X181370000Y-131700000D03*
X181120000Y-122300000D03*
X181070000Y-113450000D03*
X179020000Y-104950000D03*
X180520000Y-95950000D03*
X188120000Y-95900000D03*
X187970000Y-104950000D03*
X190170000Y-113500000D03*
X190520000Y-122250000D03*
X188020000Y-132000000D03*
X188220000Y-140450000D03*
X188220000Y-149600000D03*
X188270000Y-158300000D03*
X197670000Y-140400000D03*
X198170000Y-149800000D03*
X197520000Y-158350000D03*
X198820000Y-132100000D03*
X199120000Y-122250000D03*
X205770000Y-113650000D03*
X205570000Y-104750000D03*
X204370000Y-96950000D03*
X98870000Y-114700000D03*
X98120000Y-105250000D03*
X100570000Y-96250000D03*
D20*
X101925000Y-74625000D02*
X98500000Y-74625000D01*
X101868986Y-103550000D02*
X99300000Y-103550000D01*
X101968986Y-103650000D02*
X101868986Y-103550000D01*
X101968986Y-89097954D02*
X101968986Y-103650000D01*
X95825000Y-82953968D02*
X101968986Y-89097954D01*
X95825000Y-77300000D02*
X95825000Y-82953968D01*
X98500000Y-74625000D02*
X95825000Y-77300000D01*
X101175000Y-75525000D02*
X101125000Y-75525000D01*
X102451988Y-112300000D02*
X99300000Y-112300000D01*
X102476988Y-112325000D02*
X102451988Y-112300000D01*
X102476988Y-88887532D02*
X102476988Y-112325000D01*
X96350994Y-82761538D02*
X102476988Y-88887532D01*
X96350994Y-77505582D02*
X96350994Y-82761538D01*
X98481576Y-75375000D02*
X96350994Y-77505582D01*
X100975000Y-75375000D02*
X98481576Y-75375000D01*
X101125000Y-75525000D02*
X100975000Y-75375000D01*
X100400000Y-76450000D02*
X99875000Y-75925000D01*
X102800000Y-121550000D02*
X99300000Y-121550000D01*
X102984990Y-121365010D02*
X102800000Y-121550000D01*
X102984990Y-88677110D02*
X102984990Y-121365010D01*
X96858996Y-82551116D02*
X102984990Y-88677110D01*
X96858996Y-77716004D02*
X96858996Y-82551116D01*
X98650000Y-75925000D02*
X96858996Y-77716004D01*
X99875000Y-75925000D02*
X98650000Y-75925000D01*
X99500000Y-77175000D02*
X98175000Y-77175000D01*
X101950000Y-130850000D02*
X99300000Y-130850000D01*
X102000000Y-130900000D02*
X101950000Y-130850000D01*
X103492992Y-130900000D02*
X102000000Y-130900000D01*
X103492992Y-88466688D02*
X103492992Y-130900000D01*
X97366998Y-82340694D02*
X103492992Y-88466688D01*
X97366998Y-77983002D02*
X97366998Y-82340694D01*
X98175000Y-77175000D02*
X97366998Y-77983002D01*
X98725000Y-78050000D02*
X98025000Y-78050000D01*
X103975994Y-139450000D02*
X99300000Y-139450000D01*
X104000994Y-139475000D02*
X103975994Y-139450000D01*
X104000994Y-88256266D02*
X104000994Y-139475000D01*
X97875000Y-82130272D02*
X104000994Y-88256266D01*
X97875000Y-78200000D02*
X97875000Y-82130272D01*
X98025000Y-78050000D02*
X97875000Y-78200000D01*
X98750000Y-79250000D02*
X98750000Y-82286848D01*
X104508996Y-148550000D02*
X99300000Y-148550000D01*
X104508996Y-88045844D02*
X104508996Y-148550000D01*
X98750000Y-82286848D02*
X104508996Y-88045844D01*
X99725000Y-79875000D02*
X99725000Y-82543424D01*
X104991998Y-157525000D02*
X99300000Y-157525000D01*
X105016998Y-157550000D02*
X104991998Y-157525000D01*
X105016998Y-87835422D02*
X105016998Y-157550000D01*
X99725000Y-82543424D02*
X105016998Y-87835422D01*
X100725000Y-80525000D02*
X100725000Y-82825000D01*
X105425000Y-166700000D02*
X99300000Y-166700000D01*
X105525000Y-166800000D02*
X105425000Y-166700000D01*
X105525000Y-87625000D02*
X105525000Y-166800000D01*
X100725000Y-82825000D02*
X105525000Y-87625000D01*
X101625000Y-81300000D02*
X101625000Y-82975000D01*
X107700994Y-103849006D02*
X107325000Y-104225000D01*
X107700994Y-86025000D02*
X107700994Y-103849006D01*
X107558996Y-85883002D02*
X107700994Y-86025000D01*
X104533002Y-85883002D02*
X107558996Y-85883002D01*
X101625000Y-82975000D02*
X104533002Y-85883002D01*
X106935000Y-170165000D02*
X107435000Y-169665000D01*
X107435000Y-169665000D02*
X107675000Y-169425000D01*
X107675000Y-169425000D02*
X109395000Y-169425000D01*
X109395000Y-169425000D02*
X110270000Y-170300000D01*
X98700000Y-188325000D02*
X98600000Y-188425000D01*
X98600000Y-188425000D02*
X97950000Y-188425000D01*
X97950000Y-188425000D02*
X96800000Y-187275000D01*
X96800000Y-187275000D02*
X96800000Y-180300000D01*
X96800000Y-180300000D02*
X106935000Y-170165000D01*
X106935000Y-170165000D02*
X107675000Y-169425000D01*
X99200000Y-188325000D02*
X98700000Y-188325000D01*
X102600000Y-81950000D02*
X102600000Y-82425000D01*
X108208996Y-112316004D02*
X107775000Y-112750000D01*
X108208996Y-85650000D02*
X108208996Y-112316004D01*
X107933996Y-85375000D02*
X108208996Y-85650000D01*
X104750000Y-85375000D02*
X107933996Y-85375000D01*
X102575000Y-83200000D02*
X104750000Y-85375000D01*
X102575000Y-82450000D02*
X102575000Y-83200000D01*
X102600000Y-82425000D02*
X102575000Y-82450000D01*
X107525788Y-168855788D02*
X110125788Y-168855788D01*
X110125788Y-168855788D02*
X110270000Y-169000000D01*
X99750000Y-188975000D02*
X99550000Y-189175000D01*
X99550000Y-189175000D02*
X97925000Y-189175000D01*
X97925000Y-189175000D02*
X96250000Y-187500000D01*
X96250000Y-187500000D02*
X96250000Y-180131576D01*
X96250000Y-180131576D02*
X107525788Y-168855788D01*
X100150000Y-188975000D02*
X99750000Y-188975000D01*
X103425000Y-82775000D02*
X103425000Y-83325000D01*
X108716998Y-121283002D02*
X108300000Y-121700000D01*
X108716998Y-85316998D02*
X108716998Y-121283002D01*
X108250000Y-84850000D02*
X108716998Y-85316998D01*
X104950000Y-84850000D02*
X108250000Y-84850000D01*
X103425000Y-83325000D02*
X104950000Y-84850000D01*
X107646154Y-168016998D02*
X107911004Y-168016998D01*
X95805150Y-179858002D02*
X107646154Y-168016998D01*
X101125000Y-189575000D02*
X100750000Y-189575000D01*
X95741998Y-187710422D02*
X95741998Y-179858002D01*
X97856576Y-189825000D02*
X95741998Y-187710422D01*
X100500000Y-189825000D02*
X97856576Y-189825000D01*
X100750000Y-189575000D02*
X100500000Y-189825000D01*
X95741998Y-179858002D02*
X95805150Y-179858002D01*
X109970000Y-167800000D02*
X109811998Y-167958002D01*
X109811998Y-167958002D02*
X107970000Y-167958002D01*
X110170000Y-167800000D02*
X109970000Y-167800000D01*
X107911004Y-168016998D02*
X107970000Y-167958002D01*
X109225000Y-130050000D02*
X108300000Y-130050000D01*
X105300000Y-84000000D02*
X108475000Y-84000000D01*
X109225000Y-84750000D02*
X109225000Y-130050000D01*
X108475000Y-84000000D02*
X109225000Y-84750000D01*
X110070000Y-166600000D02*
X110070000Y-166700000D01*
X110070000Y-166700000D02*
X109320000Y-167450000D01*
X106171712Y-168753288D02*
X107475000Y-167450000D01*
X107475000Y-167450000D02*
X109320000Y-167450000D01*
X102075000Y-190225000D02*
X101675000Y-190225000D01*
X95233996Y-179647580D02*
X106128288Y-168753288D01*
X95233996Y-187958996D02*
X95233996Y-179647580D01*
X97700000Y-190425000D02*
X95233996Y-187958996D01*
X101475000Y-190425000D02*
X97700000Y-190425000D01*
X101675000Y-190225000D02*
X101475000Y-190425000D01*
X106128288Y-168753288D02*
X106171712Y-168753288D01*
X109733002Y-84791998D02*
X109733002Y-139341998D01*
X109716004Y-139325000D02*
X108300000Y-139325000D01*
X109733002Y-139341998D02*
X109716004Y-139325000D01*
X112700000Y-84025000D02*
X110500000Y-84025000D01*
X110500000Y-84025000D02*
X109733002Y-84791998D01*
X105310000Y-173440000D02*
X105330000Y-173440000D01*
X121170000Y-184900000D02*
X121133002Y-184900000D01*
X121133002Y-184863002D02*
X121170000Y-184900000D01*
X114370000Y-178100000D02*
X121133002Y-184863002D01*
X114088424Y-178100000D02*
X114370000Y-178100000D01*
X109088424Y-173100000D02*
X114088424Y-178100000D01*
X105670000Y-173100000D02*
X109088424Y-173100000D01*
X105330000Y-173440000D02*
X105670000Y-173100000D01*
X121133002Y-187966998D02*
X121133002Y-184900000D01*
X118025000Y-191075000D02*
X121133002Y-187966998D01*
X116050000Y-191075000D02*
X118025000Y-191075000D01*
X115425000Y-190450000D02*
X116050000Y-191075000D01*
X115175000Y-190450000D02*
X115425000Y-190450000D01*
X105310000Y-173440000D02*
X104850000Y-173900000D01*
X114575000Y-82750000D02*
X114575000Y-83350000D01*
X110225000Y-148425000D02*
X108300000Y-148425000D01*
X110241004Y-148441004D02*
X110225000Y-148425000D01*
X110241004Y-85358996D02*
X110241004Y-148441004D01*
X110725000Y-84875000D02*
X110241004Y-85358996D01*
X113050000Y-84875000D02*
X110725000Y-84875000D01*
X114575000Y-83350000D02*
X113050000Y-84875000D01*
X114210000Y-178660000D02*
X113930000Y-178660000D01*
X113930000Y-178660000D02*
X109295000Y-174025000D01*
X109295000Y-174025000D02*
X106250000Y-174025000D01*
X116675000Y-190125000D02*
X117075000Y-190525000D01*
X117075000Y-190525000D02*
X117775000Y-190525000D01*
X117775000Y-190525000D02*
X120625000Y-187675000D01*
X120625000Y-187675000D02*
X120625000Y-185075000D01*
X120625000Y-185075000D02*
X114210000Y-178660000D01*
X116325000Y-190125000D02*
X116675000Y-190125000D01*
X115450000Y-81950000D02*
X115450000Y-83193424D01*
X110723012Y-157600000D02*
X108300000Y-157600000D01*
X110749006Y-157574006D02*
X110723012Y-157600000D01*
X110749006Y-85725994D02*
X110749006Y-157574006D01*
X111091998Y-85383002D02*
X110749006Y-85725994D01*
X113260422Y-85383002D02*
X111091998Y-85383002D01*
X115450000Y-83193424D02*
X113260422Y-85383002D01*
X109370000Y-172591998D02*
X109370000Y-172600000D01*
X114070000Y-177300000D02*
X115370000Y-177300000D01*
X109370000Y-172600000D02*
X114070000Y-177300000D01*
X107175000Y-171600000D02*
X107370000Y-171600000D01*
X115370000Y-177300000D02*
X124025000Y-177300000D01*
X108361998Y-172591998D02*
X109370000Y-172591998D01*
X107370000Y-171600000D02*
X108361998Y-172591998D01*
X111275000Y-163300000D02*
X111275000Y-163500000D01*
X111275000Y-163500000D02*
X108300000Y-166475000D01*
X116350000Y-81200000D02*
X116350000Y-83011848D01*
X111275000Y-156792992D02*
X111275000Y-163300000D01*
X111257008Y-156775000D02*
X111275000Y-156792992D01*
X111257008Y-85950000D02*
X111257008Y-156775000D01*
X111316004Y-85891004D02*
X111257008Y-85950000D01*
X113470844Y-85891004D02*
X111316004Y-85891004D01*
X116350000Y-83011848D02*
X113470844Y-85891004D01*
X108150000Y-170425000D02*
X108150000Y-171380000D01*
X113945000Y-176375000D02*
X116800000Y-176375000D01*
X109570000Y-172000000D02*
X113945000Y-176375000D01*
X108770000Y-172000000D02*
X109570000Y-172000000D01*
X108150000Y-171380000D02*
X108770000Y-172000000D01*
X123300000Y-176375000D02*
X116800000Y-176375000D01*
X117350000Y-80550000D02*
X117375000Y-80550000D01*
X118300000Y-102350000D02*
X117300000Y-103350000D01*
X118300000Y-81475000D02*
X118300000Y-102350000D01*
X117375000Y-80550000D02*
X118300000Y-81475000D01*
X118325000Y-79825000D02*
X118825000Y-80325000D01*
X118800000Y-112350000D02*
X117300000Y-112350000D01*
X118808002Y-112341998D02*
X118800000Y-112350000D01*
X118808002Y-87016998D02*
X118808002Y-112341998D01*
X118825000Y-87000000D02*
X118808002Y-87016998D01*
X118825000Y-80325000D02*
X118825000Y-87000000D01*
X119500000Y-79175000D02*
X119500000Y-80558002D01*
X119400000Y-119225000D02*
X117300000Y-121325000D01*
X119400000Y-80658002D02*
X119400000Y-119225000D01*
X119500000Y-80558002D02*
X119400000Y-80658002D01*
X119725000Y-77950000D02*
X119725000Y-78175000D01*
X119908002Y-128191998D02*
X118530000Y-130450000D01*
X119908002Y-81116998D02*
X119908002Y-128191998D01*
X120350000Y-80675000D02*
X119908002Y-81116998D01*
X120350000Y-78800000D02*
X120350000Y-80675000D01*
X119725000Y-78175000D02*
X120350000Y-78800000D01*
X118875000Y-77050000D02*
X120025000Y-77050000D01*
X120416004Y-136108996D02*
X117300000Y-139225000D01*
X120416004Y-81775000D02*
X120416004Y-136108996D01*
X120900000Y-81291004D02*
X120416004Y-81775000D01*
X120900000Y-77925000D02*
X120900000Y-81291004D01*
X120025000Y-77050000D02*
X120900000Y-77925000D01*
X117800000Y-76400000D02*
X117850000Y-76400000D01*
X120924006Y-145100994D02*
X117300000Y-148725000D01*
X120924006Y-82075994D02*
X120924006Y-145100994D01*
X121408002Y-81591998D02*
X120924006Y-82075994D01*
X121408002Y-77683002D02*
X121408002Y-81591998D01*
X119825000Y-76100000D02*
X121408002Y-77683002D01*
X118150000Y-76100000D02*
X119825000Y-76100000D01*
X117850000Y-76400000D02*
X118150000Y-76100000D01*
X116700000Y-75700000D02*
X117025000Y-75375000D01*
X121432008Y-153417992D02*
X117300000Y-157550000D01*
X121432008Y-82286416D02*
X121432008Y-153417992D01*
X121916004Y-81802420D02*
X121432008Y-82286416D01*
X121916004Y-77441004D02*
X121916004Y-81802420D01*
X119850000Y-75375000D02*
X121916004Y-77441004D01*
X117025000Y-75375000D02*
X119850000Y-75375000D01*
X115725000Y-75050000D02*
X115725000Y-75025000D01*
X121940010Y-161809990D02*
X117300000Y-166450000D01*
X121940010Y-82525000D02*
X121940010Y-161809990D01*
X122424006Y-82041004D02*
X121940010Y-82525000D01*
X122424006Y-77199006D02*
X122424006Y-82041004D01*
X120075000Y-74850000D02*
X122424006Y-77199006D01*
X115900000Y-74850000D02*
X120075000Y-74850000D01*
X115725000Y-75025000D02*
X115900000Y-74850000D01*
X125400000Y-85497392D02*
X125400000Y-85501858D01*
X128950000Y-75075000D02*
X128725000Y-74850000D01*
X128725000Y-74850000D02*
X125700000Y-74850000D01*
X125700000Y-74850000D02*
X122932008Y-77617992D01*
X122932008Y-77617992D02*
X122932008Y-83029400D01*
X122932008Y-83029400D02*
X125400000Y-85497392D01*
X129375000Y-75075000D02*
X128950000Y-75075000D01*
X129293986Y-100356014D02*
X126300000Y-103350000D01*
X129293986Y-89395844D02*
X129293986Y-100356014D01*
X125400000Y-85501858D02*
X129293986Y-89395844D01*
X123525994Y-82904962D02*
X127510516Y-86889484D01*
X128400000Y-75600000D02*
X128325000Y-75525000D01*
X128325000Y-75525000D02*
X125788152Y-75525000D01*
X125788152Y-75525000D02*
X123525994Y-77787158D01*
X123525994Y-77787158D02*
X123525994Y-82904962D01*
X128400000Y-75700000D02*
X128400000Y-75600000D01*
X129801988Y-108773012D02*
X126300000Y-112275000D01*
X129801988Y-89185422D02*
X129801988Y-108773012D01*
X127510516Y-86893950D02*
X129801988Y-89185422D01*
X127510516Y-86889484D02*
X127510516Y-86893950D01*
X124033996Y-82694540D02*
X129957228Y-88617772D01*
X127400000Y-76350000D02*
X127175000Y-76125000D01*
X127175000Y-76125000D02*
X125906576Y-76125000D01*
X125906576Y-76125000D02*
X124033996Y-77997580D01*
X124033996Y-77997580D02*
X124033996Y-82694540D01*
X127400000Y-76375000D02*
X127400000Y-76350000D01*
X130309990Y-117365010D02*
X126300000Y-121375000D01*
X130309990Y-88975000D02*
X130309990Y-117365010D01*
X129957228Y-88622238D02*
X130309990Y-88975000D01*
X129957228Y-88617772D02*
X129957228Y-88622238D01*
X126425000Y-76975000D02*
X125775000Y-76975000D01*
X130817992Y-125657008D02*
X126300000Y-130140000D01*
X130817992Y-88760112D02*
X130817992Y-125657008D01*
X124541998Y-82484118D02*
X130817992Y-88760112D01*
X124541998Y-78208002D02*
X124541998Y-82484118D01*
X125775000Y-76975000D02*
X124541998Y-78208002D01*
X125925000Y-78025000D02*
X125875000Y-78025000D01*
X131325994Y-134374006D02*
X126300000Y-139400000D01*
X131325994Y-88050994D02*
X131325994Y-134374006D01*
X131182008Y-87907008D02*
X131325994Y-88050994D01*
X130683312Y-87907008D02*
X131182008Y-87907008D01*
X125050000Y-82273696D02*
X130683312Y-87907008D01*
X125050000Y-78850000D02*
X125050000Y-82273696D01*
X125875000Y-78025000D02*
X125050000Y-78850000D01*
X125925000Y-79200000D02*
X125925000Y-82430272D01*
X131833996Y-142841004D02*
X126300000Y-148375000D01*
X131833996Y-87400000D02*
X131833996Y-142841004D01*
X131833002Y-87399006D02*
X131833996Y-87400000D01*
X130893734Y-87399006D02*
X131833002Y-87399006D01*
X125925000Y-82430272D02*
X130893734Y-87399006D01*
X126875000Y-79975000D02*
X126875000Y-82661848D01*
X132341998Y-151283002D02*
X126300000Y-157325000D01*
X132341998Y-86925000D02*
X132341998Y-151283002D01*
X132308002Y-86891004D02*
X132341998Y-86925000D01*
X131104156Y-86891004D02*
X132308002Y-86891004D01*
X126875000Y-82661848D02*
X131104156Y-86891004D01*
X127850000Y-80650000D02*
X127850000Y-82918424D01*
X132850000Y-159700000D02*
X126300000Y-166250000D01*
X132850000Y-86408002D02*
X132850000Y-159700000D01*
X132825000Y-86383002D02*
X132850000Y-86408002D01*
X131314578Y-86383002D02*
X132825000Y-86383002D01*
X127850000Y-82918424D02*
X131314578Y-86383002D01*
X128800000Y-81350000D02*
X128800000Y-83150000D01*
X134625994Y-103249006D02*
X134300000Y-103575000D01*
X134625994Y-85900994D02*
X134625994Y-103249006D01*
X134600000Y-85875000D02*
X134625994Y-85900994D01*
X131525000Y-85875000D02*
X134600000Y-85875000D01*
X128800000Y-83150000D02*
X131525000Y-85875000D01*
X136810000Y-169595000D02*
X140680000Y-169595000D01*
X126070000Y-188465000D02*
X125910000Y-188625000D01*
X125910000Y-188625000D02*
X125110000Y-188625000D01*
X125110000Y-188625000D02*
X123840000Y-187355000D01*
X123840000Y-187355000D02*
X123840000Y-182565000D01*
X123840000Y-182565000D02*
X136810000Y-169595000D01*
X126510000Y-188465000D02*
X126070000Y-188465000D01*
X140680000Y-169595000D02*
X141410000Y-170325000D01*
X129700000Y-82125000D02*
X129700000Y-83293424D01*
X135133996Y-112016004D02*
X134800000Y-112350000D01*
X135133996Y-85533996D02*
X135133996Y-112016004D01*
X134933002Y-85333002D02*
X135133996Y-85533996D01*
X131739578Y-85333002D02*
X134933002Y-85333002D01*
X129700000Y-83293424D02*
X131739578Y-85333002D01*
X136971576Y-168715000D02*
X140560000Y-168715000D01*
X126950000Y-189175000D02*
X126820000Y-189305000D01*
X126820000Y-189305000D02*
X125071576Y-189305000D01*
X125071576Y-189305000D02*
X123331998Y-187565422D01*
X123331998Y-187565422D02*
X123331998Y-182354578D01*
X123331998Y-182354578D02*
X136971576Y-168715000D01*
X127430000Y-189175000D02*
X126950000Y-189175000D01*
X140560000Y-168715000D02*
X140590000Y-168745000D01*
X130675000Y-82800000D02*
X130675000Y-83550000D01*
X135641998Y-120983002D02*
X135275000Y-121350000D01*
X135641998Y-85191998D02*
X135641998Y-120983002D01*
X135275000Y-84825000D02*
X135641998Y-85191998D01*
X131950000Y-84825000D02*
X135275000Y-84825000D01*
X130675000Y-83550000D02*
X131950000Y-84825000D01*
X137173152Y-167795000D02*
X139570000Y-167795000D01*
X128050000Y-189725000D02*
X127770000Y-190005000D01*
X127770000Y-190005000D02*
X125053152Y-190005000D01*
X125053152Y-190005000D02*
X122823996Y-187775844D01*
X122823996Y-187775844D02*
X122823996Y-182144156D01*
X122823996Y-182144156D02*
X137173152Y-167795000D01*
X128450000Y-189725000D02*
X128050000Y-189725000D01*
X139570000Y-167795000D02*
X139620000Y-167845000D01*
X132275000Y-83975000D02*
X135725000Y-83975000D01*
X136150000Y-129425000D02*
X135300000Y-130275000D01*
X136150000Y-84400000D02*
X136150000Y-129425000D01*
X135725000Y-83975000D02*
X136150000Y-84400000D01*
X129460000Y-190295000D02*
X129050000Y-190295000D01*
X135510000Y-168739728D02*
X135510000Y-167975000D01*
X122315994Y-181933734D02*
X135510000Y-168739728D01*
X122315994Y-188000994D02*
X122315994Y-181933734D01*
X124880000Y-190565000D02*
X122315994Y-188000994D01*
X128780000Y-190565000D02*
X124880000Y-190565000D01*
X129050000Y-190295000D02*
X128780000Y-190565000D01*
X139700000Y-83925000D02*
X137525000Y-83925000D01*
X136658002Y-137916998D02*
X135300000Y-139275000D01*
X136658002Y-84791998D02*
X136658002Y-137916998D01*
X137525000Y-83925000D02*
X136658002Y-84791998D01*
X142480000Y-190355000D02*
X142830000Y-190355000D01*
X134930000Y-173015000D02*
X134460000Y-173485000D01*
X137448424Y-173015000D02*
X134930000Y-173015000D01*
X148328002Y-183894578D02*
X137448424Y-173015000D01*
X148328002Y-188075422D02*
X148328002Y-183894578D01*
X146108424Y-190295000D02*
X148328002Y-188075422D01*
X145958424Y-190295000D02*
X146108424Y-190295000D01*
X145170422Y-191083002D02*
X145958424Y-190295000D01*
X143558002Y-191083002D02*
X145170422Y-191083002D01*
X142830000Y-190355000D02*
X143558002Y-191083002D01*
X141550000Y-82750000D02*
X141550000Y-83250000D01*
X137175000Y-146350000D02*
X135300000Y-148225000D01*
X137175000Y-87591004D02*
X137175000Y-146350000D01*
X139441004Y-85325000D02*
X137175000Y-87591004D01*
X139475000Y-85325000D02*
X139441004Y-85325000D01*
X141550000Y-83250000D02*
X139475000Y-85325000D01*
X143800000Y-189885000D02*
X144490000Y-190575000D01*
X144490000Y-190575000D02*
X144960000Y-190575000D01*
X144960000Y-190575000D02*
X145790000Y-189745000D01*
X145790000Y-189745000D02*
X145940000Y-189745000D01*
X145940000Y-189745000D02*
X147820000Y-187865000D01*
X147820000Y-187865000D02*
X147820000Y-184105000D01*
X147820000Y-184105000D02*
X137600000Y-173885000D01*
X137600000Y-173885000D02*
X135710000Y-173885000D01*
X143530000Y-189885000D02*
X143800000Y-189885000D01*
X142475000Y-82075000D02*
X142475000Y-83100000D01*
X137683002Y-154966998D02*
X135300000Y-157350000D01*
X137683002Y-87891998D02*
X137683002Y-154966998D01*
X142475000Y-83100000D02*
X137683002Y-87891998D01*
X146151576Y-180285000D02*
X141670000Y-175803424D01*
X141670000Y-175803424D02*
X141670000Y-173205000D01*
X141670000Y-173205000D02*
X140090000Y-171625000D01*
X140090000Y-171625000D02*
X136320000Y-171625000D01*
X150170000Y-180285000D02*
X146151576Y-180285000D01*
X143400000Y-81325000D02*
X143400000Y-82893424D01*
X138191004Y-163408996D02*
X135300000Y-166300000D01*
X138191004Y-88102420D02*
X138191004Y-163408996D01*
X143400000Y-82893424D02*
X138191004Y-88102420D01*
X145800000Y-179215000D02*
X142190000Y-175605000D01*
X142190000Y-175605000D02*
X142190000Y-172445000D01*
X142190000Y-172445000D02*
X140430000Y-170685000D01*
X140430000Y-170685000D02*
X137030000Y-170685000D01*
X149570000Y-179215000D02*
X145800000Y-179215000D01*
X144225000Y-80500000D02*
X144225000Y-80550000D01*
X144925000Y-102525000D02*
X144300000Y-103150000D01*
X144925000Y-81125000D02*
X144925000Y-102525000D01*
X144375000Y-80575000D02*
X144925000Y-81125000D01*
X144250000Y-80575000D02*
X144375000Y-80575000D01*
X144225000Y-80550000D02*
X144250000Y-80575000D01*
X145200000Y-79825000D02*
X145550000Y-80175000D01*
X145550000Y-111050000D02*
X144300000Y-112300000D01*
X145550000Y-80175000D02*
X145550000Y-111050000D01*
X146200000Y-79150000D02*
X146200000Y-119375000D01*
X146200000Y-119375000D02*
X144300000Y-121275000D01*
X146125000Y-77925000D02*
X146150000Y-77925000D01*
X146750000Y-127750000D02*
X144300000Y-130200000D01*
X146750000Y-80858002D02*
X146750000Y-127750000D01*
X147050000Y-80558002D02*
X146750000Y-80858002D01*
X147050000Y-78825000D02*
X147050000Y-80558002D01*
X146150000Y-77925000D02*
X147050000Y-78825000D01*
X145225000Y-77150000D02*
X145550000Y-76825000D01*
X147258002Y-136366998D02*
X144300000Y-139325000D01*
X147258002Y-81075000D02*
X147258002Y-136366998D01*
X147558002Y-80775000D02*
X147258002Y-81075000D01*
X147558002Y-78158002D02*
X147558002Y-80775000D01*
X146225000Y-76825000D02*
X147558002Y-78158002D01*
X145550000Y-76825000D02*
X146225000Y-76825000D01*
X144400000Y-76250000D02*
X146368424Y-76250000D01*
X147766004Y-144758996D02*
X144300000Y-148225000D01*
X147766004Y-81300000D02*
X147766004Y-144758996D01*
X148066004Y-81000000D02*
X147766004Y-81300000D01*
X148066004Y-77947580D02*
X148066004Y-81000000D01*
X146368424Y-76250000D02*
X148066004Y-77947580D01*
X143750000Y-75275000D02*
X146111848Y-75275000D01*
X148274006Y-153175994D02*
X144300000Y-157150000D01*
X148274006Y-99145994D02*
X148274006Y-153175994D01*
X148274006Y-81525000D02*
X148274006Y-87230000D01*
X148574006Y-81225000D02*
X148274006Y-81525000D01*
X148574006Y-77737158D02*
X148574006Y-81225000D01*
X146111848Y-75275000D02*
X148574006Y-77737158D01*
X148340000Y-87230000D02*
X152660000Y-91550000D01*
X152660000Y-91550000D02*
X152660000Y-94760000D01*
X152660000Y-94760000D02*
X148274006Y-99145994D01*
X148274006Y-87230000D02*
X148340000Y-87230000D01*
X142800000Y-74600000D02*
X143125000Y-74275000D01*
X148782008Y-162092992D02*
X144300000Y-166575000D01*
X148782008Y-99390000D02*
X148782008Y-162092992D01*
X148782008Y-81750000D02*
X148782008Y-86870000D01*
X149082008Y-81450000D02*
X148782008Y-81750000D01*
X149082008Y-77526736D02*
X149082008Y-81450000D01*
X145830272Y-74275000D02*
X149082008Y-77526736D01*
X143125000Y-74275000D02*
X145830272Y-74275000D01*
X148920000Y-86870000D02*
X153190000Y-91140000D01*
X153190000Y-91140000D02*
X153190000Y-94990000D01*
X153190000Y-94990000D02*
X148790000Y-99390000D01*
X148782008Y-86870000D02*
X148920000Y-86870000D01*
X148782008Y-99390000D02*
X148790000Y-99390000D01*
X151220380Y-84079620D02*
X151220380Y-84086816D01*
X153475000Y-74350000D02*
X150250000Y-77575000D01*
X150250000Y-77575000D02*
X150250000Y-83109240D01*
X150250000Y-83109240D02*
X151220380Y-84079620D01*
X156075000Y-74350000D02*
X153475000Y-74350000D01*
X154518986Y-101881014D02*
X153300000Y-103100000D01*
X154518986Y-87385422D02*
X154518986Y-101881014D01*
X151220380Y-84086816D02*
X154518986Y-87385422D01*
X150775994Y-82916810D02*
X154579592Y-86720408D01*
X153256576Y-75300000D02*
X150775994Y-77780582D01*
X150775994Y-77780582D02*
X150775994Y-82916810D01*
X155425000Y-75300000D02*
X153256576Y-75300000D01*
X155026988Y-110373012D02*
X153300000Y-112100000D01*
X155026988Y-87175000D02*
X155026988Y-110373012D01*
X154579592Y-86727604D02*
X155026988Y-87175000D01*
X154579592Y-86720408D02*
X154579592Y-86727604D01*
X155534990Y-118865010D02*
X155534990Y-86957382D01*
X155534990Y-118865010D02*
X153300000Y-121100000D01*
X154700000Y-76250000D02*
X154700000Y-76200000D01*
X151283996Y-82706388D02*
X155534990Y-86957382D01*
X151283996Y-77991004D02*
X151283996Y-82706388D01*
X153050000Y-76225000D02*
X151283996Y-77991004D01*
X154675000Y-76225000D02*
X153050000Y-76225000D01*
X154700000Y-76200000D02*
X154675000Y-76225000D01*
X156042992Y-127307008D02*
X156042992Y-86746960D01*
X156042992Y-127307008D02*
X153300000Y-130050000D01*
X156042992Y-86746960D02*
X151791998Y-82495966D01*
X152925000Y-77075000D02*
X151791998Y-78208002D01*
X151791998Y-78208002D02*
X151791998Y-82495966D01*
X153875000Y-77075000D02*
X152925000Y-77075000D01*
X153150000Y-139540000D02*
X153150000Y-139010994D01*
X152750000Y-78120000D02*
X154440000Y-78120000D01*
X152300000Y-78570000D02*
X152750000Y-78120000D01*
X152300000Y-82285544D02*
X152300000Y-78570000D01*
X156550994Y-86536538D02*
X152300000Y-82285544D01*
X156550994Y-135610000D02*
X156550994Y-86536538D01*
X153150000Y-139010994D02*
X156550994Y-135610000D01*
X153170000Y-79180000D02*
X153175000Y-82442120D01*
X157058996Y-144466004D02*
X153300000Y-148225000D01*
X157058996Y-86326116D02*
X157058996Y-144466004D01*
X153175000Y-82442120D02*
X157058996Y-86326116D01*
X154100000Y-79875000D02*
X154100000Y-82648696D01*
X157566998Y-152933002D02*
X153300000Y-157200000D01*
X157566998Y-86115694D02*
X157566998Y-152933002D01*
X154100000Y-82648696D02*
X157566998Y-86115694D01*
X155025000Y-80575000D02*
X155025000Y-82855272D01*
X158075000Y-161500000D02*
X153300000Y-166275000D01*
X158075000Y-85905272D02*
X158075000Y-161500000D01*
X155025000Y-82855272D02*
X158075000Y-85905272D01*
X155925000Y-81300000D02*
X155925000Y-83036848D01*
X163525000Y-102075000D02*
X162300000Y-103300000D01*
X163525000Y-85666004D02*
X163525000Y-102075000D01*
X163550000Y-85641004D02*
X163525000Y-85666004D01*
X158529156Y-85641004D02*
X163550000Y-85641004D01*
X155925000Y-83036848D02*
X158529156Y-85641004D01*
X153120000Y-188295000D02*
X153120000Y-188385000D01*
X161970000Y-172315000D02*
X168200000Y-172315000D01*
X161460000Y-172825000D02*
X161970000Y-172315000D01*
X161460000Y-172895000D02*
X161460000Y-172825000D01*
X150440000Y-183915000D02*
X161460000Y-172895000D01*
X150440000Y-187565000D02*
X150440000Y-183915000D01*
X151390000Y-188515000D02*
X150440000Y-187565000D01*
X152990000Y-188515000D02*
X151390000Y-188515000D01*
X153120000Y-188385000D02*
X152990000Y-188515000D01*
X168200000Y-172315000D02*
X168230000Y-172345000D01*
X156775000Y-82100000D02*
X156775000Y-83168424D01*
X164116998Y-110458002D02*
X162300000Y-112275000D01*
X164116998Y-85150000D02*
X164116998Y-110458002D01*
X164100000Y-85133002D02*
X164116998Y-85150000D01*
X158739578Y-85133002D02*
X164100000Y-85133002D01*
X156775000Y-83168424D02*
X158739578Y-85133002D01*
X154100000Y-188915000D02*
X154100000Y-188935000D01*
X162281576Y-171285000D02*
X167460000Y-171285000D01*
X160930000Y-172636576D02*
X162281576Y-171285000D01*
X160930000Y-172655000D02*
X160930000Y-172636576D01*
X149931998Y-183653002D02*
X160930000Y-172655000D01*
X149931998Y-187826998D02*
X149931998Y-183653002D01*
X151270000Y-189165000D02*
X149931998Y-187826998D01*
X153870000Y-189165000D02*
X151270000Y-189165000D01*
X154100000Y-188935000D02*
X153870000Y-189165000D01*
X167460000Y-171285000D02*
X167490000Y-171255000D01*
X157700000Y-82800000D02*
X157700000Y-83375000D01*
X164625000Y-118975000D02*
X162300000Y-121300000D01*
X164625000Y-84633002D02*
X164625000Y-118975000D01*
X164616998Y-84625000D02*
X164625000Y-84633002D01*
X158950000Y-84625000D02*
X164616998Y-84625000D01*
X157700000Y-83375000D02*
X158950000Y-84625000D01*
X155090000Y-189555000D02*
X154740000Y-189555000D01*
X162413152Y-170435000D02*
X166600000Y-170435000D01*
X160410000Y-172438152D02*
X162413152Y-170435000D01*
X160410000Y-172456576D02*
X160410000Y-172438152D01*
X149423996Y-183442580D02*
X160410000Y-172456576D01*
X149423996Y-188037420D02*
X149423996Y-183442580D01*
X151171576Y-189785000D02*
X149423996Y-188037420D01*
X154510000Y-189785000D02*
X151171576Y-189785000D01*
X154740000Y-189555000D02*
X154510000Y-189785000D01*
X159300000Y-83775000D02*
X165150000Y-83775000D01*
X165175000Y-127425000D02*
X162300000Y-130300000D01*
X165175000Y-84750000D02*
X165175000Y-127425000D01*
X165150000Y-84725000D02*
X165175000Y-84750000D01*
X165150000Y-83775000D02*
X165150000Y-84725000D01*
X156090000Y-190145000D02*
X155910000Y-190145000D01*
X162564728Y-169565000D02*
X165670000Y-169565000D01*
X159800000Y-172329728D02*
X162564728Y-169565000D01*
X159800000Y-172348152D02*
X159800000Y-172329728D01*
X148915994Y-183232158D02*
X159800000Y-172348152D01*
X148915994Y-188247842D02*
X148915994Y-183232158D01*
X151063152Y-190395000D02*
X148915994Y-188247842D01*
X155660000Y-190395000D02*
X151063152Y-190395000D01*
X155910000Y-190145000D02*
X155660000Y-190395000D01*
X166700000Y-83900000D02*
X166700000Y-83933002D01*
X165683002Y-135966998D02*
X162300000Y-139350000D01*
X165683002Y-84950000D02*
X165683002Y-135966998D01*
X166700000Y-83933002D02*
X165683002Y-84950000D01*
X170030000Y-190435000D02*
X170410000Y-190815000D01*
X170410000Y-190815000D02*
X172398424Y-190815000D01*
X172398424Y-190815000D02*
X175647992Y-187565432D01*
X175647992Y-187565432D02*
X175647992Y-185114568D01*
X175647992Y-185114568D02*
X171814212Y-181280788D01*
X169740000Y-190435000D02*
X170030000Y-190435000D01*
X171814212Y-181270788D02*
X167900000Y-177356576D01*
X167900000Y-177356576D02*
X167900000Y-175345000D01*
X167900000Y-175345000D02*
X167878002Y-175366998D01*
X167878002Y-175366998D02*
X164970000Y-175366998D01*
X171814212Y-181280788D02*
X171814212Y-181270788D01*
X164970000Y-175366998D02*
X164970000Y-175470000D01*
X164970000Y-175470000D02*
X164310000Y-176130000D01*
X168375000Y-82925000D02*
X168375000Y-83400000D01*
X166175000Y-144275000D02*
X162300000Y-148150000D01*
X166175000Y-137125000D02*
X166175000Y-144275000D01*
X166200000Y-137100000D02*
X166175000Y-137125000D01*
X166200000Y-85575000D02*
X166200000Y-137100000D01*
X168375000Y-83400000D02*
X166200000Y-85575000D01*
X171160000Y-189965000D02*
X171410000Y-190215000D01*
X171410000Y-190215000D02*
X172280000Y-190215000D01*
X172280000Y-190215000D02*
X175130000Y-187365000D01*
X175130000Y-187365000D02*
X175130000Y-185315000D01*
X175130000Y-185315000D02*
X169350000Y-179535000D01*
X170810000Y-189965000D02*
X171160000Y-189965000D01*
X169350000Y-179525000D02*
X167380000Y-177555000D01*
X167380000Y-177555000D02*
X167380000Y-176685000D01*
X167380000Y-176685000D02*
X167370000Y-176675000D01*
X167370000Y-176675000D02*
X167370000Y-175875000D01*
X167370000Y-175875000D02*
X165945000Y-175875000D01*
X169350000Y-179535000D02*
X169350000Y-179525000D01*
X165945000Y-175875000D02*
X165530000Y-176290000D01*
X169175000Y-82075000D02*
X169550000Y-82450000D01*
X166708002Y-152891998D02*
X162300000Y-157300000D01*
X166708002Y-85785422D02*
X166708002Y-152891998D01*
X169550000Y-82943424D02*
X166708002Y-85785422D01*
X169550000Y-82450000D02*
X169550000Y-82943424D01*
X176800000Y-180715000D02*
X176730000Y-180785000D01*
X176730000Y-180785000D02*
X172046848Y-180785000D01*
X172046848Y-180785000D02*
X168430000Y-177168152D01*
X168430000Y-177168152D02*
X168430000Y-174935000D01*
X168430000Y-174935000D02*
X168310000Y-174815000D01*
X168310000Y-174815000D02*
X167450000Y-174815000D01*
X177360000Y-180715000D02*
X176800000Y-180715000D01*
X166080000Y-173410000D02*
X167450000Y-174780000D01*
X167450000Y-174780000D02*
X167450000Y-174815000D01*
X166080000Y-173360000D02*
X166080000Y-173410000D01*
X170025000Y-81275000D02*
X170025000Y-82225000D01*
X167216004Y-161358996D02*
X162300000Y-166275000D01*
X167216004Y-85995844D02*
X167216004Y-161358996D01*
X170225000Y-82986848D02*
X167216004Y-85995844D01*
X170225000Y-82425000D02*
X170225000Y-82986848D01*
X170025000Y-82225000D02*
X170225000Y-82425000D01*
X168938002Y-176957730D02*
X168938002Y-174693002D01*
X168938002Y-174693002D02*
X168516998Y-174271998D01*
X176430000Y-179955000D02*
X171935272Y-179955000D01*
X171935272Y-179955000D02*
X168938002Y-176957730D01*
X167600000Y-173390000D02*
X168516998Y-174306998D01*
X168516998Y-174306998D02*
X168516998Y-174271998D01*
X167260000Y-173390000D02*
X167600000Y-173390000D01*
X170900000Y-80525000D02*
X170900000Y-82325000D01*
X172375000Y-102025000D02*
X171300000Y-103100000D01*
X172375000Y-83800000D02*
X172375000Y-102025000D01*
X170900000Y-82325000D02*
X172375000Y-83800000D01*
X171900000Y-79925000D02*
X171900000Y-82600000D01*
X172883002Y-110741998D02*
X171300000Y-112325000D01*
X172883002Y-83583002D02*
X172883002Y-110741998D01*
X171900000Y-82600000D02*
X172883002Y-83583002D01*
X172850000Y-79225000D02*
X172850000Y-82831576D01*
X173391004Y-119333996D02*
X171300000Y-121425000D01*
X173391004Y-83372580D02*
X173391004Y-119333996D01*
X172850000Y-82831576D02*
X173391004Y-83372580D01*
X173050000Y-78075000D02*
X173050000Y-78250000D01*
X173925000Y-127450000D02*
X172110000Y-130230000D01*
X173925000Y-83150000D02*
X173925000Y-127450000D01*
X173700000Y-82925000D02*
X173925000Y-83150000D01*
X173700000Y-78900000D02*
X173700000Y-82925000D01*
X173050000Y-78250000D02*
X173700000Y-78900000D01*
X172575000Y-77000000D02*
X173150000Y-77000000D01*
X174433002Y-135966998D02*
X171300000Y-139100000D01*
X174433002Y-78283002D02*
X174433002Y-135966998D01*
X173150000Y-77000000D02*
X174433002Y-78283002D01*
X171725000Y-76175000D02*
X172150000Y-75750000D01*
X174950000Y-144375000D02*
X171300000Y-148025000D01*
X174950000Y-89775000D02*
X174950000Y-144375000D01*
X174941004Y-89766004D02*
X174950000Y-89775000D01*
X174941004Y-78072580D02*
X174941004Y-89766004D01*
X172618424Y-75750000D02*
X174941004Y-78072580D01*
X172150000Y-75750000D02*
X172618424Y-75750000D01*
X170950000Y-75300000D02*
X170950000Y-75275000D01*
X175458002Y-153091998D02*
X171300000Y-157250000D01*
X175458002Y-86733996D02*
X175458002Y-153091998D01*
X175449006Y-86725000D02*
X175458002Y-86733996D01*
X175449006Y-77862158D02*
X175449006Y-86725000D01*
X172761848Y-75175000D02*
X175449006Y-77862158D01*
X171050000Y-75175000D02*
X172761848Y-75175000D01*
X170950000Y-75275000D02*
X171050000Y-75175000D01*
X170025000Y-74600000D02*
X170450000Y-74600000D01*
X175975000Y-161450000D02*
X171300000Y-166125000D01*
X175975000Y-151383996D02*
X175975000Y-161450000D01*
X175966004Y-151375000D02*
X175975000Y-151383996D01*
X175966004Y-83633996D02*
X175966004Y-151375000D01*
X175957008Y-83625000D02*
X175966004Y-83633996D01*
X175957008Y-77632008D02*
X175957008Y-83625000D01*
X172775000Y-74450000D02*
X175957008Y-77632008D01*
X170600000Y-74450000D02*
X172775000Y-74450000D01*
X170450000Y-74600000D02*
X170600000Y-74450000D01*
X179131576Y-74700000D02*
X177217992Y-76613584D01*
X177217992Y-76613584D02*
X177217992Y-83391688D01*
X177217992Y-83391688D02*
X181464146Y-87637842D01*
X181464146Y-87637842D02*
X181464146Y-102110854D01*
X181464146Y-102110854D02*
X180300000Y-103275000D01*
X183475000Y-74700000D02*
X179131576Y-74700000D01*
X182375000Y-75225000D02*
X179325000Y-75225000D01*
X179325000Y-75225000D02*
X177725994Y-76824006D01*
X177725994Y-76824006D02*
X177725994Y-83181266D01*
X177725994Y-83181266D02*
X181972148Y-87427420D01*
X181972148Y-87427420D02*
X181972148Y-110577852D01*
X181972148Y-110577852D02*
X180300000Y-112250000D01*
X182725000Y-75575000D02*
X182375000Y-75225000D01*
X181875000Y-76300000D02*
X181850000Y-76275000D01*
X181850000Y-76275000D02*
X179000000Y-76275000D01*
X179000000Y-76275000D02*
X178233996Y-77041004D01*
X178233996Y-77041004D02*
X178233996Y-82970844D01*
X178233996Y-82970844D02*
X182480150Y-87216998D01*
X182480150Y-87216998D02*
X182480150Y-119094850D01*
X182480150Y-119094850D02*
X180300000Y-121275000D01*
X181875000Y-76375000D02*
X181875000Y-76300000D01*
X180575000Y-76825000D02*
X179200000Y-76825000D01*
X179200000Y-76825000D02*
X178741998Y-77283002D01*
X178741998Y-77283002D02*
X178741998Y-82760422D01*
X178741998Y-82760422D02*
X182988152Y-87006576D01*
X182988152Y-87006576D02*
X182988152Y-127561848D01*
X182988152Y-127561848D02*
X180300000Y-130250000D01*
X180975000Y-77225000D02*
X180575000Y-76825000D01*
X180000000Y-78075000D02*
X180075000Y-78000000D01*
X183496154Y-136103846D02*
X180300000Y-139300000D01*
X183496154Y-86796154D02*
X183496154Y-136103846D01*
X179250000Y-82550000D02*
X183496154Y-86796154D01*
X179250000Y-78075000D02*
X179250000Y-82550000D01*
X179250000Y-78075000D02*
X180000000Y-78075000D01*
X180125000Y-82673696D02*
X184004156Y-86552852D01*
X184004156Y-86552852D02*
X184004156Y-144700000D01*
X184004156Y-144700000D02*
X180304156Y-148400000D01*
X180304156Y-148400000D02*
X180300000Y-148400000D01*
X180125000Y-79175000D02*
X180125000Y-82673696D01*
X180650000Y-80275000D02*
X180650000Y-82480272D01*
X180650000Y-82480272D02*
X184512158Y-86342430D01*
X184512158Y-86342430D02*
X184512158Y-153112842D01*
X184512158Y-153112842D02*
X180300000Y-157325000D01*
X180975000Y-79950000D02*
X180650000Y-80275000D01*
X181775000Y-82886848D02*
X185020160Y-86132008D01*
X185020160Y-86132008D02*
X185020160Y-161579840D01*
X185020160Y-161579840D02*
X180300000Y-166300000D01*
X181775000Y-80775000D02*
X181775000Y-82886848D01*
X185230582Y-85624006D02*
X185244006Y-85624006D01*
X186170000Y-92650000D02*
X190250994Y-96730994D01*
X186170000Y-86550000D02*
X186170000Y-92650000D01*
X185244006Y-85624006D02*
X186170000Y-86550000D01*
X182700000Y-83093424D02*
X185230582Y-85624006D01*
X190250994Y-96730994D02*
X190250994Y-102324006D01*
X190250994Y-102324006D02*
X189300000Y-103275000D01*
X182700000Y-81550000D02*
X182700000Y-83093424D01*
X190170000Y-171400000D02*
X190470000Y-171100000D01*
X190470000Y-169500000D02*
X190970000Y-169000000D01*
X190470000Y-171100000D02*
X190470000Y-169500000D01*
X192970000Y-167100000D02*
X192870000Y-167100000D01*
X192870000Y-167100000D02*
X190970000Y-169000000D01*
X190970000Y-169000000D02*
X190770000Y-169200000D01*
X190170000Y-171400000D02*
X188370000Y-173200000D01*
X180230000Y-188845000D02*
X178950000Y-188845000D01*
X178950000Y-188845000D02*
X177680000Y-187575000D01*
X177680000Y-187575000D02*
X177680000Y-184465000D01*
X177680000Y-184465000D02*
X187420000Y-174725000D01*
X180310000Y-188685000D02*
X180310000Y-188765000D01*
X187420000Y-174725000D02*
X187460000Y-174725000D01*
X187460000Y-174725000D02*
X187866370Y-174318630D01*
X180310000Y-188765000D02*
X180230000Y-188845000D01*
X188370000Y-173200000D02*
X188370000Y-173793424D01*
X188370000Y-173793424D02*
X187866370Y-174297054D01*
X187866370Y-174297054D02*
X187866370Y-174318630D01*
X185441004Y-85116004D02*
X185486004Y-85116004D01*
X186678002Y-92408002D02*
X190758996Y-96488996D01*
X186678002Y-86308002D02*
X186678002Y-92408002D01*
X185486004Y-85116004D02*
X186678002Y-86308002D01*
X183600000Y-83275000D02*
X185441004Y-85116004D01*
X190758996Y-96488996D02*
X190758996Y-110791004D01*
X190758996Y-110791004D02*
X189300000Y-112250000D01*
X183600000Y-82325000D02*
X183600000Y-83275000D01*
X189570000Y-170200000D02*
X189470000Y-170200000D01*
X187507158Y-172162842D02*
X187507158Y-173627842D01*
X189470000Y-170200000D02*
X187507158Y-172162842D01*
X181360000Y-189165000D02*
X181350000Y-189165000D01*
X177171998Y-184254578D02*
X187209578Y-174216998D01*
X177171998Y-187796998D02*
X177171998Y-184254578D01*
X178900000Y-189525000D02*
X177171998Y-187796998D01*
X180990000Y-189525000D02*
X178900000Y-189525000D01*
X181350000Y-189165000D02*
X180990000Y-189525000D01*
X187209578Y-174216998D02*
X187228002Y-174216998D01*
X187507158Y-173937842D02*
X187507158Y-173627842D01*
X187228002Y-174216998D02*
X187507158Y-173937842D01*
X191266998Y-96300000D02*
X191266998Y-96900000D01*
X191266998Y-96900000D02*
X191266998Y-119433002D01*
X185958002Y-84608002D02*
X185978002Y-84608002D01*
X187186004Y-92197580D02*
X191266998Y-96278574D01*
X187186004Y-85816004D02*
X187186004Y-92197580D01*
X185978002Y-84608002D02*
X187186004Y-85816004D01*
X184575000Y-83225000D02*
X185958002Y-84608002D01*
X191266998Y-119433002D02*
X189300000Y-121400000D01*
X184575000Y-83000000D02*
X184575000Y-83225000D01*
X189470000Y-169000000D02*
X188570000Y-169000000D01*
X186999156Y-170570844D02*
X186999156Y-171525844D01*
X188570000Y-169000000D02*
X186999156Y-170570844D01*
X181740000Y-190445000D02*
X179101576Y-190445000D01*
X186999156Y-173708996D02*
X186999156Y-171525844D01*
X182200000Y-189985000D02*
X181740000Y-190445000D01*
X176663996Y-184044156D02*
X186999156Y-173708996D01*
X176663996Y-188007420D02*
X176663996Y-184044156D01*
X179101576Y-190445000D02*
X176663996Y-188007420D01*
X191775000Y-96900000D02*
X191775000Y-96005000D01*
X191775000Y-96005000D02*
X191470000Y-95700000D01*
X186300000Y-84100000D02*
X186300000Y-84211576D01*
X187770000Y-92000000D02*
X191470000Y-95700000D01*
X187770000Y-85681576D02*
X187770000Y-92000000D01*
X186300000Y-84211576D02*
X187770000Y-85681576D01*
X186300000Y-83625000D02*
X186300000Y-84100000D01*
X191470000Y-95700000D02*
X191626210Y-95856210D01*
X191775000Y-96900000D02*
X191775000Y-128625000D01*
X190125000Y-130275000D02*
X189300000Y-130275000D01*
X191775000Y-128625000D02*
X190125000Y-130275000D01*
X186410000Y-171700000D02*
X186410000Y-170260000D01*
X186410000Y-170260000D02*
X188670000Y-168000000D01*
X183230000Y-190555000D02*
X182831998Y-190953002D01*
X182831998Y-190953002D02*
X178891154Y-190953002D01*
X178891154Y-190953002D02*
X176155994Y-188217842D01*
X176155994Y-188217842D02*
X176155994Y-183833734D01*
X176155994Y-183833734D02*
X186410000Y-173579728D01*
X183230000Y-190535000D02*
X183230000Y-190555000D01*
X186410000Y-171700000D02*
X186410000Y-173579728D01*
X188278002Y-88800000D02*
X188278002Y-86000000D01*
X190728002Y-83550000D02*
X193700000Y-83550000D01*
X188278002Y-86000000D02*
X190728002Y-83550000D01*
X192283002Y-96700000D02*
X192283002Y-95794578D01*
X192283002Y-95794578D02*
X191985422Y-95496998D01*
X192134212Y-95645788D02*
X191985422Y-95496998D01*
X191985422Y-95496998D02*
X191229212Y-94740788D01*
X188278002Y-91789578D02*
X191229212Y-94740788D01*
X188278002Y-88791998D02*
X188278002Y-88800000D01*
X188278002Y-88800000D02*
X188278002Y-91789578D01*
X193700000Y-83550000D02*
X193533002Y-83550000D01*
X192283002Y-96700000D02*
X192283002Y-136366998D01*
X192283002Y-136366998D02*
X189300000Y-139350000D01*
X195270000Y-175400000D02*
X195270000Y-175900000D01*
X200470000Y-181100000D02*
X201700272Y-181100000D01*
X195270000Y-175900000D02*
X200470000Y-181100000D01*
X201870000Y-189905000D02*
X201870000Y-189895000D01*
X196720000Y-190385000D02*
X197040000Y-190705000D01*
X197040000Y-190705000D02*
X201070000Y-190705000D01*
X201070000Y-190705000D02*
X201870000Y-189905000D01*
X196370000Y-190385000D02*
X196720000Y-190385000D01*
X203410000Y-182809728D02*
X201700272Y-181100000D01*
X203410000Y-183008162D02*
X203410000Y-182809728D01*
X203404006Y-183014156D02*
X203410000Y-183008162D01*
X203404006Y-188360994D02*
X203404006Y-183014156D01*
X201870000Y-189895000D02*
X203404006Y-188360994D01*
X195375000Y-82925000D02*
X195495000Y-82925000D01*
X192791004Y-98642148D02*
X192791004Y-98800000D01*
X197770000Y-93663152D02*
X192791004Y-98642148D01*
X197770000Y-85200000D02*
X197770000Y-93663152D01*
X195495000Y-82925000D02*
X197770000Y-85200000D01*
X195375000Y-82925000D02*
X195375000Y-83075000D01*
X192791004Y-98800000D02*
X192791004Y-144658996D01*
X192791004Y-144658996D02*
X189300000Y-148150000D01*
X190150000Y-175055000D02*
X190415000Y-175055000D01*
X200270000Y-181700000D02*
X201581848Y-181700000D01*
X192770000Y-174200000D02*
X200270000Y-181700000D01*
X191270000Y-174200000D02*
X192770000Y-174200000D01*
X190415000Y-175055000D02*
X191270000Y-174200000D01*
X197400000Y-189845000D02*
X197760000Y-189845000D01*
X197760000Y-189845000D02*
X198050000Y-190135000D01*
X198050000Y-190135000D02*
X200878424Y-190135000D01*
X200878424Y-190135000D02*
X202896004Y-188117420D01*
X202896004Y-188117420D02*
X202896004Y-183014156D01*
X202896004Y-183014156D02*
X201581848Y-181700000D01*
X193299006Y-99600000D02*
X193299006Y-98852570D01*
X193299006Y-98852570D02*
X194460788Y-97690788D01*
X196350000Y-82250000D02*
X196350000Y-82280000D01*
X196350000Y-82280000D02*
X198358996Y-84288996D01*
X198358996Y-84288996D02*
X198358996Y-93792580D01*
X198358996Y-93792580D02*
X194460788Y-97690788D01*
X193299006Y-99600000D02*
X193299006Y-153375994D01*
X193299006Y-153375994D02*
X189300000Y-157375000D01*
X201616712Y-182453288D02*
X200223288Y-182453288D01*
X191770000Y-175100000D02*
X192870000Y-175100000D01*
X192870000Y-175100000D02*
X195070000Y-177300000D01*
X199170000Y-181400000D02*
X195070000Y-177300000D01*
X200223288Y-182453288D02*
X199170000Y-181400000D01*
X198450000Y-189295000D02*
X198750000Y-189595000D01*
X198750000Y-189595000D02*
X200700000Y-189595000D01*
X200700000Y-189595000D02*
X202388002Y-187906998D01*
X202388002Y-187906998D02*
X202388002Y-183224578D01*
X202388002Y-183224578D02*
X201616712Y-182453288D01*
X198450000Y-189285000D02*
X198450000Y-189295000D01*
X193807008Y-156900000D02*
X193807008Y-161792992D01*
X198866998Y-93500000D02*
X198866998Y-94003002D01*
X193807008Y-99062992D02*
X193807008Y-100500000D01*
X198866998Y-94003002D02*
X193807008Y-99062992D01*
X197300000Y-81575000D02*
X197300000Y-81630000D01*
X198866998Y-83196998D02*
X198866998Y-93500000D01*
X198866998Y-93500000D02*
X198866998Y-93800000D01*
X197300000Y-81630000D02*
X198866998Y-83196998D01*
X193807008Y-99362992D02*
X193807008Y-100500000D01*
X193807008Y-100500000D02*
X193807008Y-156900000D01*
X193807008Y-161792992D02*
X189300000Y-166300000D01*
X192870000Y-176400000D02*
X196970000Y-180500000D01*
X201070000Y-183400000D02*
X201880000Y-184210000D01*
X199870000Y-183400000D02*
X201070000Y-183400000D01*
X198870000Y-182400000D02*
X199870000Y-183400000D01*
X196970000Y-180500000D02*
X198870000Y-182400000D01*
X201880000Y-184210000D02*
X201880000Y-184510000D01*
X201880000Y-187675000D02*
X201880000Y-184510000D01*
X200490000Y-189065000D02*
X201880000Y-187675000D01*
X199870000Y-189065000D02*
X200490000Y-189065000D01*
X199370000Y-188565000D02*
X199870000Y-189065000D01*
X198175000Y-80900000D02*
X199375000Y-82100000D01*
X199375000Y-82100000D02*
X199375000Y-102175000D01*
X199375000Y-102175000D02*
X198300000Y-103250000D01*
X198175000Y-80800000D02*
X198175000Y-80900000D01*
X199200000Y-81200000D02*
X199883002Y-81883002D01*
X199883002Y-81883002D02*
X199883002Y-110691998D01*
X199883002Y-110691998D02*
X198300000Y-112275000D01*
X199200000Y-80075000D02*
X199200000Y-81200000D01*
X200250000Y-81500000D02*
X200391004Y-81641004D01*
X200391004Y-81641004D02*
X200391004Y-119033996D01*
X200391004Y-119033996D02*
X198300000Y-121125000D01*
X200250000Y-79425000D02*
X200250000Y-81500000D01*
X200200000Y-78175000D02*
X201100000Y-79075000D01*
X201100000Y-79075000D02*
X201100000Y-81799006D01*
X201100000Y-81799006D02*
X200925000Y-81974006D01*
X200925000Y-81974006D02*
X200925000Y-127625000D01*
X200925000Y-127625000D02*
X198300000Y-130250000D01*
X200200000Y-78150000D02*
X200200000Y-78175000D01*
X200475000Y-77200000D02*
X201608002Y-78333002D01*
X201608002Y-78333002D02*
X201608002Y-136016998D01*
X201608002Y-136016998D02*
X198300000Y-139325000D01*
X199525000Y-77200000D02*
X200475000Y-77200000D01*
X198625000Y-76400000D02*
X198750000Y-76275000D01*
X198750000Y-76275000D02*
X200325000Y-76275000D01*
X200325000Y-76275000D02*
X202125000Y-78075000D01*
X202125000Y-78075000D02*
X202125000Y-144575000D01*
X202125000Y-144575000D02*
X198300000Y-148400000D01*
X198625000Y-76450000D02*
X198625000Y-76400000D01*
X197875000Y-75625000D02*
X197975000Y-75525000D01*
X197975000Y-75525000D02*
X200375000Y-75525000D01*
X200375000Y-75525000D02*
X202633002Y-77783002D01*
X202633002Y-77783002D02*
X202633002Y-152866998D01*
X202633002Y-152866998D02*
X198300000Y-157200000D01*
X197775000Y-75625000D02*
X197875000Y-75625000D01*
X196925000Y-74700000D02*
X197075000Y-74550000D01*
X197075000Y-74550000D02*
X200125000Y-74550000D01*
X200125000Y-74550000D02*
X203141004Y-77566004D01*
X203141004Y-77566004D02*
X203141004Y-161383996D01*
X203141004Y-161383996D02*
X198300000Y-166225000D01*
X196925000Y-74825000D02*
X196925000Y-74700000D01*
D21*
X54970000Y-165650000D02*
X56470000Y-165650000D01*
X56470000Y-165650000D02*
X65070000Y-157050000D01*
X65070000Y-157050000D02*
X65070000Y-132500000D01*
X65070000Y-132500000D02*
X71510000Y-126060000D01*
X81220000Y-116350000D02*
X71510000Y-126060000D01*
X81220000Y-78700000D02*
X81220000Y-116350000D01*
X81575998Y-78344002D02*
X81220000Y-78700000D01*
X96470000Y-64630000D02*
X124800000Y-64630000D01*
X95280000Y-64630000D02*
X96470000Y-64630000D01*
X97370000Y-65530000D02*
X96470000Y-64630000D01*
X97460000Y-65530000D02*
X97370000Y-65530000D01*
X95280000Y-64630000D02*
X81575998Y-78334002D01*
X81575998Y-78334002D02*
X81575998Y-78344002D01*
X131850000Y-199025000D02*
X104600000Y-199025000D01*
X158675000Y-199025000D02*
X131850000Y-199025000D01*
X185950000Y-199025000D02*
X158675000Y-199025000D01*
X238250000Y-199025000D02*
X185950000Y-199025000D01*
X238275000Y-150450000D02*
X238275000Y-199000000D01*
X238275000Y-130925000D02*
X238275000Y-150450000D01*
X238275000Y-112168998D02*
X238275000Y-130925000D01*
X238275000Y-93850000D02*
X238275000Y-112168998D01*
X238275000Y-72075000D02*
X238275000Y-93850000D01*
X238250000Y-72050000D02*
X238275000Y-72075000D01*
X238250000Y-64630000D02*
X238250000Y-72050000D01*
X238275000Y-199000000D02*
X238250000Y-199025000D01*
D20*
X103825000Y-199800000D02*
X104600000Y-199025000D01*
X103825000Y-200025000D02*
X103825000Y-199800000D01*
X130925000Y-199950000D02*
X131850000Y-199025000D01*
X130625000Y-199950000D02*
X130925000Y-199950000D01*
X157825000Y-199875000D02*
X158675000Y-199025000D01*
X157825000Y-199975000D02*
X157825000Y-199875000D01*
X185025000Y-199950000D02*
X185950000Y-199025000D01*
X184875000Y-199950000D02*
X185025000Y-199950000D01*
X238925000Y-94500000D02*
X238275000Y-93850000D01*
X239250000Y-94500000D02*
X238925000Y-94500000D01*
X239406002Y-113300000D02*
X238275000Y-112168998D01*
X239260000Y-113300000D02*
X239406002Y-113300000D01*
X239040000Y-132200000D02*
X238275000Y-130925000D01*
X239390000Y-132200000D02*
X239040000Y-132200000D01*
X238825000Y-151000000D02*
X238275000Y-150450000D01*
X239280000Y-151000000D02*
X238825000Y-151000000D01*
D21*
X179140000Y-64630000D02*
X238250000Y-64630000D01*
X152100000Y-64630000D02*
X179140000Y-64630000D01*
X124800000Y-64630000D02*
X152100000Y-64630000D01*
X125720000Y-65550000D02*
X124800000Y-64630000D01*
X125860000Y-65550000D02*
X125720000Y-65550000D01*
X152930000Y-65460000D02*
X152100000Y-64630000D01*
X152930000Y-65540000D02*
X152930000Y-65460000D01*
X180080000Y-65570000D02*
X179140000Y-64630000D01*
X180200000Y-65570000D02*
X180080000Y-65570000D01*
X54970000Y-168190000D02*
X55930000Y-168190000D01*
X55930000Y-168190000D02*
X65870000Y-158250000D01*
X65870000Y-158250000D02*
X65870000Y-132780000D01*
X65870000Y-132780000D02*
X72640000Y-126010000D01*
X141520998Y-198370998D02*
X115070998Y-198370998D01*
X168945998Y-198370998D02*
X141520998Y-198370998D01*
X195625000Y-198370998D02*
X168945998Y-198370998D01*
X237500000Y-148475000D02*
X237500000Y-166293998D01*
X237500000Y-130275000D02*
X237500000Y-148475000D01*
X237500000Y-108675000D02*
X237500000Y-130275000D01*
X237500000Y-166293998D02*
X237500000Y-198370998D01*
X237500000Y-198370998D02*
X195625000Y-198370998D01*
X237500000Y-66870000D02*
X237500000Y-108675000D01*
D20*
X114175000Y-197475000D02*
X115070998Y-198370998D01*
X114150000Y-197475000D02*
X114175000Y-197475000D01*
X140850000Y-197475000D02*
X141520998Y-198370998D01*
X140850000Y-197250000D02*
X140850000Y-197475000D01*
X168000000Y-197425000D02*
X168945998Y-198370998D01*
X167750000Y-197425000D02*
X168000000Y-197425000D01*
X195720998Y-198370998D02*
X195670998Y-198370998D01*
X195670998Y-198370998D02*
X195625000Y-198325000D01*
X195625000Y-198325000D02*
X195625000Y-198370998D01*
X194750000Y-197400000D02*
X195720998Y-198370998D01*
X236675000Y-109500000D02*
X237500000Y-108675000D01*
X236650000Y-109500000D02*
X236675000Y-109500000D01*
X236600000Y-131175000D02*
X237500000Y-130275000D01*
X236600000Y-131350000D02*
X236600000Y-131175000D01*
X236700000Y-149275000D02*
X237500000Y-148475000D01*
X236575000Y-149275000D02*
X236700000Y-149275000D01*
X236600000Y-167193998D02*
X237500000Y-166293998D01*
X236600000Y-167250000D02*
X236600000Y-167193998D01*
D21*
X142490000Y-66870000D02*
X116410000Y-66870000D01*
X169930000Y-66870000D02*
X142490000Y-66870000D01*
X197050000Y-66870000D02*
X169930000Y-66870000D01*
X237500000Y-66870000D02*
X197050000Y-66870000D01*
D20*
X197960000Y-65960000D02*
X197050000Y-66870000D01*
X198000000Y-65960000D02*
X197960000Y-65960000D01*
X170740000Y-66060000D02*
X169930000Y-66870000D01*
X170740000Y-65910000D02*
X170740000Y-66060000D01*
X143420000Y-65940000D02*
X142490000Y-66870000D01*
X143800000Y-65940000D02*
X143420000Y-65940000D01*
X117150000Y-66130000D02*
X116410000Y-66870000D01*
X117150000Y-65930000D02*
X117150000Y-66130000D01*
D21*
X116410000Y-66870000D02*
X94290000Y-66870000D01*
X89180000Y-71810000D02*
X82230000Y-78760000D01*
X82230000Y-78760000D02*
X82230000Y-116420000D01*
X82230000Y-116420000D02*
X72640000Y-126010000D01*
X89350000Y-71810000D02*
X94290000Y-66870000D01*
X89180000Y-71810000D02*
X89350000Y-71810000D01*
X93450000Y-75175000D02*
X93450000Y-73810000D01*
X132225000Y-196175000D02*
X105500000Y-196175000D01*
X159275000Y-196175000D02*
X132225000Y-196175000D01*
X186575000Y-196175000D02*
X159275000Y-196175000D01*
X235150000Y-115650000D02*
X235150000Y-134325000D01*
X235150000Y-94590000D02*
X235150000Y-115650000D01*
X235150000Y-134325000D02*
X235150000Y-152025000D01*
X235150000Y-152025000D02*
X235150000Y-187150000D01*
X225895000Y-196175000D02*
X186575000Y-196175000D01*
D20*
X186325000Y-195925000D02*
X186575000Y-196175000D01*
X186325000Y-191925000D02*
X186325000Y-195925000D01*
X158675000Y-195575000D02*
X159275000Y-196175000D01*
X158675000Y-192050000D02*
X158675000Y-195575000D01*
X131650000Y-195600000D02*
X132225000Y-196175000D01*
X131650000Y-191900000D02*
X131650000Y-195600000D01*
X104850000Y-195525000D02*
X105500000Y-196175000D01*
X104850000Y-192075000D02*
X104850000Y-195525000D01*
X234325000Y-152850000D02*
X235150000Y-152025000D01*
X234325000Y-153150000D02*
X234325000Y-152850000D01*
X234350000Y-135125000D02*
X235150000Y-134325000D01*
X234225000Y-135125000D02*
X234350000Y-135125000D01*
X234275000Y-116525000D02*
X235150000Y-115650000D01*
X234275000Y-116875000D02*
X234275000Y-116525000D01*
D21*
X99420000Y-67840000D02*
X93450000Y-73810000D01*
X100870000Y-67840000D02*
X99420000Y-67840000D01*
X130750000Y-67840000D02*
X100870000Y-67840000D01*
X157930000Y-67840000D02*
X130750000Y-67840000D01*
X184720000Y-67840000D02*
X157930000Y-67840000D01*
X100870000Y-68540000D02*
X99870000Y-69540000D01*
X100870000Y-67840000D02*
X100870000Y-68540000D01*
X130750000Y-69800000D02*
X130770000Y-69820000D01*
X130750000Y-67840000D02*
X130750000Y-69800000D01*
X157930000Y-67840000D02*
X157930000Y-69960000D01*
X184720000Y-69860000D02*
X184750000Y-69890000D01*
X184720000Y-67840000D02*
X184720000Y-69860000D01*
X235070000Y-91690000D02*
X235150000Y-91690000D01*
X223740000Y-80360000D02*
X235070000Y-91690000D01*
X223740000Y-67840000D02*
X184720000Y-67840000D01*
X235150000Y-91690000D02*
X235150000Y-94590000D01*
X223740000Y-67840000D02*
X223740000Y-80360000D01*
X234920000Y-187150000D02*
X225895000Y-196175000D01*
X235150000Y-187150000D02*
X234920000Y-187150000D01*
D20*
X236040000Y-95480000D02*
X235150000Y-94590000D01*
X236040000Y-95510000D02*
X236040000Y-95480000D01*
X62420000Y-186450000D02*
X61370000Y-187500000D01*
X60270000Y-188600000D02*
X57370000Y-188600000D01*
X60670000Y-188200000D02*
X60270000Y-188600000D01*
X61370000Y-187500000D02*
X60670000Y-188200000D01*
X67980000Y-180890000D02*
X70210000Y-180890000D01*
X62420000Y-186450000D02*
X67980000Y-180890000D01*
D21*
X70210000Y-180890000D02*
X70210000Y-178350000D01*
D20*
X57370000Y-186900000D02*
X57770000Y-186900000D01*
X57770000Y-186900000D02*
X68860000Y-175810000D01*
X68860000Y-175810000D02*
X70210000Y-175810000D01*
D21*
X54970000Y-170730000D02*
X55890000Y-170730000D01*
X55890000Y-170730000D02*
X66620000Y-160000000D01*
X66620000Y-160000000D02*
X66620000Y-133150000D01*
X66620000Y-133150000D02*
X73520000Y-126250000D01*
X73520000Y-126250000D02*
X73520000Y-126240000D01*
X83550000Y-116210000D02*
X73520000Y-126240000D01*
X83550000Y-84150000D02*
X83575000Y-84150000D01*
X83575000Y-84150000D02*
X83550000Y-84125000D01*
X83550000Y-84125000D02*
X83550000Y-79425000D01*
X83550000Y-84150000D02*
X83550000Y-116210000D01*
M02*
