G04 #@! TF.FileFunction,Legend,Top*
%FSLAX46Y46*%
G04 Gerber Fmt 4.6, Leading zero omitted, Abs format (unit mm)*
G04 Created by KiCad (PCBNEW 4.0.2-stable) date Monday, November 12, 2018 'PMt' 10:07:05 PM*
%MOMM*%
G01*
G04 APERTURE LIST*
%ADD10C,0.100000*%
%ADD11C,0.125000*%
%ADD12C,0.300000*%
%ADD13C,0.200000*%
%ADD14C,0.400000*%
%ADD15C,0.150000*%
%ADD16C,0.120000*%
G04 APERTURE END LIST*
D10*
D11*
X230465239Y-110076190D02*
X230560477Y-110076190D01*
X230608096Y-110052381D01*
X230631906Y-110028571D01*
X230679525Y-109957143D01*
X230703334Y-109861905D01*
X230703334Y-109671429D01*
X230679525Y-109623810D01*
X230655715Y-109600000D01*
X230608096Y-109576190D01*
X230512858Y-109576190D01*
X230465239Y-109600000D01*
X230441430Y-109623810D01*
X230417620Y-109671429D01*
X230417620Y-109790476D01*
X230441430Y-109838095D01*
X230465239Y-109861905D01*
X230512858Y-109885714D01*
X230608096Y-109885714D01*
X230655715Y-109861905D01*
X230679525Y-109838095D01*
X230703334Y-109790476D01*
X230917620Y-110028571D02*
X230941429Y-110052381D01*
X230917620Y-110076190D01*
X230893810Y-110052381D01*
X230917620Y-110028571D01*
X230917620Y-110076190D01*
X231108096Y-109576190D02*
X231441429Y-109576190D01*
X231227143Y-110076190D01*
X231846190Y-109576190D02*
X231750952Y-109576190D01*
X231703333Y-109600000D01*
X231679524Y-109623810D01*
X231631905Y-109695238D01*
X231608095Y-109790476D01*
X231608095Y-109980952D01*
X231631905Y-110028571D01*
X231655714Y-110052381D01*
X231703333Y-110076190D01*
X231798571Y-110076190D01*
X231846190Y-110052381D01*
X231870000Y-110028571D01*
X231893809Y-109980952D01*
X231893809Y-109861905D01*
X231870000Y-109814286D01*
X231846190Y-109790476D01*
X231798571Y-109766667D01*
X231703333Y-109766667D01*
X231655714Y-109790476D01*
X231631905Y-109814286D01*
X231608095Y-109861905D01*
X232489047Y-110076190D02*
X232489047Y-109576190D01*
X232536666Y-109885714D02*
X232679523Y-110076190D01*
X232679523Y-109742857D02*
X232489047Y-109933333D01*
X232989047Y-109576190D02*
X233084285Y-109576190D01*
X233131904Y-109600000D01*
X233179523Y-109647619D01*
X233203332Y-109742857D01*
X233203332Y-109909524D01*
X233179523Y-110004762D01*
X233131904Y-110052381D01*
X233084285Y-110076190D01*
X232989047Y-110076190D01*
X232941428Y-110052381D01*
X232893809Y-110004762D01*
X232869999Y-109909524D01*
X232869999Y-109742857D01*
X232893809Y-109647619D01*
X232941428Y-109600000D01*
X232989047Y-109576190D01*
X233417619Y-110076190D02*
X233417619Y-109576190D01*
X233631904Y-110076190D02*
X233631904Y-109814286D01*
X233608095Y-109766667D01*
X233560476Y-109742857D01*
X233489047Y-109742857D01*
X233441428Y-109766667D01*
X233417619Y-109790476D01*
X233870000Y-110076190D02*
X233870000Y-109742857D01*
X233870000Y-109790476D02*
X233893809Y-109766667D01*
X233941428Y-109742857D01*
X234012857Y-109742857D01*
X234060476Y-109766667D01*
X234084285Y-109814286D01*
X234084285Y-110076190D01*
X234084285Y-109814286D02*
X234108095Y-109766667D01*
X234155714Y-109742857D01*
X234227142Y-109742857D01*
X234274762Y-109766667D01*
X234298571Y-109814286D01*
X234298571Y-110076190D01*
X230365239Y-128126190D02*
X230460477Y-128126190D01*
X230508096Y-128102381D01*
X230531906Y-128078571D01*
X230579525Y-128007143D01*
X230603334Y-127911905D01*
X230603334Y-127721429D01*
X230579525Y-127673810D01*
X230555715Y-127650000D01*
X230508096Y-127626190D01*
X230412858Y-127626190D01*
X230365239Y-127650000D01*
X230341430Y-127673810D01*
X230317620Y-127721429D01*
X230317620Y-127840476D01*
X230341430Y-127888095D01*
X230365239Y-127911905D01*
X230412858Y-127935714D01*
X230508096Y-127935714D01*
X230555715Y-127911905D01*
X230579525Y-127888095D01*
X230603334Y-127840476D01*
X230817620Y-128078571D02*
X230841429Y-128102381D01*
X230817620Y-128126190D01*
X230793810Y-128102381D01*
X230817620Y-128078571D01*
X230817620Y-128126190D01*
X231008096Y-127626190D02*
X231341429Y-127626190D01*
X231127143Y-128126190D01*
X231746190Y-127626190D02*
X231650952Y-127626190D01*
X231603333Y-127650000D01*
X231579524Y-127673810D01*
X231531905Y-127745238D01*
X231508095Y-127840476D01*
X231508095Y-128030952D01*
X231531905Y-128078571D01*
X231555714Y-128102381D01*
X231603333Y-128126190D01*
X231698571Y-128126190D01*
X231746190Y-128102381D01*
X231770000Y-128078571D01*
X231793809Y-128030952D01*
X231793809Y-127911905D01*
X231770000Y-127864286D01*
X231746190Y-127840476D01*
X231698571Y-127816667D01*
X231603333Y-127816667D01*
X231555714Y-127840476D01*
X231531905Y-127864286D01*
X231508095Y-127911905D01*
X232389047Y-128126190D02*
X232389047Y-127626190D01*
X232436666Y-127935714D02*
X232579523Y-128126190D01*
X232579523Y-127792857D02*
X232389047Y-127983333D01*
X232889047Y-127626190D02*
X232984285Y-127626190D01*
X233031904Y-127650000D01*
X233079523Y-127697619D01*
X233103332Y-127792857D01*
X233103332Y-127959524D01*
X233079523Y-128054762D01*
X233031904Y-128102381D01*
X232984285Y-128126190D01*
X232889047Y-128126190D01*
X232841428Y-128102381D01*
X232793809Y-128054762D01*
X232769999Y-127959524D01*
X232769999Y-127792857D01*
X232793809Y-127697619D01*
X232841428Y-127650000D01*
X232889047Y-127626190D01*
X233317619Y-128126190D02*
X233317619Y-127626190D01*
X233531904Y-128126190D02*
X233531904Y-127864286D01*
X233508095Y-127816667D01*
X233460476Y-127792857D01*
X233389047Y-127792857D01*
X233341428Y-127816667D01*
X233317619Y-127840476D01*
X233770000Y-128126190D02*
X233770000Y-127792857D01*
X233770000Y-127840476D02*
X233793809Y-127816667D01*
X233841428Y-127792857D01*
X233912857Y-127792857D01*
X233960476Y-127816667D01*
X233984285Y-127864286D01*
X233984285Y-128126190D01*
X233984285Y-127864286D02*
X234008095Y-127816667D01*
X234055714Y-127792857D01*
X234127142Y-127792857D01*
X234174762Y-127816667D01*
X234198571Y-127864286D01*
X234198571Y-128126190D01*
X230265239Y-146126190D02*
X230360477Y-146126190D01*
X230408096Y-146102381D01*
X230431906Y-146078571D01*
X230479525Y-146007143D01*
X230503334Y-145911905D01*
X230503334Y-145721429D01*
X230479525Y-145673810D01*
X230455715Y-145650000D01*
X230408096Y-145626190D01*
X230312858Y-145626190D01*
X230265239Y-145650000D01*
X230241430Y-145673810D01*
X230217620Y-145721429D01*
X230217620Y-145840476D01*
X230241430Y-145888095D01*
X230265239Y-145911905D01*
X230312858Y-145935714D01*
X230408096Y-145935714D01*
X230455715Y-145911905D01*
X230479525Y-145888095D01*
X230503334Y-145840476D01*
X230717620Y-146078571D02*
X230741429Y-146102381D01*
X230717620Y-146126190D01*
X230693810Y-146102381D01*
X230717620Y-146078571D01*
X230717620Y-146126190D01*
X230908096Y-145626190D02*
X231241429Y-145626190D01*
X231027143Y-146126190D01*
X231646190Y-145626190D02*
X231550952Y-145626190D01*
X231503333Y-145650000D01*
X231479524Y-145673810D01*
X231431905Y-145745238D01*
X231408095Y-145840476D01*
X231408095Y-146030952D01*
X231431905Y-146078571D01*
X231455714Y-146102381D01*
X231503333Y-146126190D01*
X231598571Y-146126190D01*
X231646190Y-146102381D01*
X231670000Y-146078571D01*
X231693809Y-146030952D01*
X231693809Y-145911905D01*
X231670000Y-145864286D01*
X231646190Y-145840476D01*
X231598571Y-145816667D01*
X231503333Y-145816667D01*
X231455714Y-145840476D01*
X231431905Y-145864286D01*
X231408095Y-145911905D01*
X232289047Y-146126190D02*
X232289047Y-145626190D01*
X232336666Y-145935714D02*
X232479523Y-146126190D01*
X232479523Y-145792857D02*
X232289047Y-145983333D01*
X232789047Y-145626190D02*
X232884285Y-145626190D01*
X232931904Y-145650000D01*
X232979523Y-145697619D01*
X233003332Y-145792857D01*
X233003332Y-145959524D01*
X232979523Y-146054762D01*
X232931904Y-146102381D01*
X232884285Y-146126190D01*
X232789047Y-146126190D01*
X232741428Y-146102381D01*
X232693809Y-146054762D01*
X232669999Y-145959524D01*
X232669999Y-145792857D01*
X232693809Y-145697619D01*
X232741428Y-145650000D01*
X232789047Y-145626190D01*
X233217619Y-146126190D02*
X233217619Y-145626190D01*
X233431904Y-146126190D02*
X233431904Y-145864286D01*
X233408095Y-145816667D01*
X233360476Y-145792857D01*
X233289047Y-145792857D01*
X233241428Y-145816667D01*
X233217619Y-145840476D01*
X233670000Y-146126190D02*
X233670000Y-145792857D01*
X233670000Y-145840476D02*
X233693809Y-145816667D01*
X233741428Y-145792857D01*
X233812857Y-145792857D01*
X233860476Y-145816667D01*
X233884285Y-145864286D01*
X233884285Y-146126190D01*
X233884285Y-145864286D02*
X233908095Y-145816667D01*
X233955714Y-145792857D01*
X234027142Y-145792857D01*
X234074762Y-145816667D01*
X234098571Y-145864286D01*
X234098571Y-146126190D01*
D12*
X39312858Y-107992857D02*
X38812858Y-107992857D01*
X38812858Y-108778571D02*
X38812858Y-107278571D01*
X39527144Y-107278571D01*
X40955715Y-108778571D02*
X40455715Y-108064286D01*
X40098572Y-108778571D02*
X40098572Y-107278571D01*
X40670000Y-107278571D01*
X40812858Y-107350000D01*
X40884286Y-107421429D01*
X40955715Y-107564286D01*
X40955715Y-107778571D01*
X40884286Y-107921429D01*
X40812858Y-107992857D01*
X40670000Y-108064286D01*
X40098572Y-108064286D01*
X42741429Y-107778571D02*
X42741429Y-109278571D01*
X42741429Y-107850000D02*
X42884286Y-107778571D01*
X43170000Y-107778571D01*
X43312857Y-107850000D01*
X43384286Y-107921429D01*
X43455715Y-108064286D01*
X43455715Y-108492857D01*
X43384286Y-108635714D01*
X43312857Y-108707143D01*
X43170000Y-108778571D01*
X42884286Y-108778571D01*
X42741429Y-108707143D01*
X44312858Y-108778571D02*
X44170000Y-108707143D01*
X44098572Y-108635714D01*
X44027143Y-108492857D01*
X44027143Y-108064286D01*
X44098572Y-107921429D01*
X44170000Y-107850000D01*
X44312858Y-107778571D01*
X44527143Y-107778571D01*
X44670000Y-107850000D01*
X44741429Y-107921429D01*
X44812858Y-108064286D01*
X44812858Y-108492857D01*
X44741429Y-108635714D01*
X44670000Y-108707143D01*
X44527143Y-108778571D01*
X44312858Y-108778571D01*
X45312858Y-107778571D02*
X45598572Y-108778571D01*
X45884286Y-108064286D01*
X46170001Y-108778571D01*
X46455715Y-107778571D01*
X47598572Y-108707143D02*
X47455715Y-108778571D01*
X47170001Y-108778571D01*
X47027144Y-108707143D01*
X46955715Y-108564286D01*
X46955715Y-107992857D01*
X47027144Y-107850000D01*
X47170001Y-107778571D01*
X47455715Y-107778571D01*
X47598572Y-107850000D01*
X47670001Y-107992857D01*
X47670001Y-108135714D01*
X46955715Y-108278571D01*
X48312858Y-108778571D02*
X48312858Y-107778571D01*
X48312858Y-108064286D02*
X48384286Y-107921429D01*
X48455715Y-107850000D01*
X48598572Y-107778571D01*
X48741429Y-107778571D01*
D11*
X134046192Y-84326190D02*
X133808097Y-84326190D01*
X133808097Y-83826190D01*
X134212859Y-84064286D02*
X134379525Y-84064286D01*
X134450954Y-84326190D02*
X134212859Y-84326190D01*
X134212859Y-83826190D01*
X134450954Y-83826190D01*
X134665240Y-84326190D02*
X134665240Y-83826190D01*
X134784287Y-83826190D01*
X134855716Y-83850000D01*
X134903335Y-83897619D01*
X134927144Y-83945238D01*
X134950954Y-84040476D01*
X134950954Y-84111905D01*
X134927144Y-84207143D01*
X134903335Y-84254762D01*
X134855716Y-84302381D01*
X134784287Y-84326190D01*
X134665240Y-84326190D01*
X135546192Y-84326190D02*
X135546192Y-83826190D01*
X135665239Y-83826190D01*
X135736668Y-83850000D01*
X135784287Y-83897619D01*
X135808096Y-83945238D01*
X135831906Y-84040476D01*
X135831906Y-84111905D01*
X135808096Y-84207143D01*
X135784287Y-84254762D01*
X135736668Y-84302381D01*
X135665239Y-84326190D01*
X135546192Y-84326190D01*
X136046192Y-84326190D02*
X136046192Y-83992857D01*
X136046192Y-84088095D02*
X136070001Y-84040476D01*
X136093811Y-84016667D01*
X136141430Y-83992857D01*
X136189049Y-83992857D01*
X136355716Y-84326190D02*
X136355716Y-83992857D01*
X136355716Y-83826190D02*
X136331906Y-83850000D01*
X136355716Y-83873810D01*
X136379525Y-83850000D01*
X136355716Y-83826190D01*
X136355716Y-83873810D01*
X136546192Y-83992857D02*
X136665239Y-84326190D01*
X136784287Y-83992857D01*
X137165239Y-84302381D02*
X137117620Y-84326190D01*
X137022382Y-84326190D01*
X136974763Y-84302381D01*
X136950953Y-84254762D01*
X136950953Y-84064286D01*
X136974763Y-84016667D01*
X137022382Y-83992857D01*
X137117620Y-83992857D01*
X137165239Y-84016667D01*
X137189048Y-84064286D01*
X137189048Y-84111905D01*
X136950953Y-84159524D01*
X137403334Y-84326190D02*
X137403334Y-83992857D01*
X137403334Y-84088095D02*
X137427143Y-84040476D01*
X137450953Y-84016667D01*
X137498572Y-83992857D01*
X137546191Y-83992857D01*
X138070000Y-83873810D02*
X138093810Y-83850000D01*
X138141429Y-83826190D01*
X138260476Y-83826190D01*
X138308095Y-83850000D01*
X138331905Y-83873810D01*
X138355714Y-83921429D01*
X138355714Y-83969048D01*
X138331905Y-84040476D01*
X138046191Y-84326190D01*
X138355714Y-84326190D01*
X195165239Y-195113690D02*
X195260477Y-195113690D01*
X195308096Y-195089881D01*
X195331906Y-195066071D01*
X195379525Y-194994643D01*
X195403334Y-194899405D01*
X195403334Y-194708929D01*
X195379525Y-194661310D01*
X195355715Y-194637500D01*
X195308096Y-194613690D01*
X195212858Y-194613690D01*
X195165239Y-194637500D01*
X195141430Y-194661310D01*
X195117620Y-194708929D01*
X195117620Y-194827976D01*
X195141430Y-194875595D01*
X195165239Y-194899405D01*
X195212858Y-194923214D01*
X195308096Y-194923214D01*
X195355715Y-194899405D01*
X195379525Y-194875595D01*
X195403334Y-194827976D01*
X195617620Y-195066071D02*
X195641429Y-195089881D01*
X195617620Y-195113690D01*
X195593810Y-195089881D01*
X195617620Y-195066071D01*
X195617620Y-195113690D01*
X195808096Y-194613690D02*
X196141429Y-194613690D01*
X195927143Y-195113690D01*
X196546190Y-194613690D02*
X196450952Y-194613690D01*
X196403333Y-194637500D01*
X196379524Y-194661310D01*
X196331905Y-194732738D01*
X196308095Y-194827976D01*
X196308095Y-195018452D01*
X196331905Y-195066071D01*
X196355714Y-195089881D01*
X196403333Y-195113690D01*
X196498571Y-195113690D01*
X196546190Y-195089881D01*
X196570000Y-195066071D01*
X196593809Y-195018452D01*
X196593809Y-194899405D01*
X196570000Y-194851786D01*
X196546190Y-194827976D01*
X196498571Y-194804167D01*
X196403333Y-194804167D01*
X196355714Y-194827976D01*
X196331905Y-194851786D01*
X196308095Y-194899405D01*
X197189047Y-195113690D02*
X197189047Y-194613690D01*
X197236666Y-194923214D02*
X197379523Y-195113690D01*
X197379523Y-194780357D02*
X197189047Y-194970833D01*
X197689047Y-194613690D02*
X197784285Y-194613690D01*
X197831904Y-194637500D01*
X197879523Y-194685119D01*
X197903332Y-194780357D01*
X197903332Y-194947024D01*
X197879523Y-195042262D01*
X197831904Y-195089881D01*
X197784285Y-195113690D01*
X197689047Y-195113690D01*
X197641428Y-195089881D01*
X197593809Y-195042262D01*
X197569999Y-194947024D01*
X197569999Y-194780357D01*
X197593809Y-194685119D01*
X197641428Y-194637500D01*
X197689047Y-194613690D01*
X198117619Y-195113690D02*
X198117619Y-194613690D01*
X198331904Y-195113690D02*
X198331904Y-194851786D01*
X198308095Y-194804167D01*
X198260476Y-194780357D01*
X198189047Y-194780357D01*
X198141428Y-194804167D01*
X198117619Y-194827976D01*
X198570000Y-195113690D02*
X198570000Y-194780357D01*
X198570000Y-194827976D02*
X198593809Y-194804167D01*
X198641428Y-194780357D01*
X198712857Y-194780357D01*
X198760476Y-194804167D01*
X198784285Y-194851786D01*
X198784285Y-195113690D01*
X198784285Y-194851786D02*
X198808095Y-194804167D01*
X198855714Y-194780357D01*
X198927142Y-194780357D01*
X198974762Y-194804167D01*
X198998571Y-194851786D01*
X198998571Y-195113690D01*
X168365239Y-195113690D02*
X168460477Y-195113690D01*
X168508096Y-195089881D01*
X168531906Y-195066071D01*
X168579525Y-194994643D01*
X168603334Y-194899405D01*
X168603334Y-194708929D01*
X168579525Y-194661310D01*
X168555715Y-194637500D01*
X168508096Y-194613690D01*
X168412858Y-194613690D01*
X168365239Y-194637500D01*
X168341430Y-194661310D01*
X168317620Y-194708929D01*
X168317620Y-194827976D01*
X168341430Y-194875595D01*
X168365239Y-194899405D01*
X168412858Y-194923214D01*
X168508096Y-194923214D01*
X168555715Y-194899405D01*
X168579525Y-194875595D01*
X168603334Y-194827976D01*
X168817620Y-195066071D02*
X168841429Y-195089881D01*
X168817620Y-195113690D01*
X168793810Y-195089881D01*
X168817620Y-195066071D01*
X168817620Y-195113690D01*
X169008096Y-194613690D02*
X169341429Y-194613690D01*
X169127143Y-195113690D01*
X169746190Y-194613690D02*
X169650952Y-194613690D01*
X169603333Y-194637500D01*
X169579524Y-194661310D01*
X169531905Y-194732738D01*
X169508095Y-194827976D01*
X169508095Y-195018452D01*
X169531905Y-195066071D01*
X169555714Y-195089881D01*
X169603333Y-195113690D01*
X169698571Y-195113690D01*
X169746190Y-195089881D01*
X169770000Y-195066071D01*
X169793809Y-195018452D01*
X169793809Y-194899405D01*
X169770000Y-194851786D01*
X169746190Y-194827976D01*
X169698571Y-194804167D01*
X169603333Y-194804167D01*
X169555714Y-194827976D01*
X169531905Y-194851786D01*
X169508095Y-194899405D01*
X170389047Y-195113690D02*
X170389047Y-194613690D01*
X170436666Y-194923214D02*
X170579523Y-195113690D01*
X170579523Y-194780357D02*
X170389047Y-194970833D01*
X170889047Y-194613690D02*
X170984285Y-194613690D01*
X171031904Y-194637500D01*
X171079523Y-194685119D01*
X171103332Y-194780357D01*
X171103332Y-194947024D01*
X171079523Y-195042262D01*
X171031904Y-195089881D01*
X170984285Y-195113690D01*
X170889047Y-195113690D01*
X170841428Y-195089881D01*
X170793809Y-195042262D01*
X170769999Y-194947024D01*
X170769999Y-194780357D01*
X170793809Y-194685119D01*
X170841428Y-194637500D01*
X170889047Y-194613690D01*
X171317619Y-195113690D02*
X171317619Y-194613690D01*
X171531904Y-195113690D02*
X171531904Y-194851786D01*
X171508095Y-194804167D01*
X171460476Y-194780357D01*
X171389047Y-194780357D01*
X171341428Y-194804167D01*
X171317619Y-194827976D01*
X171770000Y-195113690D02*
X171770000Y-194780357D01*
X171770000Y-194827976D02*
X171793809Y-194804167D01*
X171841428Y-194780357D01*
X171912857Y-194780357D01*
X171960476Y-194804167D01*
X171984285Y-194851786D01*
X171984285Y-195113690D01*
X171984285Y-194851786D02*
X172008095Y-194804167D01*
X172055714Y-194780357D01*
X172127142Y-194780357D01*
X172174762Y-194804167D01*
X172198571Y-194851786D01*
X172198571Y-195113690D01*
X141165239Y-195213690D02*
X141260477Y-195213690D01*
X141308096Y-195189881D01*
X141331906Y-195166071D01*
X141379525Y-195094643D01*
X141403334Y-194999405D01*
X141403334Y-194808929D01*
X141379525Y-194761310D01*
X141355715Y-194737500D01*
X141308096Y-194713690D01*
X141212858Y-194713690D01*
X141165239Y-194737500D01*
X141141430Y-194761310D01*
X141117620Y-194808929D01*
X141117620Y-194927976D01*
X141141430Y-194975595D01*
X141165239Y-194999405D01*
X141212858Y-195023214D01*
X141308096Y-195023214D01*
X141355715Y-194999405D01*
X141379525Y-194975595D01*
X141403334Y-194927976D01*
X141617620Y-195166071D02*
X141641429Y-195189881D01*
X141617620Y-195213690D01*
X141593810Y-195189881D01*
X141617620Y-195166071D01*
X141617620Y-195213690D01*
X141808096Y-194713690D02*
X142141429Y-194713690D01*
X141927143Y-195213690D01*
X142546190Y-194713690D02*
X142450952Y-194713690D01*
X142403333Y-194737500D01*
X142379524Y-194761310D01*
X142331905Y-194832738D01*
X142308095Y-194927976D01*
X142308095Y-195118452D01*
X142331905Y-195166071D01*
X142355714Y-195189881D01*
X142403333Y-195213690D01*
X142498571Y-195213690D01*
X142546190Y-195189881D01*
X142570000Y-195166071D01*
X142593809Y-195118452D01*
X142593809Y-194999405D01*
X142570000Y-194951786D01*
X142546190Y-194927976D01*
X142498571Y-194904167D01*
X142403333Y-194904167D01*
X142355714Y-194927976D01*
X142331905Y-194951786D01*
X142308095Y-194999405D01*
X143189047Y-195213690D02*
X143189047Y-194713690D01*
X143236666Y-195023214D02*
X143379523Y-195213690D01*
X143379523Y-194880357D02*
X143189047Y-195070833D01*
X143689047Y-194713690D02*
X143784285Y-194713690D01*
X143831904Y-194737500D01*
X143879523Y-194785119D01*
X143903332Y-194880357D01*
X143903332Y-195047024D01*
X143879523Y-195142262D01*
X143831904Y-195189881D01*
X143784285Y-195213690D01*
X143689047Y-195213690D01*
X143641428Y-195189881D01*
X143593809Y-195142262D01*
X143569999Y-195047024D01*
X143569999Y-194880357D01*
X143593809Y-194785119D01*
X143641428Y-194737500D01*
X143689047Y-194713690D01*
X144117619Y-195213690D02*
X144117619Y-194713690D01*
X144331904Y-195213690D02*
X144331904Y-194951786D01*
X144308095Y-194904167D01*
X144260476Y-194880357D01*
X144189047Y-194880357D01*
X144141428Y-194904167D01*
X144117619Y-194927976D01*
X144570000Y-195213690D02*
X144570000Y-194880357D01*
X144570000Y-194927976D02*
X144593809Y-194904167D01*
X144641428Y-194880357D01*
X144712857Y-194880357D01*
X144760476Y-194904167D01*
X144784285Y-194951786D01*
X144784285Y-195213690D01*
X144784285Y-194951786D02*
X144808095Y-194904167D01*
X144855714Y-194880357D01*
X144927142Y-194880357D01*
X144974762Y-194904167D01*
X144998571Y-194951786D01*
X144998571Y-195213690D01*
X52060476Y-186126190D02*
X51774762Y-186126190D01*
X51917619Y-186126190D02*
X51917619Y-185626190D01*
X51870000Y-185697619D01*
X51822381Y-185745238D01*
X51774762Y-185769048D01*
X52370000Y-185626190D02*
X52417619Y-185626190D01*
X52465238Y-185650000D01*
X52489047Y-185673810D01*
X52512857Y-185721429D01*
X52536666Y-185816667D01*
X52536666Y-185935714D01*
X52512857Y-186030952D01*
X52489047Y-186078571D01*
X52465238Y-186102381D01*
X52417619Y-186126190D01*
X52370000Y-186126190D01*
X52322381Y-186102381D01*
X52298571Y-186078571D01*
X52274762Y-186030952D01*
X52250952Y-185935714D01*
X52250952Y-185816667D01*
X52274762Y-185721429D01*
X52298571Y-185673810D01*
X52322381Y-185650000D01*
X52370000Y-185626190D01*
X53131904Y-186126190D02*
X53131904Y-185626190D01*
X53179523Y-185935714D02*
X53322380Y-186126190D01*
X53322380Y-185792857D02*
X53131904Y-185983333D01*
X53631904Y-185626190D02*
X53727142Y-185626190D01*
X53774761Y-185650000D01*
X53822380Y-185697619D01*
X53846189Y-185792857D01*
X53846189Y-185959524D01*
X53822380Y-186054762D01*
X53774761Y-186102381D01*
X53727142Y-186126190D01*
X53631904Y-186126190D01*
X53584285Y-186102381D01*
X53536666Y-186054762D01*
X53512856Y-185959524D01*
X53512856Y-185792857D01*
X53536666Y-185697619D01*
X53584285Y-185650000D01*
X53631904Y-185626190D01*
X54060476Y-186126190D02*
X54060476Y-185626190D01*
X54274761Y-186126190D02*
X54274761Y-185864286D01*
X54250952Y-185816667D01*
X54203333Y-185792857D01*
X54131904Y-185792857D01*
X54084285Y-185816667D01*
X54060476Y-185840476D01*
X54512857Y-186126190D02*
X54512857Y-185792857D01*
X54512857Y-185840476D02*
X54536666Y-185816667D01*
X54584285Y-185792857D01*
X54655714Y-185792857D01*
X54703333Y-185816667D01*
X54727142Y-185864286D01*
X54727142Y-186126190D01*
X54727142Y-185864286D02*
X54750952Y-185816667D01*
X54798571Y-185792857D01*
X54869999Y-185792857D01*
X54917619Y-185816667D01*
X54941428Y-185864286D01*
X54941428Y-186126190D01*
D13*
X45255714Y-183766667D02*
X45731905Y-183766667D01*
X45160476Y-184052381D02*
X45493809Y-183052381D01*
X45827143Y-184052381D01*
X46350952Y-183052381D02*
X46446191Y-183052381D01*
X46541429Y-183100000D01*
X46589048Y-183147619D01*
X46636667Y-183242857D01*
X46684286Y-183433333D01*
X46684286Y-183671429D01*
X46636667Y-183861905D01*
X46589048Y-183957143D01*
X46541429Y-184004762D01*
X46446191Y-184052381D01*
X46350952Y-184052381D01*
X46255714Y-184004762D01*
X46208095Y-183957143D01*
X46160476Y-183861905D01*
X46112857Y-183671429D01*
X46112857Y-183433333D01*
X46160476Y-183242857D01*
X46208095Y-183147619D01*
X46255714Y-183100000D01*
X46350952Y-183052381D01*
X38093809Y-191033333D02*
X38046189Y-190985714D01*
X37950951Y-190842857D01*
X37903332Y-190747619D01*
X37855713Y-190604762D01*
X37808094Y-190366667D01*
X37808094Y-190176190D01*
X37855713Y-189938095D01*
X37903332Y-189795238D01*
X37950951Y-189700000D01*
X38046189Y-189557143D01*
X38093809Y-189509524D01*
X38331904Y-189985714D02*
X38712856Y-189985714D01*
X38474761Y-189652381D02*
X38474761Y-190509524D01*
X38522380Y-190604762D01*
X38617618Y-190652381D01*
X38712856Y-190652381D01*
X39046190Y-190652381D02*
X39046190Y-189652381D01*
X39474762Y-190652381D02*
X39474762Y-190128571D01*
X39427143Y-190033333D01*
X39331905Y-189985714D01*
X39189047Y-189985714D01*
X39093809Y-190033333D01*
X39046190Y-190080952D01*
X40331905Y-190604762D02*
X40236667Y-190652381D01*
X40046190Y-190652381D01*
X39950952Y-190604762D01*
X39903333Y-190509524D01*
X39903333Y-190128571D01*
X39950952Y-190033333D01*
X40046190Y-189985714D01*
X40236667Y-189985714D01*
X40331905Y-190033333D01*
X40379524Y-190128571D01*
X40379524Y-190223810D01*
X39903333Y-190319048D01*
X40808095Y-190652381D02*
X40808095Y-189985714D01*
X40808095Y-190176190D02*
X40855714Y-190080952D01*
X40903333Y-190033333D01*
X40998571Y-189985714D01*
X41093810Y-189985714D01*
X41427143Y-190652381D02*
X41427143Y-189985714D01*
X41427143Y-190080952D02*
X41474762Y-190033333D01*
X41570000Y-189985714D01*
X41712858Y-189985714D01*
X41808096Y-190033333D01*
X41855715Y-190128571D01*
X41855715Y-190652381D01*
X41855715Y-190128571D02*
X41903334Y-190033333D01*
X41998572Y-189985714D01*
X42141429Y-189985714D01*
X42236667Y-190033333D01*
X42284286Y-190128571D01*
X42284286Y-190652381D01*
X42760476Y-190652381D02*
X42760476Y-189985714D01*
X42760476Y-189652381D02*
X42712857Y-189700000D01*
X42760476Y-189747619D01*
X42808095Y-189700000D01*
X42760476Y-189652381D01*
X42760476Y-189747619D01*
X43189047Y-190604762D02*
X43284285Y-190652381D01*
X43474761Y-190652381D01*
X43570000Y-190604762D01*
X43617619Y-190509524D01*
X43617619Y-190461905D01*
X43570000Y-190366667D01*
X43474761Y-190319048D01*
X43331904Y-190319048D01*
X43236666Y-190271429D01*
X43189047Y-190176190D01*
X43189047Y-190128571D01*
X43236666Y-190033333D01*
X43331904Y-189985714D01*
X43474761Y-189985714D01*
X43570000Y-190033333D01*
X43903333Y-189985714D02*
X44284285Y-189985714D01*
X44046190Y-189652381D02*
X44046190Y-190509524D01*
X44093809Y-190604762D01*
X44189047Y-190652381D01*
X44284285Y-190652381D01*
X44760476Y-190652381D02*
X44665238Y-190604762D01*
X44617619Y-190557143D01*
X44570000Y-190461905D01*
X44570000Y-190176190D01*
X44617619Y-190080952D01*
X44665238Y-190033333D01*
X44760476Y-189985714D01*
X44903334Y-189985714D01*
X44998572Y-190033333D01*
X45046191Y-190080952D01*
X45093810Y-190176190D01*
X45093810Y-190461905D01*
X45046191Y-190557143D01*
X44998572Y-190604762D01*
X44903334Y-190652381D01*
X44760476Y-190652381D01*
X45522381Y-190652381D02*
X45522381Y-189985714D01*
X45522381Y-190176190D02*
X45570000Y-190080952D01*
X45617619Y-190033333D01*
X45712857Y-189985714D01*
X45808096Y-189985714D01*
X46046191Y-191033333D02*
X46093810Y-190985714D01*
X46189048Y-190842857D01*
X46236667Y-190747619D01*
X46284286Y-190604762D01*
X46331905Y-190366667D01*
X46331905Y-190176190D01*
X46284286Y-189938095D01*
X46236667Y-189795238D01*
X46189048Y-189700000D01*
X46093810Y-189557143D01*
X46046191Y-189509524D01*
X39531905Y-178785714D02*
X39912857Y-178785714D01*
X39674762Y-178452381D02*
X39674762Y-179309524D01*
X39722381Y-179404762D01*
X39817619Y-179452381D01*
X39912857Y-179452381D01*
X40627144Y-179404762D02*
X40531906Y-179452381D01*
X40341429Y-179452381D01*
X40246191Y-179404762D01*
X40198572Y-179309524D01*
X40198572Y-178928571D01*
X40246191Y-178833333D01*
X40341429Y-178785714D01*
X40531906Y-178785714D01*
X40627144Y-178833333D01*
X40674763Y-178928571D01*
X40674763Y-179023810D01*
X40198572Y-179119048D01*
X41103334Y-179452381D02*
X41103334Y-178785714D01*
X41103334Y-178880952D02*
X41150953Y-178833333D01*
X41246191Y-178785714D01*
X41389049Y-178785714D01*
X41484287Y-178833333D01*
X41531906Y-178928571D01*
X41531906Y-179452381D01*
X41531906Y-178928571D02*
X41579525Y-178833333D01*
X41674763Y-178785714D01*
X41817620Y-178785714D01*
X41912858Y-178833333D01*
X41960477Y-178928571D01*
X41960477Y-179452381D01*
X42436667Y-178785714D02*
X42436667Y-179785714D01*
X42436667Y-178833333D02*
X42531905Y-178785714D01*
X42722382Y-178785714D01*
X42817620Y-178833333D01*
X42865239Y-178880952D01*
X42912858Y-178976190D01*
X42912858Y-179261905D01*
X42865239Y-179357143D01*
X42817620Y-179404762D01*
X42722382Y-179452381D01*
X42531905Y-179452381D01*
X42436667Y-179404762D01*
X39008095Y-181004762D02*
X39103333Y-181052381D01*
X39293809Y-181052381D01*
X39389048Y-181004762D01*
X39436667Y-180909524D01*
X39436667Y-180861905D01*
X39389048Y-180766667D01*
X39293809Y-180719048D01*
X39150952Y-180719048D01*
X39055714Y-180671429D01*
X39008095Y-180576190D01*
X39008095Y-180528571D01*
X39055714Y-180433333D01*
X39150952Y-180385714D01*
X39293809Y-180385714D01*
X39389048Y-180433333D01*
X40246191Y-181004762D02*
X40150953Y-181052381D01*
X39960476Y-181052381D01*
X39865238Y-181004762D01*
X39817619Y-180909524D01*
X39817619Y-180528571D01*
X39865238Y-180433333D01*
X39960476Y-180385714D01*
X40150953Y-180385714D01*
X40246191Y-180433333D01*
X40293810Y-180528571D01*
X40293810Y-180623810D01*
X39817619Y-180719048D01*
X40722381Y-180385714D02*
X40722381Y-181052381D01*
X40722381Y-180480952D02*
X40770000Y-180433333D01*
X40865238Y-180385714D01*
X41008096Y-180385714D01*
X41103334Y-180433333D01*
X41150953Y-180528571D01*
X41150953Y-181052381D01*
X41579524Y-181004762D02*
X41674762Y-181052381D01*
X41865238Y-181052381D01*
X41960477Y-181004762D01*
X42008096Y-180909524D01*
X42008096Y-180861905D01*
X41960477Y-180766667D01*
X41865238Y-180719048D01*
X41722381Y-180719048D01*
X41627143Y-180671429D01*
X41579524Y-180576190D01*
X41579524Y-180528571D01*
X41627143Y-180433333D01*
X41722381Y-180385714D01*
X41865238Y-180385714D01*
X41960477Y-180433333D01*
X42579524Y-181052381D02*
X42484286Y-181004762D01*
X42436667Y-180957143D01*
X42389048Y-180861905D01*
X42389048Y-180576190D01*
X42436667Y-180480952D01*
X42484286Y-180433333D01*
X42579524Y-180385714D01*
X42722382Y-180385714D01*
X42817620Y-180433333D01*
X42865239Y-180480952D01*
X42912858Y-180576190D01*
X42912858Y-180861905D01*
X42865239Y-180957143D01*
X42817620Y-181004762D01*
X42722382Y-181052381D01*
X42579524Y-181052381D01*
X43341429Y-181052381D02*
X43341429Y-180385714D01*
X43341429Y-180576190D02*
X43389048Y-180480952D01*
X43436667Y-180433333D01*
X43531905Y-180385714D01*
X43627144Y-180385714D01*
X45708096Y-186700000D02*
X45612858Y-186652381D01*
X45470001Y-186652381D01*
X45327143Y-186700000D01*
X45231905Y-186795238D01*
X45184286Y-186890476D01*
X45136667Y-187080952D01*
X45136667Y-187223810D01*
X45184286Y-187414286D01*
X45231905Y-187509524D01*
X45327143Y-187604762D01*
X45470001Y-187652381D01*
X45565239Y-187652381D01*
X45708096Y-187604762D01*
X45755715Y-187557143D01*
X45755715Y-187223810D01*
X45565239Y-187223810D01*
X46184286Y-187652381D02*
X46184286Y-186652381D01*
X46755715Y-187652381D01*
X46755715Y-186652381D01*
X47231905Y-187652381D02*
X47231905Y-186652381D01*
X47470000Y-186652381D01*
X47612858Y-186700000D01*
X47708096Y-186795238D01*
X47755715Y-186890476D01*
X47803334Y-187080952D01*
X47803334Y-187223810D01*
X47755715Y-187414286D01*
X47708096Y-187509524D01*
X47612858Y-187604762D01*
X47470000Y-187652381D01*
X47231905Y-187652381D01*
X45750953Y-151252381D02*
X45179524Y-151252381D01*
X45465238Y-151252381D02*
X45465238Y-150252381D01*
X45370000Y-150395238D01*
X45274762Y-150490476D01*
X45179524Y-150538095D01*
X46131905Y-150347619D02*
X46179524Y-150300000D01*
X46274762Y-150252381D01*
X46512858Y-150252381D01*
X46608096Y-150300000D01*
X46655715Y-150347619D01*
X46703334Y-150442857D01*
X46703334Y-150538095D01*
X46655715Y-150680952D01*
X46084286Y-151252381D01*
X46703334Y-151252381D01*
X46989048Y-150252381D02*
X47322381Y-151252381D01*
X47655715Y-150252381D01*
X45608096Y-146900000D02*
X45512858Y-146852381D01*
X45370001Y-146852381D01*
X45227143Y-146900000D01*
X45131905Y-146995238D01*
X45084286Y-147090476D01*
X45036667Y-147280952D01*
X45036667Y-147423810D01*
X45084286Y-147614286D01*
X45131905Y-147709524D01*
X45227143Y-147804762D01*
X45370001Y-147852381D01*
X45465239Y-147852381D01*
X45608096Y-147804762D01*
X45655715Y-147757143D01*
X45655715Y-147423810D01*
X45465239Y-147423810D01*
X46084286Y-147852381D02*
X46084286Y-146852381D01*
X46655715Y-147852381D01*
X46655715Y-146852381D01*
X47131905Y-147852381D02*
X47131905Y-146852381D01*
X47370000Y-146852381D01*
X47512858Y-146900000D01*
X47608096Y-146995238D01*
X47655715Y-147090476D01*
X47703334Y-147280952D01*
X47703334Y-147423810D01*
X47655715Y-147614286D01*
X47608096Y-147709524D01*
X47512858Y-147804762D01*
X47370000Y-147852381D01*
X47131905Y-147852381D01*
X45750953Y-164252381D02*
X45179524Y-164252381D01*
X45465238Y-164252381D02*
X45465238Y-163252381D01*
X45370000Y-163395238D01*
X45274762Y-163490476D01*
X45179524Y-163538095D01*
X46131905Y-163347619D02*
X46179524Y-163300000D01*
X46274762Y-163252381D01*
X46512858Y-163252381D01*
X46608096Y-163300000D01*
X46655715Y-163347619D01*
X46703334Y-163442857D01*
X46703334Y-163538095D01*
X46655715Y-163680952D01*
X46084286Y-164252381D01*
X46703334Y-164252381D01*
X46989048Y-163252381D02*
X47322381Y-164252381D01*
X47655715Y-163252381D01*
X45303333Y-166885714D02*
X45303333Y-167885714D01*
X45303333Y-166933333D02*
X45398571Y-166885714D01*
X45589048Y-166885714D01*
X45684286Y-166933333D01*
X45731905Y-166980952D01*
X45779524Y-167076190D01*
X45779524Y-167361905D01*
X45731905Y-167457143D01*
X45684286Y-167504762D01*
X45589048Y-167552381D01*
X45398571Y-167552381D01*
X45303333Y-167504762D01*
X46731905Y-167552381D02*
X46160476Y-167552381D01*
X46446190Y-167552381D02*
X46446190Y-166552381D01*
X46350952Y-166695238D01*
X46255714Y-166790476D01*
X46160476Y-166838095D01*
X47065238Y-166552381D02*
X47684286Y-166552381D01*
X47350952Y-166933333D01*
X47493810Y-166933333D01*
X47589048Y-166980952D01*
X47636667Y-167028571D01*
X47684286Y-167123810D01*
X47684286Y-167361905D01*
X47636667Y-167457143D01*
X47589048Y-167504762D01*
X47493810Y-167552381D01*
X47208095Y-167552381D01*
X47112857Y-167504762D01*
X47065238Y-167457143D01*
X45808096Y-160100000D02*
X45712858Y-160052381D01*
X45570001Y-160052381D01*
X45427143Y-160100000D01*
X45331905Y-160195238D01*
X45284286Y-160290476D01*
X45236667Y-160480952D01*
X45236667Y-160623810D01*
X45284286Y-160814286D01*
X45331905Y-160909524D01*
X45427143Y-161004762D01*
X45570001Y-161052381D01*
X45665239Y-161052381D01*
X45808096Y-161004762D01*
X45855715Y-160957143D01*
X45855715Y-160623810D01*
X45665239Y-160623810D01*
X46284286Y-161052381D02*
X46284286Y-160052381D01*
X46855715Y-161052381D01*
X46855715Y-160052381D01*
X47331905Y-161052381D02*
X47331905Y-160052381D01*
X47570000Y-160052381D01*
X47712858Y-160100000D01*
X47808096Y-160195238D01*
X47855715Y-160290476D01*
X47903334Y-160480952D01*
X47903334Y-160623810D01*
X47855715Y-160814286D01*
X47808096Y-160909524D01*
X47712858Y-161004762D01*
X47570000Y-161052381D01*
X47331905Y-161052381D01*
X45250952Y-153885714D02*
X45250952Y-154885714D01*
X45250952Y-153933333D02*
X45346190Y-153885714D01*
X45536667Y-153885714D01*
X45631905Y-153933333D01*
X45679524Y-153980952D01*
X45727143Y-154076190D01*
X45727143Y-154361905D01*
X45679524Y-154457143D01*
X45631905Y-154504762D01*
X45536667Y-154552381D01*
X45346190Y-154552381D01*
X45250952Y-154504762D01*
X46108095Y-154266667D02*
X46584286Y-154266667D01*
X46012857Y-154552381D02*
X46346190Y-153552381D01*
X46679524Y-154552381D01*
X47536667Y-154552381D02*
X46965238Y-154552381D01*
X47250952Y-154552381D02*
X47250952Y-153552381D01*
X47155714Y-153695238D01*
X47060476Y-153790476D01*
X46965238Y-153838095D01*
X60758096Y-133150000D02*
X60662858Y-133102381D01*
X60520001Y-133102381D01*
X60377143Y-133150000D01*
X60281905Y-133245238D01*
X60234286Y-133340476D01*
X60186667Y-133530952D01*
X60186667Y-133673810D01*
X60234286Y-133864286D01*
X60281905Y-133959524D01*
X60377143Y-134054762D01*
X60520001Y-134102381D01*
X60615239Y-134102381D01*
X60758096Y-134054762D01*
X60805715Y-134007143D01*
X60805715Y-133673810D01*
X60615239Y-133673810D01*
X61234286Y-134102381D02*
X61234286Y-133102381D01*
X61805715Y-134102381D01*
X61805715Y-133102381D01*
X62281905Y-134102381D02*
X62281905Y-133102381D01*
X62520000Y-133102381D01*
X62662858Y-133150000D01*
X62758096Y-133245238D01*
X62805715Y-133340476D01*
X62853334Y-133530952D01*
X62853334Y-133673810D01*
X62805715Y-133864286D01*
X62758096Y-133959524D01*
X62662858Y-134054762D01*
X62520000Y-134102381D01*
X62281905Y-134102381D01*
X60158095Y-131171429D02*
X60920000Y-131171429D01*
X60539048Y-131552381D02*
X60539048Y-130790476D01*
X61920000Y-131552381D02*
X61348571Y-131552381D01*
X61634285Y-131552381D02*
X61634285Y-130552381D01*
X61539047Y-130695238D01*
X61443809Y-130790476D01*
X61348571Y-130838095D01*
X62300952Y-130647619D02*
X62348571Y-130600000D01*
X62443809Y-130552381D01*
X62681905Y-130552381D01*
X62777143Y-130600000D01*
X62824762Y-130647619D01*
X62872381Y-130742857D01*
X62872381Y-130838095D01*
X62824762Y-130980952D01*
X62253333Y-131552381D01*
X62872381Y-131552381D01*
X63158095Y-130552381D02*
X63491428Y-131552381D01*
X63824762Y-130552381D01*
X60324761Y-128535714D02*
X60705713Y-128535714D01*
X60467618Y-129202381D02*
X60467618Y-128345238D01*
X60515237Y-128250000D01*
X60610475Y-128202381D01*
X60705713Y-128202381D01*
X61467619Y-129202381D02*
X61467619Y-128678571D01*
X61420000Y-128583333D01*
X61324762Y-128535714D01*
X61134285Y-128535714D01*
X61039047Y-128583333D01*
X61467619Y-129154762D02*
X61372381Y-129202381D01*
X61134285Y-129202381D01*
X61039047Y-129154762D01*
X60991428Y-129059524D01*
X60991428Y-128964286D01*
X61039047Y-128869048D01*
X61134285Y-128821429D01*
X61372381Y-128821429D01*
X61467619Y-128773810D01*
X61943809Y-128535714D02*
X61943809Y-129202381D01*
X61943809Y-128630952D02*
X61991428Y-128583333D01*
X62086666Y-128535714D01*
X62229524Y-128535714D01*
X62324762Y-128583333D01*
X62372381Y-128678571D01*
X62372381Y-129202381D01*
X63467619Y-128535714D02*
X63848571Y-128535714D01*
X63610476Y-128202381D02*
X63610476Y-129059524D01*
X63658095Y-129154762D01*
X63753333Y-129202381D01*
X63848571Y-129202381D01*
X64610477Y-129202381D02*
X64610477Y-128678571D01*
X64562858Y-128583333D01*
X64467620Y-128535714D01*
X64277143Y-128535714D01*
X64181905Y-128583333D01*
X64610477Y-129154762D02*
X64515239Y-129202381D01*
X64277143Y-129202381D01*
X64181905Y-129154762D01*
X64134286Y-129059524D01*
X64134286Y-128964286D01*
X64181905Y-128869048D01*
X64277143Y-128821429D01*
X64515239Y-128821429D01*
X64610477Y-128773810D01*
X65515239Y-129154762D02*
X65420001Y-129202381D01*
X65229524Y-129202381D01*
X65134286Y-129154762D01*
X65086667Y-129107143D01*
X65039048Y-129011905D01*
X65039048Y-128726190D01*
X65086667Y-128630952D01*
X65134286Y-128583333D01*
X65229524Y-128535714D01*
X65420001Y-128535714D01*
X65515239Y-128583333D01*
X65943810Y-129202381D02*
X65943810Y-128202381D01*
X66372382Y-129202381D02*
X66372382Y-128678571D01*
X66324763Y-128583333D01*
X66229525Y-128535714D01*
X66086667Y-128535714D01*
X65991429Y-128583333D01*
X65943810Y-128630952D01*
X60300952Y-125785714D02*
X60681904Y-125785714D01*
X60443809Y-126452381D02*
X60443809Y-125595238D01*
X60491428Y-125500000D01*
X60586666Y-125452381D01*
X60681904Y-125452381D01*
X61443810Y-126452381D02*
X61443810Y-125928571D01*
X61396191Y-125833333D01*
X61300953Y-125785714D01*
X61110476Y-125785714D01*
X61015238Y-125833333D01*
X61443810Y-126404762D02*
X61348572Y-126452381D01*
X61110476Y-126452381D01*
X61015238Y-126404762D01*
X60967619Y-126309524D01*
X60967619Y-126214286D01*
X61015238Y-126119048D01*
X61110476Y-126071429D01*
X61348572Y-126071429D01*
X61443810Y-126023810D01*
X61920000Y-125785714D02*
X61920000Y-126452381D01*
X61920000Y-125880952D02*
X61967619Y-125833333D01*
X62062857Y-125785714D01*
X62205715Y-125785714D01*
X62300953Y-125833333D01*
X62348572Y-125928571D01*
X62348572Y-126452381D01*
X63586667Y-125785714D02*
X63586667Y-126785714D01*
X63586667Y-125833333D02*
X63681905Y-125785714D01*
X63872382Y-125785714D01*
X63967620Y-125833333D01*
X64015239Y-125880952D01*
X64062858Y-125976190D01*
X64062858Y-126261905D01*
X64015239Y-126357143D01*
X63967620Y-126404762D01*
X63872382Y-126452381D01*
X63681905Y-126452381D01*
X63586667Y-126404762D01*
X64396191Y-125785714D02*
X64586667Y-126452381D01*
X64777144Y-125976190D01*
X64967620Y-126452381D01*
X65158096Y-125785714D01*
X65539048Y-126452381D02*
X65539048Y-125785714D01*
X65539048Y-125880952D02*
X65586667Y-125833333D01*
X65681905Y-125785714D01*
X65824763Y-125785714D01*
X65920001Y-125833333D01*
X65967620Y-125928571D01*
X65967620Y-126452381D01*
X65967620Y-125928571D02*
X66015239Y-125833333D01*
X66110477Y-125785714D01*
X66253334Y-125785714D01*
X66348572Y-125833333D01*
X66396191Y-125928571D01*
X66396191Y-126452381D01*
D12*
X37870001Y-124307143D02*
X39012858Y-124307143D01*
X38441429Y-124878571D02*
X38441429Y-123735714D01*
X40512858Y-124878571D02*
X39655715Y-124878571D01*
X40084287Y-124878571D02*
X40084287Y-123378571D01*
X39941430Y-123592857D01*
X39798572Y-123735714D01*
X39655715Y-123807143D01*
X41084286Y-123521429D02*
X41155715Y-123450000D01*
X41298572Y-123378571D01*
X41655715Y-123378571D01*
X41798572Y-123450000D01*
X41870001Y-123521429D01*
X41941429Y-123664286D01*
X41941429Y-123807143D01*
X41870001Y-124021429D01*
X41012858Y-124878571D01*
X41941429Y-124878571D01*
X42370000Y-123378571D02*
X42870000Y-124878571D01*
X43370000Y-123378571D01*
X45441428Y-125450000D02*
X45370000Y-125378571D01*
X45227143Y-125164286D01*
X45155714Y-125021429D01*
X45084285Y-124807143D01*
X45012857Y-124450000D01*
X45012857Y-124164286D01*
X45084285Y-123807143D01*
X45155714Y-123592857D01*
X45227143Y-123450000D01*
X45370000Y-123235714D01*
X45441428Y-123164286D01*
X45798571Y-123878571D02*
X46370000Y-123878571D01*
X46012857Y-124878571D02*
X46012857Y-123592857D01*
X46084285Y-123450000D01*
X46227143Y-123378571D01*
X46370000Y-123378571D01*
X47512857Y-124878571D02*
X47512857Y-124092857D01*
X47441428Y-123950000D01*
X47298571Y-123878571D01*
X47012857Y-123878571D01*
X46870000Y-123950000D01*
X47512857Y-124807143D02*
X47370000Y-124878571D01*
X47012857Y-124878571D01*
X46870000Y-124807143D01*
X46798571Y-124664286D01*
X46798571Y-124521429D01*
X46870000Y-124378571D01*
X47012857Y-124307143D01*
X47370000Y-124307143D01*
X47512857Y-124235714D01*
X48227143Y-123878571D02*
X48227143Y-124878571D01*
X48227143Y-124021429D02*
X48298571Y-123950000D01*
X48441429Y-123878571D01*
X48655714Y-123878571D01*
X48798571Y-123950000D01*
X48870000Y-124092857D01*
X48870000Y-124878571D01*
X49441429Y-125450000D02*
X49512857Y-125378571D01*
X49655714Y-125164286D01*
X49727143Y-125021429D01*
X49798572Y-124807143D01*
X49870000Y-124450000D01*
X49870000Y-124164286D01*
X49798572Y-123807143D01*
X49727143Y-123592857D01*
X49655714Y-123450000D01*
X49512857Y-123235714D01*
X49441429Y-123164286D01*
D13*
X117684129Y-171400000D02*
G75*
G03X117684129Y-171400000I-3214129J0D01*
G01*
X197645000Y-171400000D02*
G75*
G03X197645000Y-171400000I-3175000J0D01*
G01*
X197645000Y-91400000D02*
G75*
G03X197645000Y-91400000I-3175000J0D01*
G01*
X117645000Y-91400000D02*
G75*
G03X117645000Y-91400000I-3175000J0D01*
G01*
D12*
X38362858Y-74078571D02*
X39505715Y-74507143D01*
X38362858Y-74935714D01*
X40220001Y-74507143D02*
X41362858Y-74507143D01*
X40791429Y-75078571D02*
X40791429Y-73935714D01*
X41934287Y-73578571D02*
X42934287Y-73578571D01*
X42291430Y-75078571D01*
X43291429Y-73578571D02*
X43791429Y-75078571D01*
X44291429Y-73578571D01*
X46362857Y-75650000D02*
X46291429Y-75578571D01*
X46148572Y-75364286D01*
X46077143Y-75221429D01*
X46005714Y-75007143D01*
X45934286Y-74650000D01*
X45934286Y-74364286D01*
X46005714Y-74007143D01*
X46077143Y-73792857D01*
X46148572Y-73650000D01*
X46291429Y-73435714D01*
X46362857Y-73364286D01*
X46862857Y-74650000D02*
X47577143Y-74650000D01*
X46720000Y-75078571D02*
X47220000Y-73578571D01*
X47720000Y-75078571D01*
X48220000Y-75078571D02*
X48220000Y-74078571D01*
X48220000Y-74364286D02*
X48291428Y-74221429D01*
X48362857Y-74150000D01*
X48505714Y-74078571D01*
X48648571Y-74078571D01*
X49791428Y-75078571D02*
X49791428Y-73578571D01*
X49791428Y-75007143D02*
X49648571Y-75078571D01*
X49362857Y-75078571D01*
X49219999Y-75007143D01*
X49148571Y-74935714D01*
X49077142Y-74792857D01*
X49077142Y-74364286D01*
X49148571Y-74221429D01*
X49219999Y-74150000D01*
X49362857Y-74078571D01*
X49648571Y-74078571D01*
X49791428Y-74150000D01*
X51148571Y-74078571D02*
X51148571Y-75078571D01*
X50505714Y-74078571D02*
X50505714Y-74864286D01*
X50577142Y-75007143D01*
X50720000Y-75078571D01*
X50934285Y-75078571D01*
X51077142Y-75007143D01*
X51148571Y-74935714D01*
X51862857Y-75078571D02*
X51862857Y-74078571D01*
X51862857Y-73578571D02*
X51791428Y-73650000D01*
X51862857Y-73721429D01*
X51934285Y-73650000D01*
X51862857Y-73578571D01*
X51862857Y-73721429D01*
X52577143Y-74078571D02*
X52577143Y-75078571D01*
X52577143Y-74221429D02*
X52648571Y-74150000D01*
X52791429Y-74078571D01*
X53005714Y-74078571D01*
X53148571Y-74150000D01*
X53220000Y-74292857D01*
X53220000Y-75078571D01*
X54148572Y-75078571D02*
X54005714Y-75007143D01*
X53934286Y-74935714D01*
X53862857Y-74792857D01*
X53862857Y-74364286D01*
X53934286Y-74221429D01*
X54005714Y-74150000D01*
X54148572Y-74078571D01*
X54362857Y-74078571D01*
X54505714Y-74150000D01*
X54577143Y-74221429D01*
X54648572Y-74364286D01*
X54648572Y-74792857D01*
X54577143Y-74935714D01*
X54505714Y-75007143D01*
X54362857Y-75078571D01*
X54148572Y-75078571D01*
X55148572Y-75650000D02*
X55220000Y-75578571D01*
X55362857Y-75364286D01*
X55434286Y-75221429D01*
X55505715Y-75007143D01*
X55577143Y-74650000D01*
X55577143Y-74364286D01*
X55505715Y-74007143D01*
X55434286Y-73792857D01*
X55362857Y-73650000D01*
X55220000Y-73435714D01*
X55148572Y-73364286D01*
D14*
X53246191Y-192504762D02*
X53055715Y-192409524D01*
X52960476Y-192314286D01*
X52865238Y-192123810D01*
X52865238Y-191552381D01*
X52960476Y-191361905D01*
X53055715Y-191266667D01*
X53246191Y-191171429D01*
X53531905Y-191171429D01*
X53722381Y-191266667D01*
X53817619Y-191361905D01*
X53912857Y-191552381D01*
X53912857Y-192123810D01*
X53817619Y-192314286D01*
X53722381Y-192409524D01*
X53531905Y-192504762D01*
X53246191Y-192504762D01*
X54770000Y-191171429D02*
X54770000Y-193171429D01*
X54770000Y-191266667D02*
X54960477Y-191171429D01*
X55341429Y-191171429D01*
X55531905Y-191266667D01*
X55627143Y-191361905D01*
X55722381Y-191552381D01*
X55722381Y-192123810D01*
X55627143Y-192314286D01*
X55531905Y-192409524D01*
X55341429Y-192504762D01*
X54960477Y-192504762D01*
X54770000Y-192409524D01*
X56293810Y-191171429D02*
X57055715Y-191171429D01*
X56579524Y-190504762D02*
X56579524Y-192219048D01*
X56674763Y-192409524D01*
X56865239Y-192504762D01*
X57055715Y-192504762D01*
X58008096Y-192504762D02*
X57817620Y-192409524D01*
X57722381Y-192314286D01*
X57627143Y-192123810D01*
X57627143Y-191552381D01*
X57722381Y-191361905D01*
X57817620Y-191266667D01*
X58008096Y-191171429D01*
X58293810Y-191171429D01*
X58484286Y-191266667D01*
X58579524Y-191361905D01*
X58674762Y-191552381D01*
X58674762Y-192123810D01*
X58579524Y-192314286D01*
X58484286Y-192409524D01*
X58293810Y-192504762D01*
X58008096Y-192504762D01*
X59531905Y-192504762D02*
X59531905Y-190504762D01*
X60293810Y-190504762D01*
X60484286Y-190600000D01*
X60579525Y-190695238D01*
X60674763Y-190885714D01*
X60674763Y-191171429D01*
X60579525Y-191361905D01*
X60484286Y-191457143D01*
X60293810Y-191552381D01*
X59531905Y-191552381D01*
X61817620Y-192504762D02*
X61627144Y-192409524D01*
X61531905Y-192219048D01*
X61531905Y-190504762D01*
X63436667Y-192504762D02*
X63436667Y-191457143D01*
X63341429Y-191266667D01*
X63150953Y-191171429D01*
X62770001Y-191171429D01*
X62579524Y-191266667D01*
X63436667Y-192409524D02*
X63246191Y-192504762D01*
X62770001Y-192504762D01*
X62579524Y-192409524D01*
X62484286Y-192219048D01*
X62484286Y-192028571D01*
X62579524Y-191838095D01*
X62770001Y-191742857D01*
X63246191Y-191742857D01*
X63436667Y-191647619D01*
X64103334Y-191171429D02*
X64865239Y-191171429D01*
X64389048Y-190504762D02*
X64389048Y-192219048D01*
X64484287Y-192409524D01*
X64674763Y-192504762D01*
X64865239Y-192504762D01*
X66293810Y-192409524D02*
X66103334Y-192504762D01*
X65722382Y-192504762D01*
X65531905Y-192409524D01*
X65436667Y-192219048D01*
X65436667Y-191457143D01*
X65531905Y-191266667D01*
X65722382Y-191171429D01*
X66103334Y-191171429D01*
X66293810Y-191266667D01*
X66389048Y-191457143D01*
X66389048Y-191647619D01*
X65436667Y-191838095D01*
X67246191Y-191742857D02*
X68770001Y-191742857D01*
X69817620Y-192504762D02*
X70198572Y-192504762D01*
X70389048Y-192409524D01*
X70484286Y-192314286D01*
X70674762Y-192028571D01*
X70770001Y-191647619D01*
X70770001Y-190885714D01*
X70674762Y-190695238D01*
X70579524Y-190600000D01*
X70389048Y-190504762D01*
X70008096Y-190504762D01*
X69817620Y-190600000D01*
X69722381Y-190695238D01*
X69627143Y-190885714D01*
X69627143Y-191361905D01*
X69722381Y-191552381D01*
X69817620Y-191647619D01*
X70008096Y-191742857D01*
X70389048Y-191742857D01*
X70579524Y-191647619D01*
X70674762Y-191552381D01*
X70770001Y-191361905D01*
X72484286Y-190504762D02*
X72103334Y-190504762D01*
X71912858Y-190600000D01*
X71817620Y-190695238D01*
X71627143Y-190980952D01*
X71531905Y-191361905D01*
X71531905Y-192123810D01*
X71627143Y-192314286D01*
X71722382Y-192409524D01*
X71912858Y-192504762D01*
X72293810Y-192504762D01*
X72484286Y-192409524D01*
X72579524Y-192314286D01*
X72674763Y-192123810D01*
X72674763Y-191647619D01*
X72579524Y-191457143D01*
X72484286Y-191361905D01*
X72293810Y-191266667D01*
X71912858Y-191266667D01*
X71722382Y-191361905D01*
X71627143Y-191457143D01*
X71531905Y-191647619D01*
X53055713Y-193704762D02*
X54293809Y-193704762D01*
X53627142Y-194466667D01*
X53912856Y-194466667D01*
X54103332Y-194561905D01*
X54198570Y-194657143D01*
X54293809Y-194847619D01*
X54293809Y-195323810D01*
X54198570Y-195514286D01*
X54103332Y-195609524D01*
X53912856Y-195704762D01*
X53341428Y-195704762D01*
X53150951Y-195609524D01*
X53055713Y-195514286D01*
X57531904Y-195609524D02*
X57341428Y-195704762D01*
X56960476Y-195704762D01*
X56770000Y-195609524D01*
X56674761Y-195514286D01*
X56579523Y-195323810D01*
X56579523Y-194752381D01*
X56674761Y-194561905D01*
X56770000Y-194466667D01*
X56960476Y-194371429D01*
X57341428Y-194371429D01*
X57531904Y-194466667D01*
X58674762Y-195704762D02*
X58484286Y-195609524D01*
X58389047Y-195514286D01*
X58293809Y-195323810D01*
X58293809Y-194752381D01*
X58389047Y-194561905D01*
X58484286Y-194466667D01*
X58674762Y-194371429D01*
X58960476Y-194371429D01*
X59150952Y-194466667D01*
X59246190Y-194561905D01*
X59341428Y-194752381D01*
X59341428Y-195323810D01*
X59246190Y-195514286D01*
X59150952Y-195609524D01*
X58960476Y-195704762D01*
X58674762Y-195704762D01*
X60484286Y-195704762D02*
X60293810Y-195609524D01*
X60198571Y-195419048D01*
X60198571Y-193704762D01*
X61531905Y-195704762D02*
X61341429Y-195609524D01*
X61246190Y-195514286D01*
X61150952Y-195323810D01*
X61150952Y-194752381D01*
X61246190Y-194561905D01*
X61341429Y-194466667D01*
X61531905Y-194371429D01*
X61817619Y-194371429D01*
X62008095Y-194466667D01*
X62103333Y-194561905D01*
X62198571Y-194752381D01*
X62198571Y-195323810D01*
X62103333Y-195514286D01*
X62008095Y-195609524D01*
X61817619Y-195704762D01*
X61531905Y-195704762D01*
X63055714Y-195704762D02*
X63055714Y-194371429D01*
X63055714Y-194752381D02*
X63150953Y-194561905D01*
X63246191Y-194466667D01*
X63436667Y-194371429D01*
X63627143Y-194371429D01*
X64389048Y-195609524D02*
X64389048Y-195704762D01*
X64293809Y-195895238D01*
X64198571Y-195990476D01*
X66579524Y-194371429D02*
X67055715Y-195704762D01*
X67531905Y-194371429D01*
X68293810Y-195514286D02*
X68389049Y-195609524D01*
X68293810Y-195704762D01*
X68198572Y-195609524D01*
X68293810Y-195514286D01*
X68293810Y-195704762D01*
X70103334Y-194371429D02*
X70103334Y-195704762D01*
X69627144Y-193609524D02*
X69150953Y-195038095D01*
X70389049Y-195038095D01*
X71150953Y-195704762D02*
X71150953Y-193704762D01*
X71150953Y-194657143D02*
X72293811Y-194657143D01*
X72293811Y-195704762D02*
X72293811Y-193704762D01*
X52531904Y-197857143D02*
X52817618Y-197952381D01*
X52912857Y-198047619D01*
X53008095Y-198238095D01*
X53008095Y-198523810D01*
X52912857Y-198714286D01*
X52817618Y-198809524D01*
X52627142Y-198904762D01*
X51865237Y-198904762D01*
X51865237Y-196904762D01*
X52531904Y-196904762D01*
X52722380Y-197000000D01*
X52817618Y-197095238D01*
X52912857Y-197285714D01*
X52912857Y-197476190D01*
X52817618Y-197666667D01*
X52722380Y-197761905D01*
X52531904Y-197857143D01*
X51865237Y-197857143D01*
X54722380Y-197571429D02*
X54722380Y-198904762D01*
X53865237Y-197571429D02*
X53865237Y-198619048D01*
X53960476Y-198809524D01*
X54150952Y-198904762D01*
X54436666Y-198904762D01*
X54627142Y-198809524D01*
X54722380Y-198714286D01*
X56531904Y-197571429D02*
X56531904Y-199190476D01*
X56436666Y-199380952D01*
X56341428Y-199476190D01*
X56150952Y-199571429D01*
X55865238Y-199571429D01*
X55674761Y-199476190D01*
X56531904Y-198809524D02*
X56341428Y-198904762D01*
X55960476Y-198904762D01*
X55770000Y-198809524D01*
X55674761Y-198714286D01*
X55579523Y-198523810D01*
X55579523Y-197952381D01*
X55674761Y-197761905D01*
X55770000Y-197666667D01*
X55960476Y-197571429D01*
X56341428Y-197571429D01*
X56531904Y-197666667D01*
X58341428Y-198904762D02*
X58341428Y-197857143D01*
X58246190Y-197666667D01*
X58055714Y-197571429D01*
X57674762Y-197571429D01*
X57484285Y-197666667D01*
X58341428Y-198809524D02*
X58150952Y-198904762D01*
X57674762Y-198904762D01*
X57484285Y-198809524D01*
X57389047Y-198619048D01*
X57389047Y-198428571D01*
X57484285Y-198238095D01*
X57674762Y-198142857D01*
X58150952Y-198142857D01*
X58341428Y-198047619D01*
X59293809Y-197571429D02*
X59293809Y-199285714D01*
X59198571Y-199476190D01*
X59008095Y-199571429D01*
X58912857Y-199571429D01*
X59293809Y-196904762D02*
X59198571Y-197000000D01*
X59293809Y-197095238D01*
X59389048Y-197000000D01*
X59293809Y-196904762D01*
X59293809Y-197095238D01*
X61198571Y-198904762D02*
X60246190Y-198904762D01*
X60246190Y-196904762D01*
X62722381Y-198904762D02*
X62722381Y-197857143D01*
X62627143Y-197666667D01*
X62436667Y-197571429D01*
X62055715Y-197571429D01*
X61865238Y-197666667D01*
X62722381Y-198809524D02*
X62531905Y-198904762D01*
X62055715Y-198904762D01*
X61865238Y-198809524D01*
X61770000Y-198619048D01*
X61770000Y-198428571D01*
X61865238Y-198238095D01*
X62055715Y-198142857D01*
X62531905Y-198142857D01*
X62722381Y-198047619D01*
X63674762Y-198904762D02*
X63674762Y-196904762D01*
X63674762Y-197666667D02*
X63865239Y-197571429D01*
X64246191Y-197571429D01*
X64436667Y-197666667D01*
X64531905Y-197761905D01*
X64627143Y-197952381D01*
X64627143Y-198523810D01*
X64531905Y-198714286D01*
X64436667Y-198809524D01*
X64246191Y-198904762D01*
X63865239Y-198904762D01*
X63674762Y-198809524D01*
X66912858Y-197095238D02*
X67008096Y-197000000D01*
X67198573Y-196904762D01*
X67674763Y-196904762D01*
X67865239Y-197000000D01*
X67960477Y-197095238D01*
X68055716Y-197285714D01*
X68055716Y-197476190D01*
X67960477Y-197761905D01*
X66817620Y-198904762D01*
X68055716Y-198904762D01*
X69293811Y-196904762D02*
X69484287Y-196904762D01*
X69674763Y-197000000D01*
X69770001Y-197095238D01*
X69865239Y-197285714D01*
X69960478Y-197666667D01*
X69960478Y-198142857D01*
X69865239Y-198523810D01*
X69770001Y-198714286D01*
X69674763Y-198809524D01*
X69484287Y-198904762D01*
X69293811Y-198904762D01*
X69103335Y-198809524D01*
X69008097Y-198714286D01*
X68912858Y-198523810D01*
X68817620Y-198142857D01*
X68817620Y-197666667D01*
X68912858Y-197285714D01*
X69008097Y-197095238D01*
X69103335Y-197000000D01*
X69293811Y-196904762D01*
X71865240Y-198904762D02*
X70722382Y-198904762D01*
X71293811Y-198904762D02*
X71293811Y-196904762D01*
X71103335Y-197190476D01*
X70912859Y-197380952D01*
X70722382Y-197476190D01*
X72817621Y-198904762D02*
X73198573Y-198904762D01*
X73389049Y-198809524D01*
X73484287Y-198714286D01*
X73674763Y-198428571D01*
X73770002Y-198047619D01*
X73770002Y-197285714D01*
X73674763Y-197095238D01*
X73579525Y-197000000D01*
X73389049Y-196904762D01*
X73008097Y-196904762D01*
X72817621Y-197000000D01*
X72722382Y-197095238D01*
X72627144Y-197285714D01*
X72627144Y-197761905D01*
X72722382Y-197952381D01*
X72817621Y-198047619D01*
X73008097Y-198142857D01*
X73389049Y-198142857D01*
X73579525Y-198047619D01*
X73674763Y-197952381D01*
X73770002Y-197761905D01*
D11*
X81350476Y-81726190D02*
X81064762Y-81726190D01*
X81207619Y-81726190D02*
X81207619Y-81226190D01*
X81160000Y-81297619D01*
X81112381Y-81345238D01*
X81064762Y-81369048D01*
X81660000Y-81226190D02*
X81707619Y-81226190D01*
X81755238Y-81250000D01*
X81779047Y-81273810D01*
X81802857Y-81321429D01*
X81826666Y-81416667D01*
X81826666Y-81535714D01*
X81802857Y-81630952D01*
X81779047Y-81678571D01*
X81755238Y-81702381D01*
X81707619Y-81726190D01*
X81660000Y-81726190D01*
X81612381Y-81702381D01*
X81588571Y-81678571D01*
X81564762Y-81630952D01*
X81540952Y-81535714D01*
X81540952Y-81416667D01*
X81564762Y-81321429D01*
X81588571Y-81273810D01*
X81612381Y-81250000D01*
X81660000Y-81226190D01*
X82421904Y-81726190D02*
X82421904Y-81226190D01*
X82469523Y-81535714D02*
X82612380Y-81726190D01*
X82612380Y-81392857D02*
X82421904Y-81583333D01*
X82921904Y-81226190D02*
X83017142Y-81226190D01*
X83064761Y-81250000D01*
X83112380Y-81297619D01*
X83136189Y-81392857D01*
X83136189Y-81559524D01*
X83112380Y-81654762D01*
X83064761Y-81702381D01*
X83017142Y-81726190D01*
X82921904Y-81726190D01*
X82874285Y-81702381D01*
X82826666Y-81654762D01*
X82802856Y-81559524D01*
X82802856Y-81392857D01*
X82826666Y-81297619D01*
X82874285Y-81250000D01*
X82921904Y-81226190D01*
X83350476Y-81726190D02*
X83350476Y-81226190D01*
X83564761Y-81726190D02*
X83564761Y-81464286D01*
X83540952Y-81416667D01*
X83493333Y-81392857D01*
X83421904Y-81392857D01*
X83374285Y-81416667D01*
X83350476Y-81440476D01*
X83802857Y-81726190D02*
X83802857Y-81392857D01*
X83802857Y-81440476D02*
X83826666Y-81416667D01*
X83874285Y-81392857D01*
X83945714Y-81392857D01*
X83993333Y-81416667D01*
X84017142Y-81464286D01*
X84017142Y-81726190D01*
X84017142Y-81464286D02*
X84040952Y-81416667D01*
X84088571Y-81392857D01*
X84159999Y-81392857D01*
X84207619Y-81416667D01*
X84231428Y-81464286D01*
X84231428Y-81726190D01*
X81380476Y-77426190D02*
X81094762Y-77426190D01*
X81237619Y-77426190D02*
X81237619Y-76926190D01*
X81190000Y-76997619D01*
X81142381Y-77045238D01*
X81094762Y-77069048D01*
X81690000Y-76926190D02*
X81737619Y-76926190D01*
X81785238Y-76950000D01*
X81809047Y-76973810D01*
X81832857Y-77021429D01*
X81856666Y-77116667D01*
X81856666Y-77235714D01*
X81832857Y-77330952D01*
X81809047Y-77378571D01*
X81785238Y-77402381D01*
X81737619Y-77426190D01*
X81690000Y-77426190D01*
X81642381Y-77402381D01*
X81618571Y-77378571D01*
X81594762Y-77330952D01*
X81570952Y-77235714D01*
X81570952Y-77116667D01*
X81594762Y-77021429D01*
X81618571Y-76973810D01*
X81642381Y-76950000D01*
X81690000Y-76926190D01*
X82451904Y-77426190D02*
X82451904Y-76926190D01*
X82499523Y-77235714D02*
X82642380Y-77426190D01*
X82642380Y-77092857D02*
X82451904Y-77283333D01*
X82951904Y-76926190D02*
X83047142Y-76926190D01*
X83094761Y-76950000D01*
X83142380Y-76997619D01*
X83166189Y-77092857D01*
X83166189Y-77259524D01*
X83142380Y-77354762D01*
X83094761Y-77402381D01*
X83047142Y-77426190D01*
X82951904Y-77426190D01*
X82904285Y-77402381D01*
X82856666Y-77354762D01*
X82832856Y-77259524D01*
X82832856Y-77092857D01*
X82856666Y-76997619D01*
X82904285Y-76950000D01*
X82951904Y-76926190D01*
X83380476Y-77426190D02*
X83380476Y-76926190D01*
X83594761Y-77426190D02*
X83594761Y-77164286D01*
X83570952Y-77116667D01*
X83523333Y-77092857D01*
X83451904Y-77092857D01*
X83404285Y-77116667D01*
X83380476Y-77140476D01*
X83832857Y-77426190D02*
X83832857Y-77092857D01*
X83832857Y-77140476D02*
X83856666Y-77116667D01*
X83904285Y-77092857D01*
X83975714Y-77092857D01*
X84023333Y-77116667D01*
X84047142Y-77164286D01*
X84047142Y-77426190D01*
X84047142Y-77164286D02*
X84070952Y-77116667D01*
X84118571Y-77092857D01*
X84189999Y-77092857D01*
X84237619Y-77116667D01*
X84261428Y-77164286D01*
X84261428Y-77426190D01*
X104963810Y-176326190D02*
X104678096Y-176326190D01*
X104820953Y-176326190D02*
X104820953Y-175826190D01*
X104773334Y-175897619D01*
X104725715Y-175945238D01*
X104678096Y-175969048D01*
X105273334Y-175826190D02*
X105320953Y-175826190D01*
X105368572Y-175850000D01*
X105392381Y-175873810D01*
X105416191Y-175921429D01*
X105440000Y-176016667D01*
X105440000Y-176135714D01*
X105416191Y-176230952D01*
X105392381Y-176278571D01*
X105368572Y-176302381D01*
X105320953Y-176326190D01*
X105273334Y-176326190D01*
X105225715Y-176302381D01*
X105201905Y-176278571D01*
X105178096Y-176230952D01*
X105154286Y-176135714D01*
X105154286Y-176016667D01*
X105178096Y-175921429D01*
X105201905Y-175873810D01*
X105225715Y-175850000D01*
X105273334Y-175826190D01*
X106249523Y-175992857D02*
X106249523Y-176326190D01*
X106035238Y-175992857D02*
X106035238Y-176254762D01*
X106059047Y-176302381D01*
X106106666Y-176326190D01*
X106178095Y-176326190D01*
X106225714Y-176302381D01*
X106249523Y-176278571D01*
X106654285Y-176064286D02*
X106487619Y-176064286D01*
X106487619Y-176326190D02*
X106487619Y-175826190D01*
X106725714Y-175826190D01*
X132013810Y-176436190D02*
X131728096Y-176436190D01*
X131870953Y-176436190D02*
X131870953Y-175936190D01*
X131823334Y-176007619D01*
X131775715Y-176055238D01*
X131728096Y-176079048D01*
X132323334Y-175936190D02*
X132370953Y-175936190D01*
X132418572Y-175960000D01*
X132442381Y-175983810D01*
X132466191Y-176031429D01*
X132490000Y-176126667D01*
X132490000Y-176245714D01*
X132466191Y-176340952D01*
X132442381Y-176388571D01*
X132418572Y-176412381D01*
X132370953Y-176436190D01*
X132323334Y-176436190D01*
X132275715Y-176412381D01*
X132251905Y-176388571D01*
X132228096Y-176340952D01*
X132204286Y-176245714D01*
X132204286Y-176126667D01*
X132228096Y-176031429D01*
X132251905Y-175983810D01*
X132275715Y-175960000D01*
X132323334Y-175936190D01*
X133299523Y-176102857D02*
X133299523Y-176436190D01*
X133085238Y-176102857D02*
X133085238Y-176364762D01*
X133109047Y-176412381D01*
X133156666Y-176436190D01*
X133228095Y-176436190D01*
X133275714Y-176412381D01*
X133299523Y-176388571D01*
X133704285Y-176174286D02*
X133537619Y-176174286D01*
X133537619Y-176436190D02*
X133537619Y-175936190D01*
X133775714Y-175936190D01*
X158073810Y-176286190D02*
X157788096Y-176286190D01*
X157930953Y-176286190D02*
X157930953Y-175786190D01*
X157883334Y-175857619D01*
X157835715Y-175905238D01*
X157788096Y-175929048D01*
X158383334Y-175786190D02*
X158430953Y-175786190D01*
X158478572Y-175810000D01*
X158502381Y-175833810D01*
X158526191Y-175881429D01*
X158550000Y-175976667D01*
X158550000Y-176095714D01*
X158526191Y-176190952D01*
X158502381Y-176238571D01*
X158478572Y-176262381D01*
X158430953Y-176286190D01*
X158383334Y-176286190D01*
X158335715Y-176262381D01*
X158311905Y-176238571D01*
X158288096Y-176190952D01*
X158264286Y-176095714D01*
X158264286Y-175976667D01*
X158288096Y-175881429D01*
X158311905Y-175833810D01*
X158335715Y-175810000D01*
X158383334Y-175786190D01*
X159359523Y-175952857D02*
X159359523Y-176286190D01*
X159145238Y-175952857D02*
X159145238Y-176214762D01*
X159169047Y-176262381D01*
X159216666Y-176286190D01*
X159288095Y-176286190D01*
X159335714Y-176262381D01*
X159359523Y-176238571D01*
X159764285Y-176024286D02*
X159597619Y-176024286D01*
X159597619Y-176286190D02*
X159597619Y-175786190D01*
X159835714Y-175786190D01*
X231514762Y-173506190D02*
X231514762Y-173006190D01*
X231633809Y-173006190D01*
X231705238Y-173030000D01*
X231752857Y-173077619D01*
X231776666Y-173125238D01*
X231800476Y-173220476D01*
X231800476Y-173291905D01*
X231776666Y-173387143D01*
X231752857Y-173434762D01*
X231705238Y-173482381D01*
X231633809Y-173506190D01*
X231514762Y-173506190D01*
X232110000Y-173006190D02*
X232205238Y-173006190D01*
X232252857Y-173030000D01*
X232300476Y-173077619D01*
X232324285Y-173172857D01*
X232324285Y-173339524D01*
X232300476Y-173434762D01*
X232252857Y-173482381D01*
X232205238Y-173506190D01*
X232110000Y-173506190D01*
X232062381Y-173482381D01*
X232014762Y-173434762D01*
X231990952Y-173339524D01*
X231990952Y-173172857D01*
X232014762Y-173077619D01*
X232062381Y-173030000D01*
X232110000Y-173006190D01*
X232538572Y-173006190D02*
X232538572Y-173410952D01*
X232562381Y-173458571D01*
X232586191Y-173482381D01*
X232633810Y-173506190D01*
X232729048Y-173506190D01*
X232776667Y-173482381D01*
X232800476Y-173458571D01*
X232824286Y-173410952D01*
X232824286Y-173006190D01*
X232990953Y-173006190D02*
X233276667Y-173006190D01*
X233133810Y-173506190D02*
X233133810Y-173006190D01*
X114265239Y-195426190D02*
X114360477Y-195426190D01*
X114408096Y-195402381D01*
X114431906Y-195378571D01*
X114479525Y-195307143D01*
X114503334Y-195211905D01*
X114503334Y-195021429D01*
X114479525Y-194973810D01*
X114455715Y-194950000D01*
X114408096Y-194926190D01*
X114312858Y-194926190D01*
X114265239Y-194950000D01*
X114241430Y-194973810D01*
X114217620Y-195021429D01*
X114217620Y-195140476D01*
X114241430Y-195188095D01*
X114265239Y-195211905D01*
X114312858Y-195235714D01*
X114408096Y-195235714D01*
X114455715Y-195211905D01*
X114479525Y-195188095D01*
X114503334Y-195140476D01*
X114717620Y-195378571D02*
X114741429Y-195402381D01*
X114717620Y-195426190D01*
X114693810Y-195402381D01*
X114717620Y-195378571D01*
X114717620Y-195426190D01*
X114908096Y-194926190D02*
X115241429Y-194926190D01*
X115027143Y-195426190D01*
X115646190Y-194926190D02*
X115550952Y-194926190D01*
X115503333Y-194950000D01*
X115479524Y-194973810D01*
X115431905Y-195045238D01*
X115408095Y-195140476D01*
X115408095Y-195330952D01*
X115431905Y-195378571D01*
X115455714Y-195402381D01*
X115503333Y-195426190D01*
X115598571Y-195426190D01*
X115646190Y-195402381D01*
X115670000Y-195378571D01*
X115693809Y-195330952D01*
X115693809Y-195211905D01*
X115670000Y-195164286D01*
X115646190Y-195140476D01*
X115598571Y-195116667D01*
X115503333Y-195116667D01*
X115455714Y-195140476D01*
X115431905Y-195164286D01*
X115408095Y-195211905D01*
X116289047Y-195426190D02*
X116289047Y-194926190D01*
X116336666Y-195235714D02*
X116479523Y-195426190D01*
X116479523Y-195092857D02*
X116289047Y-195283333D01*
X116789047Y-194926190D02*
X116884285Y-194926190D01*
X116931904Y-194950000D01*
X116979523Y-194997619D01*
X117003332Y-195092857D01*
X117003332Y-195259524D01*
X116979523Y-195354762D01*
X116931904Y-195402381D01*
X116884285Y-195426190D01*
X116789047Y-195426190D01*
X116741428Y-195402381D01*
X116693809Y-195354762D01*
X116669999Y-195259524D01*
X116669999Y-195092857D01*
X116693809Y-194997619D01*
X116741428Y-194950000D01*
X116789047Y-194926190D01*
X117217619Y-195426190D02*
X117217619Y-194926190D01*
X117431904Y-195426190D02*
X117431904Y-195164286D01*
X117408095Y-195116667D01*
X117360476Y-195092857D01*
X117289047Y-195092857D01*
X117241428Y-195116667D01*
X117217619Y-195140476D01*
X117670000Y-195426190D02*
X117670000Y-195092857D01*
X117670000Y-195140476D02*
X117693809Y-195116667D01*
X117741428Y-195092857D01*
X117812857Y-195092857D01*
X117860476Y-195116667D01*
X117884285Y-195164286D01*
X117884285Y-195426190D01*
X117884285Y-195164286D02*
X117908095Y-195116667D01*
X117955714Y-195092857D01*
X118027142Y-195092857D01*
X118074762Y-195116667D01*
X118098571Y-195164286D01*
X118098571Y-195426190D01*
X114643334Y-69186190D02*
X114357620Y-69186190D01*
X114500477Y-69186190D02*
X114500477Y-68686190D01*
X114452858Y-68757619D01*
X114405239Y-68805238D01*
X114357620Y-68829048D01*
X114857620Y-69138571D02*
X114881429Y-69162381D01*
X114857620Y-69186190D01*
X114833810Y-69162381D01*
X114857620Y-69138571D01*
X114857620Y-69186190D01*
X115310000Y-68686190D02*
X115214762Y-68686190D01*
X115167143Y-68710000D01*
X115143334Y-68733810D01*
X115095715Y-68805238D01*
X115071905Y-68900476D01*
X115071905Y-69090952D01*
X115095715Y-69138571D01*
X115119524Y-69162381D01*
X115167143Y-69186190D01*
X115262381Y-69186190D01*
X115310000Y-69162381D01*
X115333810Y-69138571D01*
X115357619Y-69090952D01*
X115357619Y-68971905D01*
X115333810Y-68924286D01*
X115310000Y-68900476D01*
X115262381Y-68876667D01*
X115167143Y-68876667D01*
X115119524Y-68900476D01*
X115095715Y-68924286D01*
X115071905Y-68971905D01*
X115524286Y-68686190D02*
X115833809Y-68686190D01*
X115667143Y-68876667D01*
X115738571Y-68876667D01*
X115786190Y-68900476D01*
X115810000Y-68924286D01*
X115833809Y-68971905D01*
X115833809Y-69090952D01*
X115810000Y-69138571D01*
X115786190Y-69162381D01*
X115738571Y-69186190D01*
X115595714Y-69186190D01*
X115548095Y-69162381D01*
X115524286Y-69138571D01*
X116429047Y-69186190D02*
X116429047Y-68686190D01*
X116476666Y-68995714D02*
X116619523Y-69186190D01*
X116619523Y-68852857D02*
X116429047Y-69043333D01*
X116929047Y-68686190D02*
X117024285Y-68686190D01*
X117071904Y-68710000D01*
X117119523Y-68757619D01*
X117143332Y-68852857D01*
X117143332Y-69019524D01*
X117119523Y-69114762D01*
X117071904Y-69162381D01*
X117024285Y-69186190D01*
X116929047Y-69186190D01*
X116881428Y-69162381D01*
X116833809Y-69114762D01*
X116809999Y-69019524D01*
X116809999Y-68852857D01*
X116833809Y-68757619D01*
X116881428Y-68710000D01*
X116929047Y-68686190D01*
X117357619Y-69186190D02*
X117357619Y-68686190D01*
X117571904Y-69186190D02*
X117571904Y-68924286D01*
X117548095Y-68876667D01*
X117500476Y-68852857D01*
X117429047Y-68852857D01*
X117381428Y-68876667D01*
X117357619Y-68900476D01*
X117810000Y-69186190D02*
X117810000Y-68852857D01*
X117810000Y-68900476D02*
X117833809Y-68876667D01*
X117881428Y-68852857D01*
X117952857Y-68852857D01*
X118000476Y-68876667D01*
X118024285Y-68924286D01*
X118024285Y-69186190D01*
X118024285Y-68924286D02*
X118048095Y-68876667D01*
X118095714Y-68852857D01*
X118167142Y-68852857D01*
X118214762Y-68876667D01*
X118238571Y-68924286D01*
X118238571Y-69186190D01*
X141233334Y-69106190D02*
X140947620Y-69106190D01*
X141090477Y-69106190D02*
X141090477Y-68606190D01*
X141042858Y-68677619D01*
X140995239Y-68725238D01*
X140947620Y-68749048D01*
X141447620Y-69058571D02*
X141471429Y-69082381D01*
X141447620Y-69106190D01*
X141423810Y-69082381D01*
X141447620Y-69058571D01*
X141447620Y-69106190D01*
X141900000Y-68606190D02*
X141804762Y-68606190D01*
X141757143Y-68630000D01*
X141733334Y-68653810D01*
X141685715Y-68725238D01*
X141661905Y-68820476D01*
X141661905Y-69010952D01*
X141685715Y-69058571D01*
X141709524Y-69082381D01*
X141757143Y-69106190D01*
X141852381Y-69106190D01*
X141900000Y-69082381D01*
X141923810Y-69058571D01*
X141947619Y-69010952D01*
X141947619Y-68891905D01*
X141923810Y-68844286D01*
X141900000Y-68820476D01*
X141852381Y-68796667D01*
X141757143Y-68796667D01*
X141709524Y-68820476D01*
X141685715Y-68844286D01*
X141661905Y-68891905D01*
X142114286Y-68606190D02*
X142423809Y-68606190D01*
X142257143Y-68796667D01*
X142328571Y-68796667D01*
X142376190Y-68820476D01*
X142400000Y-68844286D01*
X142423809Y-68891905D01*
X142423809Y-69010952D01*
X142400000Y-69058571D01*
X142376190Y-69082381D01*
X142328571Y-69106190D01*
X142185714Y-69106190D01*
X142138095Y-69082381D01*
X142114286Y-69058571D01*
X143019047Y-69106190D02*
X143019047Y-68606190D01*
X143066666Y-68915714D02*
X143209523Y-69106190D01*
X143209523Y-68772857D02*
X143019047Y-68963333D01*
X143519047Y-68606190D02*
X143614285Y-68606190D01*
X143661904Y-68630000D01*
X143709523Y-68677619D01*
X143733332Y-68772857D01*
X143733332Y-68939524D01*
X143709523Y-69034762D01*
X143661904Y-69082381D01*
X143614285Y-69106190D01*
X143519047Y-69106190D01*
X143471428Y-69082381D01*
X143423809Y-69034762D01*
X143399999Y-68939524D01*
X143399999Y-68772857D01*
X143423809Y-68677619D01*
X143471428Y-68630000D01*
X143519047Y-68606190D01*
X143947619Y-69106190D02*
X143947619Y-68606190D01*
X144161904Y-69106190D02*
X144161904Y-68844286D01*
X144138095Y-68796667D01*
X144090476Y-68772857D01*
X144019047Y-68772857D01*
X143971428Y-68796667D01*
X143947619Y-68820476D01*
X144400000Y-69106190D02*
X144400000Y-68772857D01*
X144400000Y-68820476D02*
X144423809Y-68796667D01*
X144471428Y-68772857D01*
X144542857Y-68772857D01*
X144590476Y-68796667D01*
X144614285Y-68844286D01*
X144614285Y-69106190D01*
X144614285Y-68844286D02*
X144638095Y-68796667D01*
X144685714Y-68772857D01*
X144757142Y-68772857D01*
X144804762Y-68796667D01*
X144828571Y-68844286D01*
X144828571Y-69106190D01*
X168563334Y-69196190D02*
X168277620Y-69196190D01*
X168420477Y-69196190D02*
X168420477Y-68696190D01*
X168372858Y-68767619D01*
X168325239Y-68815238D01*
X168277620Y-68839048D01*
X168777620Y-69148571D02*
X168801429Y-69172381D01*
X168777620Y-69196190D01*
X168753810Y-69172381D01*
X168777620Y-69148571D01*
X168777620Y-69196190D01*
X169230000Y-68696190D02*
X169134762Y-68696190D01*
X169087143Y-68720000D01*
X169063334Y-68743810D01*
X169015715Y-68815238D01*
X168991905Y-68910476D01*
X168991905Y-69100952D01*
X169015715Y-69148571D01*
X169039524Y-69172381D01*
X169087143Y-69196190D01*
X169182381Y-69196190D01*
X169230000Y-69172381D01*
X169253810Y-69148571D01*
X169277619Y-69100952D01*
X169277619Y-68981905D01*
X169253810Y-68934286D01*
X169230000Y-68910476D01*
X169182381Y-68886667D01*
X169087143Y-68886667D01*
X169039524Y-68910476D01*
X169015715Y-68934286D01*
X168991905Y-68981905D01*
X169444286Y-68696190D02*
X169753809Y-68696190D01*
X169587143Y-68886667D01*
X169658571Y-68886667D01*
X169706190Y-68910476D01*
X169730000Y-68934286D01*
X169753809Y-68981905D01*
X169753809Y-69100952D01*
X169730000Y-69148571D01*
X169706190Y-69172381D01*
X169658571Y-69196190D01*
X169515714Y-69196190D01*
X169468095Y-69172381D01*
X169444286Y-69148571D01*
X170349047Y-69196190D02*
X170349047Y-68696190D01*
X170396666Y-69005714D02*
X170539523Y-69196190D01*
X170539523Y-68862857D02*
X170349047Y-69053333D01*
X170849047Y-68696190D02*
X170944285Y-68696190D01*
X170991904Y-68720000D01*
X171039523Y-68767619D01*
X171063332Y-68862857D01*
X171063332Y-69029524D01*
X171039523Y-69124762D01*
X170991904Y-69172381D01*
X170944285Y-69196190D01*
X170849047Y-69196190D01*
X170801428Y-69172381D01*
X170753809Y-69124762D01*
X170729999Y-69029524D01*
X170729999Y-68862857D01*
X170753809Y-68767619D01*
X170801428Y-68720000D01*
X170849047Y-68696190D01*
X171277619Y-69196190D02*
X171277619Y-68696190D01*
X171491904Y-69196190D02*
X171491904Y-68934286D01*
X171468095Y-68886667D01*
X171420476Y-68862857D01*
X171349047Y-68862857D01*
X171301428Y-68886667D01*
X171277619Y-68910476D01*
X171730000Y-69196190D02*
X171730000Y-68862857D01*
X171730000Y-68910476D02*
X171753809Y-68886667D01*
X171801428Y-68862857D01*
X171872857Y-68862857D01*
X171920476Y-68886667D01*
X171944285Y-68934286D01*
X171944285Y-69196190D01*
X171944285Y-68934286D02*
X171968095Y-68886667D01*
X172015714Y-68862857D01*
X172087142Y-68862857D01*
X172134762Y-68886667D01*
X172158571Y-68934286D01*
X172158571Y-69196190D01*
X195433334Y-69006190D02*
X195147620Y-69006190D01*
X195290477Y-69006190D02*
X195290477Y-68506190D01*
X195242858Y-68577619D01*
X195195239Y-68625238D01*
X195147620Y-68649048D01*
X195647620Y-68958571D02*
X195671429Y-68982381D01*
X195647620Y-69006190D01*
X195623810Y-68982381D01*
X195647620Y-68958571D01*
X195647620Y-69006190D01*
X196100000Y-68506190D02*
X196004762Y-68506190D01*
X195957143Y-68530000D01*
X195933334Y-68553810D01*
X195885715Y-68625238D01*
X195861905Y-68720476D01*
X195861905Y-68910952D01*
X195885715Y-68958571D01*
X195909524Y-68982381D01*
X195957143Y-69006190D01*
X196052381Y-69006190D01*
X196100000Y-68982381D01*
X196123810Y-68958571D01*
X196147619Y-68910952D01*
X196147619Y-68791905D01*
X196123810Y-68744286D01*
X196100000Y-68720476D01*
X196052381Y-68696667D01*
X195957143Y-68696667D01*
X195909524Y-68720476D01*
X195885715Y-68744286D01*
X195861905Y-68791905D01*
X196314286Y-68506190D02*
X196623809Y-68506190D01*
X196457143Y-68696667D01*
X196528571Y-68696667D01*
X196576190Y-68720476D01*
X196600000Y-68744286D01*
X196623809Y-68791905D01*
X196623809Y-68910952D01*
X196600000Y-68958571D01*
X196576190Y-68982381D01*
X196528571Y-69006190D01*
X196385714Y-69006190D01*
X196338095Y-68982381D01*
X196314286Y-68958571D01*
X197219047Y-69006190D02*
X197219047Y-68506190D01*
X197266666Y-68815714D02*
X197409523Y-69006190D01*
X197409523Y-68672857D02*
X197219047Y-68863333D01*
X197719047Y-68506190D02*
X197814285Y-68506190D01*
X197861904Y-68530000D01*
X197909523Y-68577619D01*
X197933332Y-68672857D01*
X197933332Y-68839524D01*
X197909523Y-68934762D01*
X197861904Y-68982381D01*
X197814285Y-69006190D01*
X197719047Y-69006190D01*
X197671428Y-68982381D01*
X197623809Y-68934762D01*
X197599999Y-68839524D01*
X197599999Y-68672857D01*
X197623809Y-68577619D01*
X197671428Y-68530000D01*
X197719047Y-68506190D01*
X198147619Y-69006190D02*
X198147619Y-68506190D01*
X198361904Y-69006190D02*
X198361904Y-68744286D01*
X198338095Y-68696667D01*
X198290476Y-68672857D01*
X198219047Y-68672857D01*
X198171428Y-68696667D01*
X198147619Y-68720476D01*
X198600000Y-69006190D02*
X198600000Y-68672857D01*
X198600000Y-68720476D02*
X198623809Y-68696667D01*
X198671428Y-68672857D01*
X198742857Y-68672857D01*
X198790476Y-68696667D01*
X198814285Y-68744286D01*
X198814285Y-69006190D01*
X198814285Y-68744286D02*
X198838095Y-68696667D01*
X198885714Y-68672857D01*
X198957142Y-68672857D01*
X199004762Y-68696667D01*
X199028571Y-68744286D01*
X199028571Y-69006190D01*
X100550476Y-69216190D02*
X100264762Y-69216190D01*
X100407619Y-69216190D02*
X100407619Y-68716190D01*
X100360000Y-68787619D01*
X100312381Y-68835238D01*
X100264762Y-68859048D01*
X100860000Y-68716190D02*
X100907619Y-68716190D01*
X100955238Y-68740000D01*
X100979047Y-68763810D01*
X101002857Y-68811429D01*
X101026666Y-68906667D01*
X101026666Y-69025714D01*
X101002857Y-69120952D01*
X100979047Y-69168571D01*
X100955238Y-69192381D01*
X100907619Y-69216190D01*
X100860000Y-69216190D01*
X100812381Y-69192381D01*
X100788571Y-69168571D01*
X100764762Y-69120952D01*
X100740952Y-69025714D01*
X100740952Y-68906667D01*
X100764762Y-68811429D01*
X100788571Y-68763810D01*
X100812381Y-68740000D01*
X100860000Y-68716190D01*
X101621904Y-69216190D02*
X101621904Y-68716190D01*
X101669523Y-69025714D02*
X101812380Y-69216190D01*
X101812380Y-68882857D02*
X101621904Y-69073333D01*
X102121904Y-68716190D02*
X102217142Y-68716190D01*
X102264761Y-68740000D01*
X102312380Y-68787619D01*
X102336189Y-68882857D01*
X102336189Y-69049524D01*
X102312380Y-69144762D01*
X102264761Y-69192381D01*
X102217142Y-69216190D01*
X102121904Y-69216190D01*
X102074285Y-69192381D01*
X102026666Y-69144762D01*
X102002856Y-69049524D01*
X102002856Y-68882857D01*
X102026666Y-68787619D01*
X102074285Y-68740000D01*
X102121904Y-68716190D01*
X102550476Y-69216190D02*
X102550476Y-68716190D01*
X102764761Y-69216190D02*
X102764761Y-68954286D01*
X102740952Y-68906667D01*
X102693333Y-68882857D01*
X102621904Y-68882857D01*
X102574285Y-68906667D01*
X102550476Y-68930476D01*
X103002857Y-69216190D02*
X103002857Y-68882857D01*
X103002857Y-68930476D02*
X103026666Y-68906667D01*
X103074285Y-68882857D01*
X103145714Y-68882857D01*
X103193333Y-68906667D01*
X103217142Y-68954286D01*
X103217142Y-69216190D01*
X103217142Y-68954286D02*
X103240952Y-68906667D01*
X103288571Y-68882857D01*
X103359999Y-68882857D01*
X103407619Y-68906667D01*
X103431428Y-68954286D01*
X103431428Y-69216190D01*
X127490476Y-69166190D02*
X127204762Y-69166190D01*
X127347619Y-69166190D02*
X127347619Y-68666190D01*
X127300000Y-68737619D01*
X127252381Y-68785238D01*
X127204762Y-68809048D01*
X127800000Y-68666190D02*
X127847619Y-68666190D01*
X127895238Y-68690000D01*
X127919047Y-68713810D01*
X127942857Y-68761429D01*
X127966666Y-68856667D01*
X127966666Y-68975714D01*
X127942857Y-69070952D01*
X127919047Y-69118571D01*
X127895238Y-69142381D01*
X127847619Y-69166190D01*
X127800000Y-69166190D01*
X127752381Y-69142381D01*
X127728571Y-69118571D01*
X127704762Y-69070952D01*
X127680952Y-68975714D01*
X127680952Y-68856667D01*
X127704762Y-68761429D01*
X127728571Y-68713810D01*
X127752381Y-68690000D01*
X127800000Y-68666190D01*
X128561904Y-69166190D02*
X128561904Y-68666190D01*
X128609523Y-68975714D02*
X128752380Y-69166190D01*
X128752380Y-68832857D02*
X128561904Y-69023333D01*
X129061904Y-68666190D02*
X129157142Y-68666190D01*
X129204761Y-68690000D01*
X129252380Y-68737619D01*
X129276189Y-68832857D01*
X129276189Y-68999524D01*
X129252380Y-69094762D01*
X129204761Y-69142381D01*
X129157142Y-69166190D01*
X129061904Y-69166190D01*
X129014285Y-69142381D01*
X128966666Y-69094762D01*
X128942856Y-68999524D01*
X128942856Y-68832857D01*
X128966666Y-68737619D01*
X129014285Y-68690000D01*
X129061904Y-68666190D01*
X129490476Y-69166190D02*
X129490476Y-68666190D01*
X129704761Y-69166190D02*
X129704761Y-68904286D01*
X129680952Y-68856667D01*
X129633333Y-68832857D01*
X129561904Y-68832857D01*
X129514285Y-68856667D01*
X129490476Y-68880476D01*
X129942857Y-69166190D02*
X129942857Y-68832857D01*
X129942857Y-68880476D02*
X129966666Y-68856667D01*
X130014285Y-68832857D01*
X130085714Y-68832857D01*
X130133333Y-68856667D01*
X130157142Y-68904286D01*
X130157142Y-69166190D01*
X130157142Y-68904286D02*
X130180952Y-68856667D01*
X130228571Y-68832857D01*
X130299999Y-68832857D01*
X130347619Y-68856667D01*
X130371428Y-68904286D01*
X130371428Y-69166190D01*
X181530476Y-69106190D02*
X181244762Y-69106190D01*
X181387619Y-69106190D02*
X181387619Y-68606190D01*
X181340000Y-68677619D01*
X181292381Y-68725238D01*
X181244762Y-68749048D01*
X181840000Y-68606190D02*
X181887619Y-68606190D01*
X181935238Y-68630000D01*
X181959047Y-68653810D01*
X181982857Y-68701429D01*
X182006666Y-68796667D01*
X182006666Y-68915714D01*
X181982857Y-69010952D01*
X181959047Y-69058571D01*
X181935238Y-69082381D01*
X181887619Y-69106190D01*
X181840000Y-69106190D01*
X181792381Y-69082381D01*
X181768571Y-69058571D01*
X181744762Y-69010952D01*
X181720952Y-68915714D01*
X181720952Y-68796667D01*
X181744762Y-68701429D01*
X181768571Y-68653810D01*
X181792381Y-68630000D01*
X181840000Y-68606190D01*
X182601904Y-69106190D02*
X182601904Y-68606190D01*
X182649523Y-68915714D02*
X182792380Y-69106190D01*
X182792380Y-68772857D02*
X182601904Y-68963333D01*
X183101904Y-68606190D02*
X183197142Y-68606190D01*
X183244761Y-68630000D01*
X183292380Y-68677619D01*
X183316189Y-68772857D01*
X183316189Y-68939524D01*
X183292380Y-69034762D01*
X183244761Y-69082381D01*
X183197142Y-69106190D01*
X183101904Y-69106190D01*
X183054285Y-69082381D01*
X183006666Y-69034762D01*
X182982856Y-68939524D01*
X182982856Y-68772857D01*
X183006666Y-68677619D01*
X183054285Y-68630000D01*
X183101904Y-68606190D01*
X183530476Y-69106190D02*
X183530476Y-68606190D01*
X183744761Y-69106190D02*
X183744761Y-68844286D01*
X183720952Y-68796667D01*
X183673333Y-68772857D01*
X183601904Y-68772857D01*
X183554285Y-68796667D01*
X183530476Y-68820476D01*
X183982857Y-69106190D02*
X183982857Y-68772857D01*
X183982857Y-68820476D02*
X184006666Y-68796667D01*
X184054285Y-68772857D01*
X184125714Y-68772857D01*
X184173333Y-68796667D01*
X184197142Y-68844286D01*
X184197142Y-69106190D01*
X184197142Y-68844286D02*
X184220952Y-68796667D01*
X184268571Y-68772857D01*
X184339999Y-68772857D01*
X184387619Y-68796667D01*
X184411428Y-68844286D01*
X184411428Y-69106190D01*
X154600476Y-69056190D02*
X154314762Y-69056190D01*
X154457619Y-69056190D02*
X154457619Y-68556190D01*
X154410000Y-68627619D01*
X154362381Y-68675238D01*
X154314762Y-68699048D01*
X154910000Y-68556190D02*
X154957619Y-68556190D01*
X155005238Y-68580000D01*
X155029047Y-68603810D01*
X155052857Y-68651429D01*
X155076666Y-68746667D01*
X155076666Y-68865714D01*
X155052857Y-68960952D01*
X155029047Y-69008571D01*
X155005238Y-69032381D01*
X154957619Y-69056190D01*
X154910000Y-69056190D01*
X154862381Y-69032381D01*
X154838571Y-69008571D01*
X154814762Y-68960952D01*
X154790952Y-68865714D01*
X154790952Y-68746667D01*
X154814762Y-68651429D01*
X154838571Y-68603810D01*
X154862381Y-68580000D01*
X154910000Y-68556190D01*
X155671904Y-69056190D02*
X155671904Y-68556190D01*
X155719523Y-68865714D02*
X155862380Y-69056190D01*
X155862380Y-68722857D02*
X155671904Y-68913333D01*
X156171904Y-68556190D02*
X156267142Y-68556190D01*
X156314761Y-68580000D01*
X156362380Y-68627619D01*
X156386189Y-68722857D01*
X156386189Y-68889524D01*
X156362380Y-68984762D01*
X156314761Y-69032381D01*
X156267142Y-69056190D01*
X156171904Y-69056190D01*
X156124285Y-69032381D01*
X156076666Y-68984762D01*
X156052856Y-68889524D01*
X156052856Y-68722857D01*
X156076666Y-68627619D01*
X156124285Y-68580000D01*
X156171904Y-68556190D01*
X156600476Y-69056190D02*
X156600476Y-68556190D01*
X156814761Y-69056190D02*
X156814761Y-68794286D01*
X156790952Y-68746667D01*
X156743333Y-68722857D01*
X156671904Y-68722857D01*
X156624285Y-68746667D01*
X156600476Y-68770476D01*
X157052857Y-69056190D02*
X157052857Y-68722857D01*
X157052857Y-68770476D02*
X157076666Y-68746667D01*
X157124285Y-68722857D01*
X157195714Y-68722857D01*
X157243333Y-68746667D01*
X157267142Y-68794286D01*
X157267142Y-69056190D01*
X157267142Y-68794286D02*
X157290952Y-68746667D01*
X157338571Y-68722857D01*
X157409999Y-68722857D01*
X157457619Y-68746667D01*
X157481428Y-68794286D01*
X157481428Y-69056190D01*
X230600476Y-99226190D02*
X230314762Y-99226190D01*
X230457619Y-99226190D02*
X230457619Y-98726190D01*
X230410000Y-98797619D01*
X230362381Y-98845238D01*
X230314762Y-98869048D01*
X230910000Y-98726190D02*
X230957619Y-98726190D01*
X231005238Y-98750000D01*
X231029047Y-98773810D01*
X231052857Y-98821429D01*
X231076666Y-98916667D01*
X231076666Y-99035714D01*
X231052857Y-99130952D01*
X231029047Y-99178571D01*
X231005238Y-99202381D01*
X230957619Y-99226190D01*
X230910000Y-99226190D01*
X230862381Y-99202381D01*
X230838571Y-99178571D01*
X230814762Y-99130952D01*
X230790952Y-99035714D01*
X230790952Y-98916667D01*
X230814762Y-98821429D01*
X230838571Y-98773810D01*
X230862381Y-98750000D01*
X230910000Y-98726190D01*
X231671904Y-99226190D02*
X231671904Y-98726190D01*
X231719523Y-99035714D02*
X231862380Y-99226190D01*
X231862380Y-98892857D02*
X231671904Y-99083333D01*
X232171904Y-98726190D02*
X232267142Y-98726190D01*
X232314761Y-98750000D01*
X232362380Y-98797619D01*
X232386189Y-98892857D01*
X232386189Y-99059524D01*
X232362380Y-99154762D01*
X232314761Y-99202381D01*
X232267142Y-99226190D01*
X232171904Y-99226190D01*
X232124285Y-99202381D01*
X232076666Y-99154762D01*
X232052856Y-99059524D01*
X232052856Y-98892857D01*
X232076666Y-98797619D01*
X232124285Y-98750000D01*
X232171904Y-98726190D01*
X232600476Y-99226190D02*
X232600476Y-98726190D01*
X232814761Y-99226190D02*
X232814761Y-98964286D01*
X232790952Y-98916667D01*
X232743333Y-98892857D01*
X232671904Y-98892857D01*
X232624285Y-98916667D01*
X232600476Y-98940476D01*
X233052857Y-99226190D02*
X233052857Y-98892857D01*
X233052857Y-98940476D02*
X233076666Y-98916667D01*
X233124285Y-98892857D01*
X233195714Y-98892857D01*
X233243333Y-98916667D01*
X233267142Y-98964286D01*
X233267142Y-99226190D01*
X233267142Y-98964286D02*
X233290952Y-98916667D01*
X233338571Y-98892857D01*
X233409999Y-98892857D01*
X233457619Y-98916667D01*
X233481428Y-98964286D01*
X233481428Y-99226190D01*
X230710476Y-117226190D02*
X230424762Y-117226190D01*
X230567619Y-117226190D02*
X230567619Y-116726190D01*
X230520000Y-116797619D01*
X230472381Y-116845238D01*
X230424762Y-116869048D01*
X231020000Y-116726190D02*
X231067619Y-116726190D01*
X231115238Y-116750000D01*
X231139047Y-116773810D01*
X231162857Y-116821429D01*
X231186666Y-116916667D01*
X231186666Y-117035714D01*
X231162857Y-117130952D01*
X231139047Y-117178571D01*
X231115238Y-117202381D01*
X231067619Y-117226190D01*
X231020000Y-117226190D01*
X230972381Y-117202381D01*
X230948571Y-117178571D01*
X230924762Y-117130952D01*
X230900952Y-117035714D01*
X230900952Y-116916667D01*
X230924762Y-116821429D01*
X230948571Y-116773810D01*
X230972381Y-116750000D01*
X231020000Y-116726190D01*
X231781904Y-117226190D02*
X231781904Y-116726190D01*
X231829523Y-117035714D02*
X231972380Y-117226190D01*
X231972380Y-116892857D02*
X231781904Y-117083333D01*
X232281904Y-116726190D02*
X232377142Y-116726190D01*
X232424761Y-116750000D01*
X232472380Y-116797619D01*
X232496189Y-116892857D01*
X232496189Y-117059524D01*
X232472380Y-117154762D01*
X232424761Y-117202381D01*
X232377142Y-117226190D01*
X232281904Y-117226190D01*
X232234285Y-117202381D01*
X232186666Y-117154762D01*
X232162856Y-117059524D01*
X232162856Y-116892857D01*
X232186666Y-116797619D01*
X232234285Y-116750000D01*
X232281904Y-116726190D01*
X232710476Y-117226190D02*
X232710476Y-116726190D01*
X232924761Y-117226190D02*
X232924761Y-116964286D01*
X232900952Y-116916667D01*
X232853333Y-116892857D01*
X232781904Y-116892857D01*
X232734285Y-116916667D01*
X232710476Y-116940476D01*
X233162857Y-117226190D02*
X233162857Y-116892857D01*
X233162857Y-116940476D02*
X233186666Y-116916667D01*
X233234285Y-116892857D01*
X233305714Y-116892857D01*
X233353333Y-116916667D01*
X233377142Y-116964286D01*
X233377142Y-117226190D01*
X233377142Y-116964286D02*
X233400952Y-116916667D01*
X233448571Y-116892857D01*
X233519999Y-116892857D01*
X233567619Y-116916667D01*
X233591428Y-116964286D01*
X233591428Y-117226190D01*
X230680476Y-135176190D02*
X230394762Y-135176190D01*
X230537619Y-135176190D02*
X230537619Y-134676190D01*
X230490000Y-134747619D01*
X230442381Y-134795238D01*
X230394762Y-134819048D01*
X230990000Y-134676190D02*
X231037619Y-134676190D01*
X231085238Y-134700000D01*
X231109047Y-134723810D01*
X231132857Y-134771429D01*
X231156666Y-134866667D01*
X231156666Y-134985714D01*
X231132857Y-135080952D01*
X231109047Y-135128571D01*
X231085238Y-135152381D01*
X231037619Y-135176190D01*
X230990000Y-135176190D01*
X230942381Y-135152381D01*
X230918571Y-135128571D01*
X230894762Y-135080952D01*
X230870952Y-134985714D01*
X230870952Y-134866667D01*
X230894762Y-134771429D01*
X230918571Y-134723810D01*
X230942381Y-134700000D01*
X230990000Y-134676190D01*
X231751904Y-135176190D02*
X231751904Y-134676190D01*
X231799523Y-134985714D02*
X231942380Y-135176190D01*
X231942380Y-134842857D02*
X231751904Y-135033333D01*
X232251904Y-134676190D02*
X232347142Y-134676190D01*
X232394761Y-134700000D01*
X232442380Y-134747619D01*
X232466189Y-134842857D01*
X232466189Y-135009524D01*
X232442380Y-135104762D01*
X232394761Y-135152381D01*
X232347142Y-135176190D01*
X232251904Y-135176190D01*
X232204285Y-135152381D01*
X232156666Y-135104762D01*
X232132856Y-135009524D01*
X232132856Y-134842857D01*
X232156666Y-134747619D01*
X232204285Y-134700000D01*
X232251904Y-134676190D01*
X232680476Y-135176190D02*
X232680476Y-134676190D01*
X232894761Y-135176190D02*
X232894761Y-134914286D01*
X232870952Y-134866667D01*
X232823333Y-134842857D01*
X232751904Y-134842857D01*
X232704285Y-134866667D01*
X232680476Y-134890476D01*
X233132857Y-135176190D02*
X233132857Y-134842857D01*
X233132857Y-134890476D02*
X233156666Y-134866667D01*
X233204285Y-134842857D01*
X233275714Y-134842857D01*
X233323333Y-134866667D01*
X233347142Y-134914286D01*
X233347142Y-135176190D01*
X233347142Y-134914286D02*
X233370952Y-134866667D01*
X233418571Y-134842857D01*
X233489999Y-134842857D01*
X233537619Y-134866667D01*
X233561428Y-134914286D01*
X233561428Y-135176190D01*
X230670476Y-153186190D02*
X230384762Y-153186190D01*
X230527619Y-153186190D02*
X230527619Y-152686190D01*
X230480000Y-152757619D01*
X230432381Y-152805238D01*
X230384762Y-152829048D01*
X230980000Y-152686190D02*
X231027619Y-152686190D01*
X231075238Y-152710000D01*
X231099047Y-152733810D01*
X231122857Y-152781429D01*
X231146666Y-152876667D01*
X231146666Y-152995714D01*
X231122857Y-153090952D01*
X231099047Y-153138571D01*
X231075238Y-153162381D01*
X231027619Y-153186190D01*
X230980000Y-153186190D01*
X230932381Y-153162381D01*
X230908571Y-153138571D01*
X230884762Y-153090952D01*
X230860952Y-152995714D01*
X230860952Y-152876667D01*
X230884762Y-152781429D01*
X230908571Y-152733810D01*
X230932381Y-152710000D01*
X230980000Y-152686190D01*
X231741904Y-153186190D02*
X231741904Y-152686190D01*
X231789523Y-152995714D02*
X231932380Y-153186190D01*
X231932380Y-152852857D02*
X231741904Y-153043333D01*
X232241904Y-152686190D02*
X232337142Y-152686190D01*
X232384761Y-152710000D01*
X232432380Y-152757619D01*
X232456189Y-152852857D01*
X232456189Y-153019524D01*
X232432380Y-153114762D01*
X232384761Y-153162381D01*
X232337142Y-153186190D01*
X232241904Y-153186190D01*
X232194285Y-153162381D01*
X232146666Y-153114762D01*
X232122856Y-153019524D01*
X232122856Y-152852857D01*
X232146666Y-152757619D01*
X232194285Y-152710000D01*
X232241904Y-152686190D01*
X232670476Y-153186190D02*
X232670476Y-152686190D01*
X232884761Y-153186190D02*
X232884761Y-152924286D01*
X232860952Y-152876667D01*
X232813333Y-152852857D01*
X232741904Y-152852857D01*
X232694285Y-152876667D01*
X232670476Y-152900476D01*
X233122857Y-153186190D02*
X233122857Y-152852857D01*
X233122857Y-152900476D02*
X233146666Y-152876667D01*
X233194285Y-152852857D01*
X233265714Y-152852857D01*
X233313333Y-152876667D01*
X233337142Y-152924286D01*
X233337142Y-153186190D01*
X233337142Y-152924286D02*
X233360952Y-152876667D01*
X233408571Y-152852857D01*
X233479999Y-152852857D01*
X233527619Y-152876667D01*
X233551428Y-152924286D01*
X233551428Y-153186190D01*
X181930476Y-195536190D02*
X181644762Y-195536190D01*
X181787619Y-195536190D02*
X181787619Y-195036190D01*
X181740000Y-195107619D01*
X181692381Y-195155238D01*
X181644762Y-195179048D01*
X182240000Y-195036190D02*
X182287619Y-195036190D01*
X182335238Y-195060000D01*
X182359047Y-195083810D01*
X182382857Y-195131429D01*
X182406666Y-195226667D01*
X182406666Y-195345714D01*
X182382857Y-195440952D01*
X182359047Y-195488571D01*
X182335238Y-195512381D01*
X182287619Y-195536190D01*
X182240000Y-195536190D01*
X182192381Y-195512381D01*
X182168571Y-195488571D01*
X182144762Y-195440952D01*
X182120952Y-195345714D01*
X182120952Y-195226667D01*
X182144762Y-195131429D01*
X182168571Y-195083810D01*
X182192381Y-195060000D01*
X182240000Y-195036190D01*
X183001904Y-195536190D02*
X183001904Y-195036190D01*
X183049523Y-195345714D02*
X183192380Y-195536190D01*
X183192380Y-195202857D02*
X183001904Y-195393333D01*
X183501904Y-195036190D02*
X183597142Y-195036190D01*
X183644761Y-195060000D01*
X183692380Y-195107619D01*
X183716189Y-195202857D01*
X183716189Y-195369524D01*
X183692380Y-195464762D01*
X183644761Y-195512381D01*
X183597142Y-195536190D01*
X183501904Y-195536190D01*
X183454285Y-195512381D01*
X183406666Y-195464762D01*
X183382856Y-195369524D01*
X183382856Y-195202857D01*
X183406666Y-195107619D01*
X183454285Y-195060000D01*
X183501904Y-195036190D01*
X183930476Y-195536190D02*
X183930476Y-195036190D01*
X184144761Y-195536190D02*
X184144761Y-195274286D01*
X184120952Y-195226667D01*
X184073333Y-195202857D01*
X184001904Y-195202857D01*
X183954285Y-195226667D01*
X183930476Y-195250476D01*
X184382857Y-195536190D02*
X184382857Y-195202857D01*
X184382857Y-195250476D02*
X184406666Y-195226667D01*
X184454285Y-195202857D01*
X184525714Y-195202857D01*
X184573333Y-195226667D01*
X184597142Y-195274286D01*
X184597142Y-195536190D01*
X184597142Y-195274286D02*
X184620952Y-195226667D01*
X184668571Y-195202857D01*
X184739999Y-195202857D01*
X184787619Y-195226667D01*
X184811428Y-195274286D01*
X184811428Y-195536190D01*
X154630476Y-195346190D02*
X154344762Y-195346190D01*
X154487619Y-195346190D02*
X154487619Y-194846190D01*
X154440000Y-194917619D01*
X154392381Y-194965238D01*
X154344762Y-194989048D01*
X154940000Y-194846190D02*
X154987619Y-194846190D01*
X155035238Y-194870000D01*
X155059047Y-194893810D01*
X155082857Y-194941429D01*
X155106666Y-195036667D01*
X155106666Y-195155714D01*
X155082857Y-195250952D01*
X155059047Y-195298571D01*
X155035238Y-195322381D01*
X154987619Y-195346190D01*
X154940000Y-195346190D01*
X154892381Y-195322381D01*
X154868571Y-195298571D01*
X154844762Y-195250952D01*
X154820952Y-195155714D01*
X154820952Y-195036667D01*
X154844762Y-194941429D01*
X154868571Y-194893810D01*
X154892381Y-194870000D01*
X154940000Y-194846190D01*
X155701904Y-195346190D02*
X155701904Y-194846190D01*
X155749523Y-195155714D02*
X155892380Y-195346190D01*
X155892380Y-195012857D02*
X155701904Y-195203333D01*
X156201904Y-194846190D02*
X156297142Y-194846190D01*
X156344761Y-194870000D01*
X156392380Y-194917619D01*
X156416189Y-195012857D01*
X156416189Y-195179524D01*
X156392380Y-195274762D01*
X156344761Y-195322381D01*
X156297142Y-195346190D01*
X156201904Y-195346190D01*
X156154285Y-195322381D01*
X156106666Y-195274762D01*
X156082856Y-195179524D01*
X156082856Y-195012857D01*
X156106666Y-194917619D01*
X156154285Y-194870000D01*
X156201904Y-194846190D01*
X156630476Y-195346190D02*
X156630476Y-194846190D01*
X156844761Y-195346190D02*
X156844761Y-195084286D01*
X156820952Y-195036667D01*
X156773333Y-195012857D01*
X156701904Y-195012857D01*
X156654285Y-195036667D01*
X156630476Y-195060476D01*
X157082857Y-195346190D02*
X157082857Y-195012857D01*
X157082857Y-195060476D02*
X157106666Y-195036667D01*
X157154285Y-195012857D01*
X157225714Y-195012857D01*
X157273333Y-195036667D01*
X157297142Y-195084286D01*
X157297142Y-195346190D01*
X157297142Y-195084286D02*
X157320952Y-195036667D01*
X157368571Y-195012857D01*
X157439999Y-195012857D01*
X157487619Y-195036667D01*
X157511428Y-195084286D01*
X157511428Y-195346190D01*
X127850476Y-195476190D02*
X127564762Y-195476190D01*
X127707619Y-195476190D02*
X127707619Y-194976190D01*
X127660000Y-195047619D01*
X127612381Y-195095238D01*
X127564762Y-195119048D01*
X128160000Y-194976190D02*
X128207619Y-194976190D01*
X128255238Y-195000000D01*
X128279047Y-195023810D01*
X128302857Y-195071429D01*
X128326666Y-195166667D01*
X128326666Y-195285714D01*
X128302857Y-195380952D01*
X128279047Y-195428571D01*
X128255238Y-195452381D01*
X128207619Y-195476190D01*
X128160000Y-195476190D01*
X128112381Y-195452381D01*
X128088571Y-195428571D01*
X128064762Y-195380952D01*
X128040952Y-195285714D01*
X128040952Y-195166667D01*
X128064762Y-195071429D01*
X128088571Y-195023810D01*
X128112381Y-195000000D01*
X128160000Y-194976190D01*
X128921904Y-195476190D02*
X128921904Y-194976190D01*
X128969523Y-195285714D02*
X129112380Y-195476190D01*
X129112380Y-195142857D02*
X128921904Y-195333333D01*
X129421904Y-194976190D02*
X129517142Y-194976190D01*
X129564761Y-195000000D01*
X129612380Y-195047619D01*
X129636189Y-195142857D01*
X129636189Y-195309524D01*
X129612380Y-195404762D01*
X129564761Y-195452381D01*
X129517142Y-195476190D01*
X129421904Y-195476190D01*
X129374285Y-195452381D01*
X129326666Y-195404762D01*
X129302856Y-195309524D01*
X129302856Y-195142857D01*
X129326666Y-195047619D01*
X129374285Y-195000000D01*
X129421904Y-194976190D01*
X129850476Y-195476190D02*
X129850476Y-194976190D01*
X130064761Y-195476190D02*
X130064761Y-195214286D01*
X130040952Y-195166667D01*
X129993333Y-195142857D01*
X129921904Y-195142857D01*
X129874285Y-195166667D01*
X129850476Y-195190476D01*
X130302857Y-195476190D02*
X130302857Y-195142857D01*
X130302857Y-195190476D02*
X130326666Y-195166667D01*
X130374285Y-195142857D01*
X130445714Y-195142857D01*
X130493333Y-195166667D01*
X130517142Y-195214286D01*
X130517142Y-195476190D01*
X130517142Y-195214286D02*
X130540952Y-195166667D01*
X130588571Y-195142857D01*
X130659999Y-195142857D01*
X130707619Y-195166667D01*
X130731428Y-195214286D01*
X130731428Y-195476190D01*
X100720476Y-195476190D02*
X100434762Y-195476190D01*
X100577619Y-195476190D02*
X100577619Y-194976190D01*
X100530000Y-195047619D01*
X100482381Y-195095238D01*
X100434762Y-195119048D01*
X101030000Y-194976190D02*
X101077619Y-194976190D01*
X101125238Y-195000000D01*
X101149047Y-195023810D01*
X101172857Y-195071429D01*
X101196666Y-195166667D01*
X101196666Y-195285714D01*
X101172857Y-195380952D01*
X101149047Y-195428571D01*
X101125238Y-195452381D01*
X101077619Y-195476190D01*
X101030000Y-195476190D01*
X100982381Y-195452381D01*
X100958571Y-195428571D01*
X100934762Y-195380952D01*
X100910952Y-195285714D01*
X100910952Y-195166667D01*
X100934762Y-195071429D01*
X100958571Y-195023810D01*
X100982381Y-195000000D01*
X101030000Y-194976190D01*
X101791904Y-195476190D02*
X101791904Y-194976190D01*
X101839523Y-195285714D02*
X101982380Y-195476190D01*
X101982380Y-195142857D02*
X101791904Y-195333333D01*
X102291904Y-194976190D02*
X102387142Y-194976190D01*
X102434761Y-195000000D01*
X102482380Y-195047619D01*
X102506189Y-195142857D01*
X102506189Y-195309524D01*
X102482380Y-195404762D01*
X102434761Y-195452381D01*
X102387142Y-195476190D01*
X102291904Y-195476190D01*
X102244285Y-195452381D01*
X102196666Y-195404762D01*
X102172856Y-195309524D01*
X102172856Y-195142857D01*
X102196666Y-195047619D01*
X102244285Y-195000000D01*
X102291904Y-194976190D01*
X102720476Y-195476190D02*
X102720476Y-194976190D01*
X102934761Y-195476190D02*
X102934761Y-195214286D01*
X102910952Y-195166667D01*
X102863333Y-195142857D01*
X102791904Y-195142857D01*
X102744285Y-195166667D01*
X102720476Y-195190476D01*
X103172857Y-195476190D02*
X103172857Y-195142857D01*
X103172857Y-195190476D02*
X103196666Y-195166667D01*
X103244285Y-195142857D01*
X103315714Y-195142857D01*
X103363333Y-195166667D01*
X103387142Y-195214286D01*
X103387142Y-195476190D01*
X103387142Y-195214286D02*
X103410952Y-195166667D01*
X103458571Y-195142857D01*
X103529999Y-195142857D01*
X103577619Y-195166667D01*
X103601428Y-195214286D01*
X103601428Y-195476190D01*
X229895239Y-164196190D02*
X229990477Y-164196190D01*
X230038096Y-164172381D01*
X230061906Y-164148571D01*
X230109525Y-164077143D01*
X230133334Y-163981905D01*
X230133334Y-163791429D01*
X230109525Y-163743810D01*
X230085715Y-163720000D01*
X230038096Y-163696190D01*
X229942858Y-163696190D01*
X229895239Y-163720000D01*
X229871430Y-163743810D01*
X229847620Y-163791429D01*
X229847620Y-163910476D01*
X229871430Y-163958095D01*
X229895239Y-163981905D01*
X229942858Y-164005714D01*
X230038096Y-164005714D01*
X230085715Y-163981905D01*
X230109525Y-163958095D01*
X230133334Y-163910476D01*
X230347620Y-164148571D02*
X230371429Y-164172381D01*
X230347620Y-164196190D01*
X230323810Y-164172381D01*
X230347620Y-164148571D01*
X230347620Y-164196190D01*
X230538096Y-163696190D02*
X230871429Y-163696190D01*
X230657143Y-164196190D01*
X231276190Y-163696190D02*
X231180952Y-163696190D01*
X231133333Y-163720000D01*
X231109524Y-163743810D01*
X231061905Y-163815238D01*
X231038095Y-163910476D01*
X231038095Y-164100952D01*
X231061905Y-164148571D01*
X231085714Y-164172381D01*
X231133333Y-164196190D01*
X231228571Y-164196190D01*
X231276190Y-164172381D01*
X231300000Y-164148571D01*
X231323809Y-164100952D01*
X231323809Y-163981905D01*
X231300000Y-163934286D01*
X231276190Y-163910476D01*
X231228571Y-163886667D01*
X231133333Y-163886667D01*
X231085714Y-163910476D01*
X231061905Y-163934286D01*
X231038095Y-163981905D01*
X231919047Y-164196190D02*
X231919047Y-163696190D01*
X231966666Y-164005714D02*
X232109523Y-164196190D01*
X232109523Y-163862857D02*
X231919047Y-164053333D01*
X232419047Y-163696190D02*
X232514285Y-163696190D01*
X232561904Y-163720000D01*
X232609523Y-163767619D01*
X232633332Y-163862857D01*
X232633332Y-164029524D01*
X232609523Y-164124762D01*
X232561904Y-164172381D01*
X232514285Y-164196190D01*
X232419047Y-164196190D01*
X232371428Y-164172381D01*
X232323809Y-164124762D01*
X232299999Y-164029524D01*
X232299999Y-163862857D01*
X232323809Y-163767619D01*
X232371428Y-163720000D01*
X232419047Y-163696190D01*
X232847619Y-164196190D02*
X232847619Y-163696190D01*
X233061904Y-164196190D02*
X233061904Y-163934286D01*
X233038095Y-163886667D01*
X232990476Y-163862857D01*
X232919047Y-163862857D01*
X232871428Y-163886667D01*
X232847619Y-163910476D01*
X233300000Y-164196190D02*
X233300000Y-163862857D01*
X233300000Y-163910476D02*
X233323809Y-163886667D01*
X233371428Y-163862857D01*
X233442857Y-163862857D01*
X233490476Y-163886667D01*
X233514285Y-163934286D01*
X233514285Y-164196190D01*
X233514285Y-163934286D02*
X233538095Y-163886667D01*
X233585714Y-163862857D01*
X233657142Y-163862857D01*
X233704762Y-163886667D01*
X233728571Y-163934286D01*
X233728571Y-164196190D01*
X186073810Y-176836190D02*
X185788096Y-176836190D01*
X185930953Y-176836190D02*
X185930953Y-176336190D01*
X185883334Y-176407619D01*
X185835715Y-176455238D01*
X185788096Y-176479048D01*
X186383334Y-176336190D02*
X186430953Y-176336190D01*
X186478572Y-176360000D01*
X186502381Y-176383810D01*
X186526191Y-176431429D01*
X186550000Y-176526667D01*
X186550000Y-176645714D01*
X186526191Y-176740952D01*
X186502381Y-176788571D01*
X186478572Y-176812381D01*
X186430953Y-176836190D01*
X186383334Y-176836190D01*
X186335715Y-176812381D01*
X186311905Y-176788571D01*
X186288096Y-176740952D01*
X186264286Y-176645714D01*
X186264286Y-176526667D01*
X186288096Y-176431429D01*
X186311905Y-176383810D01*
X186335715Y-176360000D01*
X186383334Y-176336190D01*
X187359523Y-176502857D02*
X187359523Y-176836190D01*
X187145238Y-176502857D02*
X187145238Y-176764762D01*
X187169047Y-176812381D01*
X187216666Y-176836190D01*
X187288095Y-176836190D01*
X187335714Y-176812381D01*
X187359523Y-176788571D01*
X187764285Y-176574286D02*
X187597619Y-176574286D01*
X187597619Y-176836190D02*
X187597619Y-176336190D01*
X187835714Y-176336190D01*
X108443810Y-69786190D02*
X108158096Y-69786190D01*
X108300953Y-69786190D02*
X108300953Y-69286190D01*
X108253334Y-69357619D01*
X108205715Y-69405238D01*
X108158096Y-69429048D01*
X108753334Y-69286190D02*
X108800953Y-69286190D01*
X108848572Y-69310000D01*
X108872381Y-69333810D01*
X108896191Y-69381429D01*
X108920000Y-69476667D01*
X108920000Y-69595714D01*
X108896191Y-69690952D01*
X108872381Y-69738571D01*
X108848572Y-69762381D01*
X108800953Y-69786190D01*
X108753334Y-69786190D01*
X108705715Y-69762381D01*
X108681905Y-69738571D01*
X108658096Y-69690952D01*
X108634286Y-69595714D01*
X108634286Y-69476667D01*
X108658096Y-69381429D01*
X108681905Y-69333810D01*
X108705715Y-69310000D01*
X108753334Y-69286190D01*
X109729523Y-69452857D02*
X109729523Y-69786190D01*
X109515238Y-69452857D02*
X109515238Y-69714762D01*
X109539047Y-69762381D01*
X109586666Y-69786190D01*
X109658095Y-69786190D01*
X109705714Y-69762381D01*
X109729523Y-69738571D01*
X110134285Y-69524286D02*
X109967619Y-69524286D01*
X109967619Y-69786190D02*
X109967619Y-69286190D01*
X110205714Y-69286190D01*
X135343810Y-69826190D02*
X135058096Y-69826190D01*
X135200953Y-69826190D02*
X135200953Y-69326190D01*
X135153334Y-69397619D01*
X135105715Y-69445238D01*
X135058096Y-69469048D01*
X135653334Y-69326190D02*
X135700953Y-69326190D01*
X135748572Y-69350000D01*
X135772381Y-69373810D01*
X135796191Y-69421429D01*
X135820000Y-69516667D01*
X135820000Y-69635714D01*
X135796191Y-69730952D01*
X135772381Y-69778571D01*
X135748572Y-69802381D01*
X135700953Y-69826190D01*
X135653334Y-69826190D01*
X135605715Y-69802381D01*
X135581905Y-69778571D01*
X135558096Y-69730952D01*
X135534286Y-69635714D01*
X135534286Y-69516667D01*
X135558096Y-69421429D01*
X135581905Y-69373810D01*
X135605715Y-69350000D01*
X135653334Y-69326190D01*
X136629523Y-69492857D02*
X136629523Y-69826190D01*
X136415238Y-69492857D02*
X136415238Y-69754762D01*
X136439047Y-69802381D01*
X136486666Y-69826190D01*
X136558095Y-69826190D01*
X136605714Y-69802381D01*
X136629523Y-69778571D01*
X137034285Y-69564286D02*
X136867619Y-69564286D01*
X136867619Y-69826190D02*
X136867619Y-69326190D01*
X137105714Y-69326190D01*
X162403810Y-69786190D02*
X162118096Y-69786190D01*
X162260953Y-69786190D02*
X162260953Y-69286190D01*
X162213334Y-69357619D01*
X162165715Y-69405238D01*
X162118096Y-69429048D01*
X162713334Y-69286190D02*
X162760953Y-69286190D01*
X162808572Y-69310000D01*
X162832381Y-69333810D01*
X162856191Y-69381429D01*
X162880000Y-69476667D01*
X162880000Y-69595714D01*
X162856191Y-69690952D01*
X162832381Y-69738571D01*
X162808572Y-69762381D01*
X162760953Y-69786190D01*
X162713334Y-69786190D01*
X162665715Y-69762381D01*
X162641905Y-69738571D01*
X162618096Y-69690952D01*
X162594286Y-69595714D01*
X162594286Y-69476667D01*
X162618096Y-69381429D01*
X162641905Y-69333810D01*
X162665715Y-69310000D01*
X162713334Y-69286190D01*
X163689523Y-69452857D02*
X163689523Y-69786190D01*
X163475238Y-69452857D02*
X163475238Y-69714762D01*
X163499047Y-69762381D01*
X163546666Y-69786190D01*
X163618095Y-69786190D01*
X163665714Y-69762381D01*
X163689523Y-69738571D01*
X164094285Y-69524286D02*
X163927619Y-69524286D01*
X163927619Y-69786190D02*
X163927619Y-69286190D01*
X164165714Y-69286190D01*
X189243810Y-69706190D02*
X188958096Y-69706190D01*
X189100953Y-69706190D02*
X189100953Y-69206190D01*
X189053334Y-69277619D01*
X189005715Y-69325238D01*
X188958096Y-69349048D01*
X189553334Y-69206190D02*
X189600953Y-69206190D01*
X189648572Y-69230000D01*
X189672381Y-69253810D01*
X189696191Y-69301429D01*
X189720000Y-69396667D01*
X189720000Y-69515714D01*
X189696191Y-69610952D01*
X189672381Y-69658571D01*
X189648572Y-69682381D01*
X189600953Y-69706190D01*
X189553334Y-69706190D01*
X189505715Y-69682381D01*
X189481905Y-69658571D01*
X189458096Y-69610952D01*
X189434286Y-69515714D01*
X189434286Y-69396667D01*
X189458096Y-69301429D01*
X189481905Y-69253810D01*
X189505715Y-69230000D01*
X189553334Y-69206190D01*
X190529523Y-69372857D02*
X190529523Y-69706190D01*
X190315238Y-69372857D02*
X190315238Y-69634762D01*
X190339047Y-69682381D01*
X190386666Y-69706190D01*
X190458095Y-69706190D01*
X190505714Y-69682381D01*
X190529523Y-69658571D01*
X190934285Y-69444286D02*
X190767619Y-69444286D01*
X190767619Y-69706190D02*
X190767619Y-69206190D01*
X191005714Y-69206190D01*
X231363810Y-102496190D02*
X231078096Y-102496190D01*
X231220953Y-102496190D02*
X231220953Y-101996190D01*
X231173334Y-102067619D01*
X231125715Y-102115238D01*
X231078096Y-102139048D01*
X231673334Y-101996190D02*
X231720953Y-101996190D01*
X231768572Y-102020000D01*
X231792381Y-102043810D01*
X231816191Y-102091429D01*
X231840000Y-102186667D01*
X231840000Y-102305714D01*
X231816191Y-102400952D01*
X231792381Y-102448571D01*
X231768572Y-102472381D01*
X231720953Y-102496190D01*
X231673334Y-102496190D01*
X231625715Y-102472381D01*
X231601905Y-102448571D01*
X231578096Y-102400952D01*
X231554286Y-102305714D01*
X231554286Y-102186667D01*
X231578096Y-102091429D01*
X231601905Y-102043810D01*
X231625715Y-102020000D01*
X231673334Y-101996190D01*
X232649523Y-102162857D02*
X232649523Y-102496190D01*
X232435238Y-102162857D02*
X232435238Y-102424762D01*
X232459047Y-102472381D01*
X232506666Y-102496190D01*
X232578095Y-102496190D01*
X232625714Y-102472381D01*
X232649523Y-102448571D01*
X233054285Y-102234286D02*
X232887619Y-102234286D01*
X232887619Y-102496190D02*
X232887619Y-101996190D01*
X233125714Y-101996190D01*
X231303810Y-120446190D02*
X231018096Y-120446190D01*
X231160953Y-120446190D02*
X231160953Y-119946190D01*
X231113334Y-120017619D01*
X231065715Y-120065238D01*
X231018096Y-120089048D01*
X231613334Y-119946190D02*
X231660953Y-119946190D01*
X231708572Y-119970000D01*
X231732381Y-119993810D01*
X231756191Y-120041429D01*
X231780000Y-120136667D01*
X231780000Y-120255714D01*
X231756191Y-120350952D01*
X231732381Y-120398571D01*
X231708572Y-120422381D01*
X231660953Y-120446190D01*
X231613334Y-120446190D01*
X231565715Y-120422381D01*
X231541905Y-120398571D01*
X231518096Y-120350952D01*
X231494286Y-120255714D01*
X231494286Y-120136667D01*
X231518096Y-120041429D01*
X231541905Y-119993810D01*
X231565715Y-119970000D01*
X231613334Y-119946190D01*
X232589523Y-120112857D02*
X232589523Y-120446190D01*
X232375238Y-120112857D02*
X232375238Y-120374762D01*
X232399047Y-120422381D01*
X232446666Y-120446190D01*
X232518095Y-120446190D01*
X232565714Y-120422381D01*
X232589523Y-120398571D01*
X232994285Y-120184286D02*
X232827619Y-120184286D01*
X232827619Y-120446190D02*
X232827619Y-119946190D01*
X233065714Y-119946190D01*
X231443810Y-138526190D02*
X231158096Y-138526190D01*
X231300953Y-138526190D02*
X231300953Y-138026190D01*
X231253334Y-138097619D01*
X231205715Y-138145238D01*
X231158096Y-138169048D01*
X231753334Y-138026190D02*
X231800953Y-138026190D01*
X231848572Y-138050000D01*
X231872381Y-138073810D01*
X231896191Y-138121429D01*
X231920000Y-138216667D01*
X231920000Y-138335714D01*
X231896191Y-138430952D01*
X231872381Y-138478571D01*
X231848572Y-138502381D01*
X231800953Y-138526190D01*
X231753334Y-138526190D01*
X231705715Y-138502381D01*
X231681905Y-138478571D01*
X231658096Y-138430952D01*
X231634286Y-138335714D01*
X231634286Y-138216667D01*
X231658096Y-138121429D01*
X231681905Y-138073810D01*
X231705715Y-138050000D01*
X231753334Y-138026190D01*
X232729523Y-138192857D02*
X232729523Y-138526190D01*
X232515238Y-138192857D02*
X232515238Y-138454762D01*
X232539047Y-138502381D01*
X232586666Y-138526190D01*
X232658095Y-138526190D01*
X232705714Y-138502381D01*
X232729523Y-138478571D01*
X233134285Y-138264286D02*
X232967619Y-138264286D01*
X232967619Y-138526190D02*
X232967619Y-138026190D01*
X233205714Y-138026190D01*
X231303810Y-156406190D02*
X231018096Y-156406190D01*
X231160953Y-156406190D02*
X231160953Y-155906190D01*
X231113334Y-155977619D01*
X231065715Y-156025238D01*
X231018096Y-156049048D01*
X231613334Y-155906190D02*
X231660953Y-155906190D01*
X231708572Y-155930000D01*
X231732381Y-155953810D01*
X231756191Y-156001429D01*
X231780000Y-156096667D01*
X231780000Y-156215714D01*
X231756191Y-156310952D01*
X231732381Y-156358571D01*
X231708572Y-156382381D01*
X231660953Y-156406190D01*
X231613334Y-156406190D01*
X231565715Y-156382381D01*
X231541905Y-156358571D01*
X231518096Y-156310952D01*
X231494286Y-156215714D01*
X231494286Y-156096667D01*
X231518096Y-156001429D01*
X231541905Y-155953810D01*
X231565715Y-155930000D01*
X231613334Y-155906190D01*
X232589523Y-156072857D02*
X232589523Y-156406190D01*
X232375238Y-156072857D02*
X232375238Y-156334762D01*
X232399047Y-156382381D01*
X232446666Y-156406190D01*
X232518095Y-156406190D01*
X232565714Y-156382381D01*
X232589523Y-156358571D01*
X232994285Y-156144286D02*
X232827619Y-156144286D01*
X232827619Y-156406190D02*
X232827619Y-155906190D01*
X233065714Y-155906190D01*
X221791905Y-180596190D02*
X221506191Y-180596190D01*
X221649048Y-180596190D02*
X221649048Y-180096190D01*
X221601429Y-180167619D01*
X221553810Y-180215238D01*
X221506191Y-180239048D01*
X222601428Y-180262857D02*
X222601428Y-180596190D01*
X222387143Y-180262857D02*
X222387143Y-180524762D01*
X222410952Y-180572381D01*
X222458571Y-180596190D01*
X222530000Y-180596190D01*
X222577619Y-180572381D01*
X222601428Y-180548571D01*
X223006190Y-180334286D02*
X222839524Y-180334286D01*
X222839524Y-180596190D02*
X222839524Y-180096190D01*
X223077619Y-180096190D01*
X220211905Y-67486190D02*
X219926191Y-67486190D01*
X220069048Y-67486190D02*
X220069048Y-66986190D01*
X220021429Y-67057619D01*
X219973810Y-67105238D01*
X219926191Y-67129048D01*
X221021428Y-67152857D02*
X221021428Y-67486190D01*
X220807143Y-67152857D02*
X220807143Y-67414762D01*
X220830952Y-67462381D01*
X220878571Y-67486190D01*
X220950000Y-67486190D01*
X220997619Y-67462381D01*
X221021428Y-67438571D01*
X221426190Y-67224286D02*
X221259524Y-67224286D01*
X221259524Y-67486190D02*
X221259524Y-66986190D01*
X221497619Y-66986190D01*
X71471905Y-77606190D02*
X71186191Y-77606190D01*
X71329048Y-77606190D02*
X71329048Y-77106190D01*
X71281429Y-77177619D01*
X71233810Y-77225238D01*
X71186191Y-77249048D01*
X72281428Y-77272857D02*
X72281428Y-77606190D01*
X72067143Y-77272857D02*
X72067143Y-77534762D01*
X72090952Y-77582381D01*
X72138571Y-77606190D01*
X72210000Y-77606190D01*
X72257619Y-77582381D01*
X72281428Y-77558571D01*
X72686190Y-77344286D02*
X72519524Y-77344286D01*
X72519524Y-77606190D02*
X72519524Y-77106190D01*
X72757619Y-77106190D01*
X214308097Y-158426190D02*
X214070002Y-158426190D01*
X214070002Y-157926190D01*
X214474764Y-158164286D02*
X214641430Y-158164286D01*
X214712859Y-158426190D02*
X214474764Y-158426190D01*
X214474764Y-157926190D01*
X214712859Y-157926190D01*
X214927145Y-158426190D02*
X214927145Y-157926190D01*
X215046192Y-157926190D01*
X215117621Y-157950000D01*
X215165240Y-157997619D01*
X215189049Y-158045238D01*
X215212859Y-158140476D01*
X215212859Y-158211905D01*
X215189049Y-158307143D01*
X215165240Y-158354762D01*
X215117621Y-158402381D01*
X215046192Y-158426190D01*
X214927145Y-158426190D01*
X215808097Y-158426190D02*
X215808097Y-157926190D01*
X215927144Y-157926190D01*
X215998573Y-157950000D01*
X216046192Y-157997619D01*
X216070001Y-158045238D01*
X216093811Y-158140476D01*
X216093811Y-158211905D01*
X216070001Y-158307143D01*
X216046192Y-158354762D01*
X215998573Y-158402381D01*
X215927144Y-158426190D01*
X215808097Y-158426190D01*
X216308097Y-158426190D02*
X216308097Y-158092857D01*
X216308097Y-158188095D02*
X216331906Y-158140476D01*
X216355716Y-158116667D01*
X216403335Y-158092857D01*
X216450954Y-158092857D01*
X216617621Y-158426190D02*
X216617621Y-158092857D01*
X216617621Y-157926190D02*
X216593811Y-157950000D01*
X216617621Y-157973810D01*
X216641430Y-157950000D01*
X216617621Y-157926190D01*
X216617621Y-157973810D01*
X216808097Y-158092857D02*
X216927144Y-158426190D01*
X217046192Y-158092857D01*
X217427144Y-158402381D02*
X217379525Y-158426190D01*
X217284287Y-158426190D01*
X217236668Y-158402381D01*
X217212858Y-158354762D01*
X217212858Y-158164286D01*
X217236668Y-158116667D01*
X217284287Y-158092857D01*
X217379525Y-158092857D01*
X217427144Y-158116667D01*
X217450953Y-158164286D01*
X217450953Y-158211905D01*
X217212858Y-158259524D01*
X217665239Y-158426190D02*
X217665239Y-158092857D01*
X217665239Y-158188095D02*
X217689048Y-158140476D01*
X217712858Y-158116667D01*
X217760477Y-158092857D01*
X217808096Y-158092857D01*
X218617619Y-158426190D02*
X218331905Y-158426190D01*
X218474762Y-158426190D02*
X218474762Y-157926190D01*
X218427143Y-157997619D01*
X218379524Y-158045238D01*
X218331905Y-158069048D01*
X218808095Y-157973810D02*
X218831905Y-157950000D01*
X218879524Y-157926190D01*
X218998571Y-157926190D01*
X219046190Y-157950000D01*
X219070000Y-157973810D01*
X219093809Y-158021429D01*
X219093809Y-158069048D01*
X219070000Y-158140476D01*
X218784286Y-158426190D01*
X219093809Y-158426190D01*
X214308097Y-140626190D02*
X214070002Y-140626190D01*
X214070002Y-140126190D01*
X214474764Y-140364286D02*
X214641430Y-140364286D01*
X214712859Y-140626190D02*
X214474764Y-140626190D01*
X214474764Y-140126190D01*
X214712859Y-140126190D01*
X214927145Y-140626190D02*
X214927145Y-140126190D01*
X215046192Y-140126190D01*
X215117621Y-140150000D01*
X215165240Y-140197619D01*
X215189049Y-140245238D01*
X215212859Y-140340476D01*
X215212859Y-140411905D01*
X215189049Y-140507143D01*
X215165240Y-140554762D01*
X215117621Y-140602381D01*
X215046192Y-140626190D01*
X214927145Y-140626190D01*
X215808097Y-140626190D02*
X215808097Y-140126190D01*
X215927144Y-140126190D01*
X215998573Y-140150000D01*
X216046192Y-140197619D01*
X216070001Y-140245238D01*
X216093811Y-140340476D01*
X216093811Y-140411905D01*
X216070001Y-140507143D01*
X216046192Y-140554762D01*
X215998573Y-140602381D01*
X215927144Y-140626190D01*
X215808097Y-140626190D01*
X216308097Y-140626190D02*
X216308097Y-140292857D01*
X216308097Y-140388095D02*
X216331906Y-140340476D01*
X216355716Y-140316667D01*
X216403335Y-140292857D01*
X216450954Y-140292857D01*
X216617621Y-140626190D02*
X216617621Y-140292857D01*
X216617621Y-140126190D02*
X216593811Y-140150000D01*
X216617621Y-140173810D01*
X216641430Y-140150000D01*
X216617621Y-140126190D01*
X216617621Y-140173810D01*
X216808097Y-140292857D02*
X216927144Y-140626190D01*
X217046192Y-140292857D01*
X217427144Y-140602381D02*
X217379525Y-140626190D01*
X217284287Y-140626190D01*
X217236668Y-140602381D01*
X217212858Y-140554762D01*
X217212858Y-140364286D01*
X217236668Y-140316667D01*
X217284287Y-140292857D01*
X217379525Y-140292857D01*
X217427144Y-140316667D01*
X217450953Y-140364286D01*
X217450953Y-140411905D01*
X217212858Y-140459524D01*
X217665239Y-140626190D02*
X217665239Y-140292857D01*
X217665239Y-140388095D02*
X217689048Y-140340476D01*
X217712858Y-140316667D01*
X217760477Y-140292857D01*
X217808096Y-140292857D01*
X218617619Y-140626190D02*
X218331905Y-140626190D01*
X218474762Y-140626190D02*
X218474762Y-140126190D01*
X218427143Y-140197619D01*
X218379524Y-140245238D01*
X218331905Y-140269048D01*
X219093809Y-140626190D02*
X218808095Y-140626190D01*
X218950952Y-140626190D02*
X218950952Y-140126190D01*
X218903333Y-140197619D01*
X218855714Y-140245238D01*
X218808095Y-140269048D01*
X214846192Y-104513690D02*
X214608097Y-104513690D01*
X214608097Y-104013690D01*
X215012859Y-104251786D02*
X215179525Y-104251786D01*
X215250954Y-104513690D02*
X215012859Y-104513690D01*
X215012859Y-104013690D01*
X215250954Y-104013690D01*
X215465240Y-104513690D02*
X215465240Y-104013690D01*
X215584287Y-104013690D01*
X215655716Y-104037500D01*
X215703335Y-104085119D01*
X215727144Y-104132738D01*
X215750954Y-104227976D01*
X215750954Y-104299405D01*
X215727144Y-104394643D01*
X215703335Y-104442262D01*
X215655716Y-104489881D01*
X215584287Y-104513690D01*
X215465240Y-104513690D01*
X216346192Y-104513690D02*
X216346192Y-104013690D01*
X216465239Y-104013690D01*
X216536668Y-104037500D01*
X216584287Y-104085119D01*
X216608096Y-104132738D01*
X216631906Y-104227976D01*
X216631906Y-104299405D01*
X216608096Y-104394643D01*
X216584287Y-104442262D01*
X216536668Y-104489881D01*
X216465239Y-104513690D01*
X216346192Y-104513690D01*
X216846192Y-104513690D02*
X216846192Y-104180357D01*
X216846192Y-104275595D02*
X216870001Y-104227976D01*
X216893811Y-104204167D01*
X216941430Y-104180357D01*
X216989049Y-104180357D01*
X217155716Y-104513690D02*
X217155716Y-104180357D01*
X217155716Y-104013690D02*
X217131906Y-104037500D01*
X217155716Y-104061310D01*
X217179525Y-104037500D01*
X217155716Y-104013690D01*
X217155716Y-104061310D01*
X217346192Y-104180357D02*
X217465239Y-104513690D01*
X217584287Y-104180357D01*
X217965239Y-104489881D02*
X217917620Y-104513690D01*
X217822382Y-104513690D01*
X217774763Y-104489881D01*
X217750953Y-104442262D01*
X217750953Y-104251786D01*
X217774763Y-104204167D01*
X217822382Y-104180357D01*
X217917620Y-104180357D01*
X217965239Y-104204167D01*
X217989048Y-104251786D01*
X217989048Y-104299405D01*
X217750953Y-104347024D01*
X218203334Y-104513690D02*
X218203334Y-104180357D01*
X218203334Y-104275595D02*
X218227143Y-104227976D01*
X218250953Y-104204167D01*
X218298572Y-104180357D01*
X218346191Y-104180357D01*
X218917619Y-104513690D02*
X219012857Y-104513690D01*
X219060476Y-104489881D01*
X219084286Y-104466071D01*
X219131905Y-104394643D01*
X219155714Y-104299405D01*
X219155714Y-104108929D01*
X219131905Y-104061310D01*
X219108095Y-104037500D01*
X219060476Y-104013690D01*
X218965238Y-104013690D01*
X218917619Y-104037500D01*
X218893810Y-104061310D01*
X218870000Y-104108929D01*
X218870000Y-104227976D01*
X218893810Y-104275595D01*
X218917619Y-104299405D01*
X218965238Y-104323214D01*
X219060476Y-104323214D01*
X219108095Y-104299405D01*
X219131905Y-104275595D01*
X219155714Y-104227976D01*
X214308097Y-122626190D02*
X214070002Y-122626190D01*
X214070002Y-122126190D01*
X214474764Y-122364286D02*
X214641430Y-122364286D01*
X214712859Y-122626190D02*
X214474764Y-122626190D01*
X214474764Y-122126190D01*
X214712859Y-122126190D01*
X214927145Y-122626190D02*
X214927145Y-122126190D01*
X215046192Y-122126190D01*
X215117621Y-122150000D01*
X215165240Y-122197619D01*
X215189049Y-122245238D01*
X215212859Y-122340476D01*
X215212859Y-122411905D01*
X215189049Y-122507143D01*
X215165240Y-122554762D01*
X215117621Y-122602381D01*
X215046192Y-122626190D01*
X214927145Y-122626190D01*
X215808097Y-122626190D02*
X215808097Y-122126190D01*
X215927144Y-122126190D01*
X215998573Y-122150000D01*
X216046192Y-122197619D01*
X216070001Y-122245238D01*
X216093811Y-122340476D01*
X216093811Y-122411905D01*
X216070001Y-122507143D01*
X216046192Y-122554762D01*
X215998573Y-122602381D01*
X215927144Y-122626190D01*
X215808097Y-122626190D01*
X216308097Y-122626190D02*
X216308097Y-122292857D01*
X216308097Y-122388095D02*
X216331906Y-122340476D01*
X216355716Y-122316667D01*
X216403335Y-122292857D01*
X216450954Y-122292857D01*
X216617621Y-122626190D02*
X216617621Y-122292857D01*
X216617621Y-122126190D02*
X216593811Y-122150000D01*
X216617621Y-122173810D01*
X216641430Y-122150000D01*
X216617621Y-122126190D01*
X216617621Y-122173810D01*
X216808097Y-122292857D02*
X216927144Y-122626190D01*
X217046192Y-122292857D01*
X217427144Y-122602381D02*
X217379525Y-122626190D01*
X217284287Y-122626190D01*
X217236668Y-122602381D01*
X217212858Y-122554762D01*
X217212858Y-122364286D01*
X217236668Y-122316667D01*
X217284287Y-122292857D01*
X217379525Y-122292857D01*
X217427144Y-122316667D01*
X217450953Y-122364286D01*
X217450953Y-122411905D01*
X217212858Y-122459524D01*
X217665239Y-122626190D02*
X217665239Y-122292857D01*
X217665239Y-122388095D02*
X217689048Y-122340476D01*
X217712858Y-122316667D01*
X217760477Y-122292857D01*
X217808096Y-122292857D01*
X218617619Y-122626190D02*
X218331905Y-122626190D01*
X218474762Y-122626190D02*
X218474762Y-122126190D01*
X218427143Y-122197619D01*
X218379524Y-122245238D01*
X218331905Y-122269048D01*
X218927143Y-122126190D02*
X218974762Y-122126190D01*
X219022381Y-122150000D01*
X219046190Y-122173810D01*
X219070000Y-122221429D01*
X219093809Y-122316667D01*
X219093809Y-122435714D01*
X219070000Y-122530952D01*
X219046190Y-122578571D01*
X219022381Y-122602381D01*
X218974762Y-122626190D01*
X218927143Y-122626190D01*
X218879524Y-122602381D01*
X218855714Y-122578571D01*
X218831905Y-122530952D01*
X218808095Y-122435714D01*
X218808095Y-122316667D01*
X218831905Y-122221429D01*
X218855714Y-122173810D01*
X218879524Y-122150000D01*
X218927143Y-122126190D01*
X188016192Y-191416190D02*
X187778097Y-191416190D01*
X187778097Y-190916190D01*
X188182859Y-191154286D02*
X188349525Y-191154286D01*
X188420954Y-191416190D02*
X188182859Y-191416190D01*
X188182859Y-190916190D01*
X188420954Y-190916190D01*
X188635240Y-191416190D02*
X188635240Y-190916190D01*
X188754287Y-190916190D01*
X188825716Y-190940000D01*
X188873335Y-190987619D01*
X188897144Y-191035238D01*
X188920954Y-191130476D01*
X188920954Y-191201905D01*
X188897144Y-191297143D01*
X188873335Y-191344762D01*
X188825716Y-191392381D01*
X188754287Y-191416190D01*
X188635240Y-191416190D01*
X189516192Y-191416190D02*
X189516192Y-190916190D01*
X189635239Y-190916190D01*
X189706668Y-190940000D01*
X189754287Y-190987619D01*
X189778096Y-191035238D01*
X189801906Y-191130476D01*
X189801906Y-191201905D01*
X189778096Y-191297143D01*
X189754287Y-191344762D01*
X189706668Y-191392381D01*
X189635239Y-191416190D01*
X189516192Y-191416190D01*
X190016192Y-191416190D02*
X190016192Y-191082857D01*
X190016192Y-191178095D02*
X190040001Y-191130476D01*
X190063811Y-191106667D01*
X190111430Y-191082857D01*
X190159049Y-191082857D01*
X190325716Y-191416190D02*
X190325716Y-191082857D01*
X190325716Y-190916190D02*
X190301906Y-190940000D01*
X190325716Y-190963810D01*
X190349525Y-190940000D01*
X190325716Y-190916190D01*
X190325716Y-190963810D01*
X190516192Y-191082857D02*
X190635239Y-191416190D01*
X190754287Y-191082857D01*
X191135239Y-191392381D02*
X191087620Y-191416190D01*
X190992382Y-191416190D01*
X190944763Y-191392381D01*
X190920953Y-191344762D01*
X190920953Y-191154286D01*
X190944763Y-191106667D01*
X190992382Y-191082857D01*
X191087620Y-191082857D01*
X191135239Y-191106667D01*
X191159048Y-191154286D01*
X191159048Y-191201905D01*
X190920953Y-191249524D01*
X191373334Y-191416190D02*
X191373334Y-191082857D01*
X191373334Y-191178095D02*
X191397143Y-191130476D01*
X191420953Y-191106667D01*
X191468572Y-191082857D01*
X191516191Y-191082857D01*
X192135238Y-191130476D02*
X192087619Y-191106667D01*
X192063810Y-191082857D01*
X192040000Y-191035238D01*
X192040000Y-191011429D01*
X192063810Y-190963810D01*
X192087619Y-190940000D01*
X192135238Y-190916190D01*
X192230476Y-190916190D01*
X192278095Y-190940000D01*
X192301905Y-190963810D01*
X192325714Y-191011429D01*
X192325714Y-191035238D01*
X192301905Y-191082857D01*
X192278095Y-191106667D01*
X192230476Y-191130476D01*
X192135238Y-191130476D01*
X192087619Y-191154286D01*
X192063810Y-191178095D01*
X192040000Y-191225714D01*
X192040000Y-191320952D01*
X192063810Y-191368571D01*
X192087619Y-191392381D01*
X192135238Y-191416190D01*
X192230476Y-191416190D01*
X192278095Y-191392381D01*
X192301905Y-191368571D01*
X192325714Y-191320952D01*
X192325714Y-191225714D01*
X192301905Y-191178095D01*
X192278095Y-191154286D01*
X192230476Y-191130476D01*
X161236192Y-191256190D02*
X160998097Y-191256190D01*
X160998097Y-190756190D01*
X161402859Y-190994286D02*
X161569525Y-190994286D01*
X161640954Y-191256190D02*
X161402859Y-191256190D01*
X161402859Y-190756190D01*
X161640954Y-190756190D01*
X161855240Y-191256190D02*
X161855240Y-190756190D01*
X161974287Y-190756190D01*
X162045716Y-190780000D01*
X162093335Y-190827619D01*
X162117144Y-190875238D01*
X162140954Y-190970476D01*
X162140954Y-191041905D01*
X162117144Y-191137143D01*
X162093335Y-191184762D01*
X162045716Y-191232381D01*
X161974287Y-191256190D01*
X161855240Y-191256190D01*
X162736192Y-191256190D02*
X162736192Y-190756190D01*
X162855239Y-190756190D01*
X162926668Y-190780000D01*
X162974287Y-190827619D01*
X162998096Y-190875238D01*
X163021906Y-190970476D01*
X163021906Y-191041905D01*
X162998096Y-191137143D01*
X162974287Y-191184762D01*
X162926668Y-191232381D01*
X162855239Y-191256190D01*
X162736192Y-191256190D01*
X163236192Y-191256190D02*
X163236192Y-190922857D01*
X163236192Y-191018095D02*
X163260001Y-190970476D01*
X163283811Y-190946667D01*
X163331430Y-190922857D01*
X163379049Y-190922857D01*
X163545716Y-191256190D02*
X163545716Y-190922857D01*
X163545716Y-190756190D02*
X163521906Y-190780000D01*
X163545716Y-190803810D01*
X163569525Y-190780000D01*
X163545716Y-190756190D01*
X163545716Y-190803810D01*
X163736192Y-190922857D02*
X163855239Y-191256190D01*
X163974287Y-190922857D01*
X164355239Y-191232381D02*
X164307620Y-191256190D01*
X164212382Y-191256190D01*
X164164763Y-191232381D01*
X164140953Y-191184762D01*
X164140953Y-190994286D01*
X164164763Y-190946667D01*
X164212382Y-190922857D01*
X164307620Y-190922857D01*
X164355239Y-190946667D01*
X164379048Y-190994286D01*
X164379048Y-191041905D01*
X164140953Y-191089524D01*
X164593334Y-191256190D02*
X164593334Y-190922857D01*
X164593334Y-191018095D02*
X164617143Y-190970476D01*
X164640953Y-190946667D01*
X164688572Y-190922857D01*
X164736191Y-190922857D01*
X165236191Y-190756190D02*
X165569524Y-190756190D01*
X165355238Y-191256190D01*
X107076192Y-191336190D02*
X106838097Y-191336190D01*
X106838097Y-190836190D01*
X107242859Y-191074286D02*
X107409525Y-191074286D01*
X107480954Y-191336190D02*
X107242859Y-191336190D01*
X107242859Y-190836190D01*
X107480954Y-190836190D01*
X107695240Y-191336190D02*
X107695240Y-190836190D01*
X107814287Y-190836190D01*
X107885716Y-190860000D01*
X107933335Y-190907619D01*
X107957144Y-190955238D01*
X107980954Y-191050476D01*
X107980954Y-191121905D01*
X107957144Y-191217143D01*
X107933335Y-191264762D01*
X107885716Y-191312381D01*
X107814287Y-191336190D01*
X107695240Y-191336190D01*
X108576192Y-191336190D02*
X108576192Y-190836190D01*
X108695239Y-190836190D01*
X108766668Y-190860000D01*
X108814287Y-190907619D01*
X108838096Y-190955238D01*
X108861906Y-191050476D01*
X108861906Y-191121905D01*
X108838096Y-191217143D01*
X108814287Y-191264762D01*
X108766668Y-191312381D01*
X108695239Y-191336190D01*
X108576192Y-191336190D01*
X109076192Y-191336190D02*
X109076192Y-191002857D01*
X109076192Y-191098095D02*
X109100001Y-191050476D01*
X109123811Y-191026667D01*
X109171430Y-191002857D01*
X109219049Y-191002857D01*
X109385716Y-191336190D02*
X109385716Y-191002857D01*
X109385716Y-190836190D02*
X109361906Y-190860000D01*
X109385716Y-190883810D01*
X109409525Y-190860000D01*
X109385716Y-190836190D01*
X109385716Y-190883810D01*
X109576192Y-191002857D02*
X109695239Y-191336190D01*
X109814287Y-191002857D01*
X110195239Y-191312381D02*
X110147620Y-191336190D01*
X110052382Y-191336190D01*
X110004763Y-191312381D01*
X109980953Y-191264762D01*
X109980953Y-191074286D01*
X110004763Y-191026667D01*
X110052382Y-191002857D01*
X110147620Y-191002857D01*
X110195239Y-191026667D01*
X110219048Y-191074286D01*
X110219048Y-191121905D01*
X109980953Y-191169524D01*
X110433334Y-191336190D02*
X110433334Y-191002857D01*
X110433334Y-191098095D02*
X110457143Y-191050476D01*
X110480953Y-191026667D01*
X110528572Y-191002857D01*
X110576191Y-191002857D01*
X111361905Y-190836190D02*
X111123810Y-190836190D01*
X111100000Y-191074286D01*
X111123810Y-191050476D01*
X111171429Y-191026667D01*
X111290476Y-191026667D01*
X111338095Y-191050476D01*
X111361905Y-191074286D01*
X111385714Y-191121905D01*
X111385714Y-191240952D01*
X111361905Y-191288571D01*
X111338095Y-191312381D01*
X111290476Y-191336190D01*
X111171429Y-191336190D01*
X111123810Y-191312381D01*
X111100000Y-191288571D01*
X134186192Y-191366190D02*
X133948097Y-191366190D01*
X133948097Y-190866190D01*
X134352859Y-191104286D02*
X134519525Y-191104286D01*
X134590954Y-191366190D02*
X134352859Y-191366190D01*
X134352859Y-190866190D01*
X134590954Y-190866190D01*
X134805240Y-191366190D02*
X134805240Y-190866190D01*
X134924287Y-190866190D01*
X134995716Y-190890000D01*
X135043335Y-190937619D01*
X135067144Y-190985238D01*
X135090954Y-191080476D01*
X135090954Y-191151905D01*
X135067144Y-191247143D01*
X135043335Y-191294762D01*
X134995716Y-191342381D01*
X134924287Y-191366190D01*
X134805240Y-191366190D01*
X135686192Y-191366190D02*
X135686192Y-190866190D01*
X135805239Y-190866190D01*
X135876668Y-190890000D01*
X135924287Y-190937619D01*
X135948096Y-190985238D01*
X135971906Y-191080476D01*
X135971906Y-191151905D01*
X135948096Y-191247143D01*
X135924287Y-191294762D01*
X135876668Y-191342381D01*
X135805239Y-191366190D01*
X135686192Y-191366190D01*
X136186192Y-191366190D02*
X136186192Y-191032857D01*
X136186192Y-191128095D02*
X136210001Y-191080476D01*
X136233811Y-191056667D01*
X136281430Y-191032857D01*
X136329049Y-191032857D01*
X136495716Y-191366190D02*
X136495716Y-191032857D01*
X136495716Y-190866190D02*
X136471906Y-190890000D01*
X136495716Y-190913810D01*
X136519525Y-190890000D01*
X136495716Y-190866190D01*
X136495716Y-190913810D01*
X136686192Y-191032857D02*
X136805239Y-191366190D01*
X136924287Y-191032857D01*
X137305239Y-191342381D02*
X137257620Y-191366190D01*
X137162382Y-191366190D01*
X137114763Y-191342381D01*
X137090953Y-191294762D01*
X137090953Y-191104286D01*
X137114763Y-191056667D01*
X137162382Y-191032857D01*
X137257620Y-191032857D01*
X137305239Y-191056667D01*
X137329048Y-191104286D01*
X137329048Y-191151905D01*
X137090953Y-191199524D01*
X137543334Y-191366190D02*
X137543334Y-191032857D01*
X137543334Y-191128095D02*
X137567143Y-191080476D01*
X137590953Y-191056667D01*
X137638572Y-191032857D01*
X137686191Y-191032857D01*
X138448095Y-190866190D02*
X138352857Y-190866190D01*
X138305238Y-190890000D01*
X138281429Y-190913810D01*
X138233810Y-190985238D01*
X138210000Y-191080476D01*
X138210000Y-191270952D01*
X138233810Y-191318571D01*
X138257619Y-191342381D01*
X138305238Y-191366190D01*
X138400476Y-191366190D01*
X138448095Y-191342381D01*
X138471905Y-191318571D01*
X138495714Y-191270952D01*
X138495714Y-191151905D01*
X138471905Y-191104286D01*
X138448095Y-191080476D01*
X138400476Y-191056667D01*
X138305238Y-191056667D01*
X138257619Y-191080476D01*
X138233810Y-191104286D01*
X138210000Y-191151905D01*
X188106192Y-84283690D02*
X187868097Y-84283690D01*
X187868097Y-83783690D01*
X188272859Y-84021786D02*
X188439525Y-84021786D01*
X188510954Y-84283690D02*
X188272859Y-84283690D01*
X188272859Y-83783690D01*
X188510954Y-83783690D01*
X188725240Y-84283690D02*
X188725240Y-83783690D01*
X188844287Y-83783690D01*
X188915716Y-83807500D01*
X188963335Y-83855119D01*
X188987144Y-83902738D01*
X189010954Y-83997976D01*
X189010954Y-84069405D01*
X188987144Y-84164643D01*
X188963335Y-84212262D01*
X188915716Y-84259881D01*
X188844287Y-84283690D01*
X188725240Y-84283690D01*
X189606192Y-84283690D02*
X189606192Y-83783690D01*
X189725239Y-83783690D01*
X189796668Y-83807500D01*
X189844287Y-83855119D01*
X189868096Y-83902738D01*
X189891906Y-83997976D01*
X189891906Y-84069405D01*
X189868096Y-84164643D01*
X189844287Y-84212262D01*
X189796668Y-84259881D01*
X189725239Y-84283690D01*
X189606192Y-84283690D01*
X190106192Y-84283690D02*
X190106192Y-83950357D01*
X190106192Y-84045595D02*
X190130001Y-83997976D01*
X190153811Y-83974167D01*
X190201430Y-83950357D01*
X190249049Y-83950357D01*
X190415716Y-84283690D02*
X190415716Y-83950357D01*
X190415716Y-83783690D02*
X190391906Y-83807500D01*
X190415716Y-83831310D01*
X190439525Y-83807500D01*
X190415716Y-83783690D01*
X190415716Y-83831310D01*
X190606192Y-83950357D02*
X190725239Y-84283690D01*
X190844287Y-83950357D01*
X191225239Y-84259881D02*
X191177620Y-84283690D01*
X191082382Y-84283690D01*
X191034763Y-84259881D01*
X191010953Y-84212262D01*
X191010953Y-84021786D01*
X191034763Y-83974167D01*
X191082382Y-83950357D01*
X191177620Y-83950357D01*
X191225239Y-83974167D01*
X191249048Y-84021786D01*
X191249048Y-84069405D01*
X191010953Y-84117024D01*
X191463334Y-84283690D02*
X191463334Y-83950357D01*
X191463334Y-84045595D02*
X191487143Y-83997976D01*
X191510953Y-83974167D01*
X191558572Y-83950357D01*
X191606191Y-83950357D01*
X192368095Y-83950357D02*
X192368095Y-84283690D01*
X192249048Y-83759881D02*
X192130000Y-84117024D01*
X192439524Y-84117024D01*
X161046192Y-84313690D02*
X160808097Y-84313690D01*
X160808097Y-83813690D01*
X161212859Y-84051786D02*
X161379525Y-84051786D01*
X161450954Y-84313690D02*
X161212859Y-84313690D01*
X161212859Y-83813690D01*
X161450954Y-83813690D01*
X161665240Y-84313690D02*
X161665240Y-83813690D01*
X161784287Y-83813690D01*
X161855716Y-83837500D01*
X161903335Y-83885119D01*
X161927144Y-83932738D01*
X161950954Y-84027976D01*
X161950954Y-84099405D01*
X161927144Y-84194643D01*
X161903335Y-84242262D01*
X161855716Y-84289881D01*
X161784287Y-84313690D01*
X161665240Y-84313690D01*
X162546192Y-84313690D02*
X162546192Y-83813690D01*
X162665239Y-83813690D01*
X162736668Y-83837500D01*
X162784287Y-83885119D01*
X162808096Y-83932738D01*
X162831906Y-84027976D01*
X162831906Y-84099405D01*
X162808096Y-84194643D01*
X162784287Y-84242262D01*
X162736668Y-84289881D01*
X162665239Y-84313690D01*
X162546192Y-84313690D01*
X163046192Y-84313690D02*
X163046192Y-83980357D01*
X163046192Y-84075595D02*
X163070001Y-84027976D01*
X163093811Y-84004167D01*
X163141430Y-83980357D01*
X163189049Y-83980357D01*
X163355716Y-84313690D02*
X163355716Y-83980357D01*
X163355716Y-83813690D02*
X163331906Y-83837500D01*
X163355716Y-83861310D01*
X163379525Y-83837500D01*
X163355716Y-83813690D01*
X163355716Y-83861310D01*
X163546192Y-83980357D02*
X163665239Y-84313690D01*
X163784287Y-83980357D01*
X164165239Y-84289881D02*
X164117620Y-84313690D01*
X164022382Y-84313690D01*
X163974763Y-84289881D01*
X163950953Y-84242262D01*
X163950953Y-84051786D01*
X163974763Y-84004167D01*
X164022382Y-83980357D01*
X164117620Y-83980357D01*
X164165239Y-84004167D01*
X164189048Y-84051786D01*
X164189048Y-84099405D01*
X163950953Y-84147024D01*
X164403334Y-84313690D02*
X164403334Y-83980357D01*
X164403334Y-84075595D02*
X164427143Y-84027976D01*
X164450953Y-84004167D01*
X164498572Y-83980357D01*
X164546191Y-83980357D01*
X165046191Y-83813690D02*
X165355714Y-83813690D01*
X165189048Y-84004167D01*
X165260476Y-84004167D01*
X165308095Y-84027976D01*
X165331905Y-84051786D01*
X165355714Y-84099405D01*
X165355714Y-84218452D01*
X165331905Y-84266071D01*
X165308095Y-84289881D01*
X165260476Y-84313690D01*
X165117619Y-84313690D01*
X165070000Y-84289881D01*
X165046191Y-84266071D01*
X107186192Y-84286190D02*
X106948097Y-84286190D01*
X106948097Y-83786190D01*
X107352859Y-84024286D02*
X107519525Y-84024286D01*
X107590954Y-84286190D02*
X107352859Y-84286190D01*
X107352859Y-83786190D01*
X107590954Y-83786190D01*
X107805240Y-84286190D02*
X107805240Y-83786190D01*
X107924287Y-83786190D01*
X107995716Y-83810000D01*
X108043335Y-83857619D01*
X108067144Y-83905238D01*
X108090954Y-84000476D01*
X108090954Y-84071905D01*
X108067144Y-84167143D01*
X108043335Y-84214762D01*
X107995716Y-84262381D01*
X107924287Y-84286190D01*
X107805240Y-84286190D01*
X108686192Y-84286190D02*
X108686192Y-83786190D01*
X108805239Y-83786190D01*
X108876668Y-83810000D01*
X108924287Y-83857619D01*
X108948096Y-83905238D01*
X108971906Y-84000476D01*
X108971906Y-84071905D01*
X108948096Y-84167143D01*
X108924287Y-84214762D01*
X108876668Y-84262381D01*
X108805239Y-84286190D01*
X108686192Y-84286190D01*
X109186192Y-84286190D02*
X109186192Y-83952857D01*
X109186192Y-84048095D02*
X109210001Y-84000476D01*
X109233811Y-83976667D01*
X109281430Y-83952857D01*
X109329049Y-83952857D01*
X109495716Y-84286190D02*
X109495716Y-83952857D01*
X109495716Y-83786190D02*
X109471906Y-83810000D01*
X109495716Y-83833810D01*
X109519525Y-83810000D01*
X109495716Y-83786190D01*
X109495716Y-83833810D01*
X109686192Y-83952857D02*
X109805239Y-84286190D01*
X109924287Y-83952857D01*
X110305239Y-84262381D02*
X110257620Y-84286190D01*
X110162382Y-84286190D01*
X110114763Y-84262381D01*
X110090953Y-84214762D01*
X110090953Y-84024286D01*
X110114763Y-83976667D01*
X110162382Y-83952857D01*
X110257620Y-83952857D01*
X110305239Y-83976667D01*
X110329048Y-84024286D01*
X110329048Y-84071905D01*
X110090953Y-84119524D01*
X110543334Y-84286190D02*
X110543334Y-83952857D01*
X110543334Y-84048095D02*
X110567143Y-84000476D01*
X110590953Y-83976667D01*
X110638572Y-83952857D01*
X110686191Y-83952857D01*
X111495714Y-84286190D02*
X111210000Y-84286190D01*
X111352857Y-84286190D02*
X111352857Y-83786190D01*
X111305238Y-83857619D01*
X111257619Y-83905238D01*
X111210000Y-83929048D01*
X90267143Y-73246190D02*
X90267143Y-72746190D01*
X90457619Y-72746190D01*
X90505238Y-72770000D01*
X90529047Y-72793810D01*
X90552857Y-72841429D01*
X90552857Y-72912857D01*
X90529047Y-72960476D01*
X90505238Y-72984286D01*
X90457619Y-73008095D01*
X90267143Y-73008095D01*
X90767143Y-73246190D02*
X90767143Y-72746190D01*
X91052857Y-73246190D01*
X91052857Y-72746190D01*
X91290953Y-73246190D02*
X91290953Y-72746190D01*
X91481429Y-72746190D01*
X91529048Y-72770000D01*
X91552857Y-72793810D01*
X91576667Y-72841429D01*
X91576667Y-72912857D01*
X91552857Y-72960476D01*
X91529048Y-72984286D01*
X91481429Y-73008095D01*
X91290953Y-73008095D01*
X227243811Y-182883690D02*
X227005716Y-182883690D01*
X226981906Y-183121786D01*
X227005716Y-183097976D01*
X227053335Y-183074167D01*
X227172382Y-183074167D01*
X227220001Y-183097976D01*
X227243811Y-183121786D01*
X227267620Y-183169405D01*
X227267620Y-183288452D01*
X227243811Y-183336071D01*
X227220001Y-183359881D01*
X227172382Y-183383690D01*
X227053335Y-183383690D01*
X227005716Y-183359881D01*
X226981906Y-183336071D01*
X227410477Y-182883690D02*
X227577144Y-183383690D01*
X227743810Y-182883690D01*
X228577143Y-183383690D02*
X228410476Y-183145595D01*
X228291429Y-183383690D02*
X228291429Y-182883690D01*
X228481905Y-182883690D01*
X228529524Y-182907500D01*
X228553333Y-182931310D01*
X228577143Y-182978929D01*
X228577143Y-183050357D01*
X228553333Y-183097976D01*
X228529524Y-183121786D01*
X228481905Y-183145595D01*
X228291429Y-183145595D01*
X228981905Y-183359881D02*
X228934286Y-183383690D01*
X228839048Y-183383690D01*
X228791429Y-183359881D01*
X228767619Y-183312262D01*
X228767619Y-183121786D01*
X228791429Y-183074167D01*
X228839048Y-183050357D01*
X228934286Y-183050357D01*
X228981905Y-183074167D01*
X229005714Y-183121786D01*
X229005714Y-183169405D01*
X228767619Y-183217024D01*
X229434285Y-183050357D02*
X229434285Y-183455119D01*
X229410476Y-183502738D01*
X229386666Y-183526548D01*
X229339047Y-183550357D01*
X229267619Y-183550357D01*
X229220000Y-183526548D01*
X229434285Y-183359881D02*
X229386666Y-183383690D01*
X229291428Y-183383690D01*
X229243809Y-183359881D01*
X229220000Y-183336071D01*
X229196190Y-183288452D01*
X229196190Y-183145595D01*
X229220000Y-183097976D01*
X229243809Y-183074167D01*
X229291428Y-183050357D01*
X229386666Y-183050357D01*
X229434285Y-183074167D01*
X227573811Y-69973690D02*
X227335716Y-69973690D01*
X227311906Y-70211786D01*
X227335716Y-70187976D01*
X227383335Y-70164167D01*
X227502382Y-70164167D01*
X227550001Y-70187976D01*
X227573811Y-70211786D01*
X227597620Y-70259405D01*
X227597620Y-70378452D01*
X227573811Y-70426071D01*
X227550001Y-70449881D01*
X227502382Y-70473690D01*
X227383335Y-70473690D01*
X227335716Y-70449881D01*
X227311906Y-70426071D01*
X227740477Y-69973690D02*
X227907144Y-70473690D01*
X228073810Y-69973690D01*
X228907143Y-70473690D02*
X228740476Y-70235595D01*
X228621429Y-70473690D02*
X228621429Y-69973690D01*
X228811905Y-69973690D01*
X228859524Y-69997500D01*
X228883333Y-70021310D01*
X228907143Y-70068929D01*
X228907143Y-70140357D01*
X228883333Y-70187976D01*
X228859524Y-70211786D01*
X228811905Y-70235595D01*
X228621429Y-70235595D01*
X229311905Y-70449881D02*
X229264286Y-70473690D01*
X229169048Y-70473690D01*
X229121429Y-70449881D01*
X229097619Y-70402262D01*
X229097619Y-70211786D01*
X229121429Y-70164167D01*
X229169048Y-70140357D01*
X229264286Y-70140357D01*
X229311905Y-70164167D01*
X229335714Y-70211786D01*
X229335714Y-70259405D01*
X229097619Y-70307024D01*
X229764285Y-70140357D02*
X229764285Y-70545119D01*
X229740476Y-70592738D01*
X229716666Y-70616548D01*
X229669047Y-70640357D01*
X229597619Y-70640357D01*
X229550000Y-70616548D01*
X229764285Y-70449881D02*
X229716666Y-70473690D01*
X229621428Y-70473690D01*
X229573809Y-70449881D01*
X229550000Y-70426071D01*
X229526190Y-70378452D01*
X229526190Y-70235595D01*
X229550000Y-70187976D01*
X229573809Y-70164167D01*
X229621428Y-70140357D01*
X229716666Y-70140357D01*
X229764285Y-70164167D01*
X76973811Y-68553690D02*
X76735716Y-68553690D01*
X76711906Y-68791786D01*
X76735716Y-68767976D01*
X76783335Y-68744167D01*
X76902382Y-68744167D01*
X76950001Y-68767976D01*
X76973811Y-68791786D01*
X76997620Y-68839405D01*
X76997620Y-68958452D01*
X76973811Y-69006071D01*
X76950001Y-69029881D01*
X76902382Y-69053690D01*
X76783335Y-69053690D01*
X76735716Y-69029881D01*
X76711906Y-69006071D01*
X77140477Y-68553690D02*
X77307144Y-69053690D01*
X77473810Y-68553690D01*
X78307143Y-69053690D02*
X78140476Y-68815595D01*
X78021429Y-69053690D02*
X78021429Y-68553690D01*
X78211905Y-68553690D01*
X78259524Y-68577500D01*
X78283333Y-68601310D01*
X78307143Y-68648929D01*
X78307143Y-68720357D01*
X78283333Y-68767976D01*
X78259524Y-68791786D01*
X78211905Y-68815595D01*
X78021429Y-68815595D01*
X78711905Y-69029881D02*
X78664286Y-69053690D01*
X78569048Y-69053690D01*
X78521429Y-69029881D01*
X78497619Y-68982262D01*
X78497619Y-68791786D01*
X78521429Y-68744167D01*
X78569048Y-68720357D01*
X78664286Y-68720357D01*
X78711905Y-68744167D01*
X78735714Y-68791786D01*
X78735714Y-68839405D01*
X78497619Y-68887024D01*
X79164285Y-68720357D02*
X79164285Y-69125119D01*
X79140476Y-69172738D01*
X79116666Y-69196548D01*
X79069047Y-69220357D01*
X78997619Y-69220357D01*
X78950000Y-69196548D01*
X79164285Y-69029881D02*
X79116666Y-69053690D01*
X79021428Y-69053690D01*
X78973809Y-69029881D01*
X78950000Y-69006071D01*
X78926190Y-68958452D01*
X78926190Y-68815595D01*
X78950000Y-68767976D01*
X78973809Y-68744167D01*
X79021428Y-68720357D01*
X79116666Y-68720357D01*
X79164285Y-68744167D01*
D12*
X38934286Y-91392857D02*
X39148572Y-91464286D01*
X39220000Y-91535714D01*
X39291429Y-91678571D01*
X39291429Y-91892857D01*
X39220000Y-92035714D01*
X39148572Y-92107143D01*
X39005714Y-92178571D01*
X38434286Y-92178571D01*
X38434286Y-90678571D01*
X38934286Y-90678571D01*
X39077143Y-90750000D01*
X39148572Y-90821429D01*
X39220000Y-90964286D01*
X39220000Y-91107143D01*
X39148572Y-91250000D01*
X39077143Y-91321429D01*
X38934286Y-91392857D01*
X38434286Y-91392857D01*
X40148572Y-92178571D02*
X40005714Y-92107143D01*
X39934286Y-91964286D01*
X39934286Y-90678571D01*
X41362857Y-91178571D02*
X41362857Y-92178571D01*
X40720000Y-91178571D02*
X40720000Y-91964286D01*
X40791428Y-92107143D01*
X40934286Y-92178571D01*
X41148571Y-92178571D01*
X41291428Y-92107143D01*
X41362857Y-92035714D01*
X42648571Y-92107143D02*
X42505714Y-92178571D01*
X42220000Y-92178571D01*
X42077143Y-92107143D01*
X42005714Y-91964286D01*
X42005714Y-91392857D01*
X42077143Y-91250000D01*
X42220000Y-91178571D01*
X42505714Y-91178571D01*
X42648571Y-91250000D01*
X42720000Y-91392857D01*
X42720000Y-91535714D01*
X42005714Y-91678571D01*
X44434285Y-90607143D02*
X43148571Y-92535714D01*
X45791429Y-92178571D02*
X45291429Y-91464286D01*
X44934286Y-92178571D02*
X44934286Y-90678571D01*
X45505714Y-90678571D01*
X45648572Y-90750000D01*
X45720000Y-90821429D01*
X45791429Y-90964286D01*
X45791429Y-91178571D01*
X45720000Y-91321429D01*
X45648572Y-91392857D01*
X45505714Y-91464286D01*
X44934286Y-91464286D01*
X47005714Y-92107143D02*
X46862857Y-92178571D01*
X46577143Y-92178571D01*
X46434286Y-92107143D01*
X46362857Y-91964286D01*
X46362857Y-91392857D01*
X46434286Y-91250000D01*
X46577143Y-91178571D01*
X46862857Y-91178571D01*
X47005714Y-91250000D01*
X47077143Y-91392857D01*
X47077143Y-91535714D01*
X46362857Y-91678571D01*
X48362857Y-92178571D02*
X48362857Y-90678571D01*
X48362857Y-92107143D02*
X48220000Y-92178571D01*
X47934286Y-92178571D01*
X47791428Y-92107143D01*
X47720000Y-92035714D01*
X47648571Y-91892857D01*
X47648571Y-91464286D01*
X47720000Y-91321429D01*
X47791428Y-91250000D01*
X47934286Y-91178571D01*
X48220000Y-91178571D01*
X48362857Y-91250000D01*
X50220000Y-91178571D02*
X50220000Y-92678571D01*
X50220000Y-91250000D02*
X50362857Y-91178571D01*
X50648571Y-91178571D01*
X50791428Y-91250000D01*
X50862857Y-91321429D01*
X50934286Y-91464286D01*
X50934286Y-91892857D01*
X50862857Y-92035714D01*
X50791428Y-92107143D01*
X50648571Y-92178571D01*
X50362857Y-92178571D01*
X50220000Y-92107143D01*
X51791429Y-92178571D02*
X51648571Y-92107143D01*
X51577143Y-92035714D01*
X51505714Y-91892857D01*
X51505714Y-91464286D01*
X51577143Y-91321429D01*
X51648571Y-91250000D01*
X51791429Y-91178571D01*
X52005714Y-91178571D01*
X52148571Y-91250000D01*
X52220000Y-91321429D01*
X52291429Y-91464286D01*
X52291429Y-91892857D01*
X52220000Y-92035714D01*
X52148571Y-92107143D01*
X52005714Y-92178571D01*
X51791429Y-92178571D01*
X52791429Y-91178571D02*
X53077143Y-92178571D01*
X53362857Y-91464286D01*
X53648572Y-92178571D01*
X53934286Y-91178571D01*
X55077143Y-92107143D02*
X54934286Y-92178571D01*
X54648572Y-92178571D01*
X54505715Y-92107143D01*
X54434286Y-91964286D01*
X54434286Y-91392857D01*
X54505715Y-91250000D01*
X54648572Y-91178571D01*
X54934286Y-91178571D01*
X55077143Y-91250000D01*
X55148572Y-91392857D01*
X55148572Y-91535714D01*
X54434286Y-91678571D01*
X55791429Y-92178571D02*
X55791429Y-91178571D01*
X55791429Y-91464286D02*
X55862857Y-91321429D01*
X55934286Y-91250000D01*
X56077143Y-91178571D01*
X56220000Y-91178571D01*
X48562857Y-170078571D02*
X48848571Y-170078571D01*
X48991429Y-170150000D01*
X49134286Y-170292857D01*
X49205714Y-170578571D01*
X49205714Y-171078571D01*
X49134286Y-171364286D01*
X48991429Y-171507143D01*
X48848571Y-171578571D01*
X48562857Y-171578571D01*
X48420000Y-171507143D01*
X48277143Y-171364286D01*
X48205714Y-171078571D01*
X48205714Y-170578571D01*
X48277143Y-170292857D01*
X48420000Y-170150000D01*
X48562857Y-170078571D01*
X50920000Y-170007143D02*
X49634286Y-171935714D01*
X51420001Y-170792857D02*
X51920001Y-170792857D01*
X52134287Y-171578571D02*
X51420001Y-171578571D01*
X51420001Y-170078571D01*
X52134287Y-170078571D01*
X49720001Y-168878571D02*
X49005715Y-168878571D01*
X49005715Y-167378571D01*
X50148572Y-168450000D02*
X50862858Y-168450000D01*
X50005715Y-168878571D02*
X50505715Y-167378571D01*
X51005715Y-168878571D01*
X51291429Y-167378571D02*
X52148572Y-167378571D01*
X51720001Y-168878571D02*
X51720001Y-167378571D01*
X49477143Y-166235714D02*
X49405714Y-166307143D01*
X49191428Y-166378571D01*
X49048571Y-166378571D01*
X48834286Y-166307143D01*
X48691428Y-166164286D01*
X48620000Y-166021429D01*
X48548571Y-165735714D01*
X48548571Y-165521429D01*
X48620000Y-165235714D01*
X48691428Y-165092857D01*
X48834286Y-164950000D01*
X49048571Y-164878571D01*
X49191428Y-164878571D01*
X49405714Y-164950000D01*
X49477143Y-165021429D01*
X50834286Y-166378571D02*
X50120000Y-166378571D01*
X50120000Y-164878571D01*
X51334286Y-166378571D02*
X51334286Y-164878571D01*
X52191429Y-166378571D02*
X51548572Y-165521429D01*
X52191429Y-164878571D02*
X51334286Y-165735714D01*
X49034286Y-163778571D02*
X49034286Y-162278571D01*
X49391429Y-162278571D01*
X49605714Y-162350000D01*
X49748572Y-162492857D01*
X49820000Y-162635714D01*
X49891429Y-162921429D01*
X49891429Y-163135714D01*
X49820000Y-163421429D01*
X49748572Y-163564286D01*
X49605714Y-163707143D01*
X49391429Y-163778571D01*
X49034286Y-163778571D01*
X50534286Y-163778571D02*
X50534286Y-162278571D01*
X51248572Y-163778571D02*
X51248572Y-162278571D01*
X52105715Y-163778571D01*
X52105715Y-162278571D01*
X42962857Y-143507143D02*
X43177143Y-143578571D01*
X43534286Y-143578571D01*
X43677143Y-143507143D01*
X43748572Y-143435714D01*
X43820000Y-143292857D01*
X43820000Y-143150000D01*
X43748572Y-143007143D01*
X43677143Y-142935714D01*
X43534286Y-142864286D01*
X43248572Y-142792857D01*
X43105714Y-142721429D01*
X43034286Y-142650000D01*
X42962857Y-142507143D01*
X42962857Y-142364286D01*
X43034286Y-142221429D01*
X43105714Y-142150000D01*
X43248572Y-142078571D01*
X43605714Y-142078571D01*
X43820000Y-142150000D01*
X44462857Y-143578571D02*
X44462857Y-142078571D01*
X46748571Y-144150000D02*
X46677143Y-144078571D01*
X46534286Y-143864286D01*
X46462857Y-143721429D01*
X46391428Y-143507143D01*
X46320000Y-143150000D01*
X46320000Y-142864286D01*
X46391428Y-142507143D01*
X46462857Y-142292857D01*
X46534286Y-142150000D01*
X46677143Y-141935714D01*
X46748571Y-141864286D01*
X48177143Y-143578571D02*
X47677143Y-142864286D01*
X47320000Y-143578571D02*
X47320000Y-142078571D01*
X47891428Y-142078571D01*
X48034286Y-142150000D01*
X48105714Y-142221429D01*
X48177143Y-142364286D01*
X48177143Y-142578571D01*
X48105714Y-142721429D01*
X48034286Y-142792857D01*
X47891428Y-142864286D01*
X47320000Y-142864286D01*
X48748571Y-143150000D02*
X49462857Y-143150000D01*
X48605714Y-143578571D02*
X49105714Y-142078571D01*
X49605714Y-143578571D01*
X50105714Y-143578571D02*
X50105714Y-142078571D01*
X50605714Y-143150000D01*
X51105714Y-142078571D01*
X51105714Y-143578571D01*
X51677143Y-144150000D02*
X51748571Y-144078571D01*
X51891428Y-143864286D01*
X51962857Y-143721429D01*
X52034286Y-143507143D01*
X52105714Y-143150000D01*
X52105714Y-142864286D01*
X52034286Y-142507143D01*
X51962857Y-142292857D01*
X51891428Y-142150000D01*
X51748571Y-141935714D01*
X51677143Y-141864286D01*
D13*
X213380000Y-88760000D02*
X213380000Y-174240000D01*
X85620000Y-88760000D02*
X213380000Y-88760000D01*
X85620000Y-174240000D02*
X213380000Y-174240000D01*
X85620000Y-88760000D02*
X85620000Y-174240000D01*
X203500000Y-163000000D02*
G75*
G03X203500000Y-163000000I-4500000J0D01*
G01*
X194500000Y-163000000D02*
G75*
G03X194500000Y-163000000I-4500000J0D01*
G01*
X185500000Y-163000000D02*
G75*
G03X185500000Y-163000000I-4500000J0D01*
G01*
X176500000Y-163000000D02*
G75*
G03X176500000Y-163000000I-4500000J0D01*
G01*
X167500000Y-163000000D02*
G75*
G03X167500000Y-163000000I-4500000J0D01*
G01*
X158500000Y-163000000D02*
G75*
G03X158500000Y-163000000I-4500000J0D01*
G01*
X149500000Y-163000000D02*
G75*
G03X149500000Y-163000000I-4500000J0D01*
G01*
X140500000Y-163000000D02*
G75*
G03X140500000Y-163000000I-4500000J0D01*
G01*
X131500000Y-163000000D02*
G75*
G03X131500000Y-163000000I-4500000J0D01*
G01*
X122500000Y-163000000D02*
G75*
G03X122500000Y-163000000I-4500000J0D01*
G01*
X113500000Y-163000000D02*
G75*
G03X113500000Y-163000000I-4500000J0D01*
G01*
X104500000Y-163000000D02*
G75*
G03X104500000Y-163000000I-4500000J0D01*
G01*
X104500000Y-154000000D02*
G75*
G03X104500000Y-154000000I-4500000J0D01*
G01*
X113500000Y-154000000D02*
G75*
G03X113500000Y-154000000I-4500000J0D01*
G01*
X122500000Y-154000000D02*
G75*
G03X122500000Y-154000000I-4500000J0D01*
G01*
X131500000Y-154000000D02*
G75*
G03X131500000Y-154000000I-4500000J0D01*
G01*
X140500000Y-154000000D02*
G75*
G03X140500000Y-154000000I-4500000J0D01*
G01*
X149500000Y-154000000D02*
G75*
G03X149500000Y-154000000I-4500000J0D01*
G01*
X158500000Y-154000000D02*
G75*
G03X158500000Y-154000000I-4500000J0D01*
G01*
X167500000Y-154000000D02*
G75*
G03X167500000Y-154000000I-4500000J0D01*
G01*
X176500000Y-154000000D02*
G75*
G03X176500000Y-154000000I-4500000J0D01*
G01*
X185500000Y-154000000D02*
G75*
G03X185500000Y-154000000I-4500000J0D01*
G01*
X194500000Y-154000000D02*
G75*
G03X194500000Y-154000000I-4500000J0D01*
G01*
X203500000Y-154000000D02*
G75*
G03X203500000Y-154000000I-4500000J0D01*
G01*
X203500000Y-145000000D02*
G75*
G03X203500000Y-145000000I-4500000J0D01*
G01*
X194500000Y-145000000D02*
G75*
G03X194500000Y-145000000I-4500000J0D01*
G01*
X185500000Y-145000000D02*
G75*
G03X185500000Y-145000000I-4500000J0D01*
G01*
X176500000Y-145000000D02*
G75*
G03X176500000Y-145000000I-4500000J0D01*
G01*
X167500000Y-145000000D02*
G75*
G03X167500000Y-145000000I-4500000J0D01*
G01*
X158500000Y-145000000D02*
G75*
G03X158500000Y-145000000I-4500000J0D01*
G01*
X149500000Y-145000000D02*
G75*
G03X149500000Y-145000000I-4500000J0D01*
G01*
X140500000Y-145000000D02*
G75*
G03X140500000Y-145000000I-4500000J0D01*
G01*
X131500000Y-145000000D02*
G75*
G03X131500000Y-145000000I-4500000J0D01*
G01*
X122500000Y-145000000D02*
G75*
G03X122500000Y-145000000I-4500000J0D01*
G01*
X113500000Y-145000000D02*
G75*
G03X113500000Y-145000000I-4500000J0D01*
G01*
X104500000Y-145000000D02*
G75*
G03X104500000Y-145000000I-4500000J0D01*
G01*
X104500000Y-136000000D02*
G75*
G03X104500000Y-136000000I-4500000J0D01*
G01*
X113500000Y-136000000D02*
G75*
G03X113500000Y-136000000I-4500000J0D01*
G01*
X122500000Y-136000000D02*
G75*
G03X122500000Y-136000000I-4500000J0D01*
G01*
X131500000Y-136000000D02*
G75*
G03X131500000Y-136000000I-4500000J0D01*
G01*
X140500000Y-136000000D02*
G75*
G03X140500000Y-136000000I-4500000J0D01*
G01*
X149500000Y-136000000D02*
G75*
G03X149500000Y-136000000I-4500000J0D01*
G01*
X158500000Y-136000000D02*
G75*
G03X158500000Y-136000000I-4500000J0D01*
G01*
X167500000Y-136000000D02*
G75*
G03X167500000Y-136000000I-4500000J0D01*
G01*
X176500000Y-136000000D02*
G75*
G03X176500000Y-136000000I-4500000J0D01*
G01*
X185500000Y-136000000D02*
G75*
G03X185500000Y-136000000I-4500000J0D01*
G01*
X194500000Y-136000000D02*
G75*
G03X194500000Y-136000000I-4500000J0D01*
G01*
X203500000Y-136000000D02*
G75*
G03X203500000Y-136000000I-4500000J0D01*
G01*
X203500000Y-127000000D02*
G75*
G03X203500000Y-127000000I-4500000J0D01*
G01*
X194500000Y-127000000D02*
G75*
G03X194500000Y-127000000I-4500000J0D01*
G01*
X185500000Y-127000000D02*
G75*
G03X185500000Y-127000000I-4500000J0D01*
G01*
X176500000Y-127000000D02*
G75*
G03X176500000Y-127000000I-4500000J0D01*
G01*
X167500000Y-127000000D02*
G75*
G03X167500000Y-127000000I-4500000J0D01*
G01*
X158500000Y-127000000D02*
G75*
G03X158500000Y-127000000I-4500000J0D01*
G01*
X149500000Y-127000000D02*
G75*
G03X149500000Y-127000000I-4500000J0D01*
G01*
X140500000Y-127000000D02*
G75*
G03X140500000Y-127000000I-4500000J0D01*
G01*
X131500000Y-127000000D02*
G75*
G03X131500000Y-127000000I-4500000J0D01*
G01*
X122500000Y-127000000D02*
G75*
G03X122500000Y-127000000I-4500000J0D01*
G01*
X113500000Y-127000000D02*
G75*
G03X113500000Y-127000000I-4500000J0D01*
G01*
X104500000Y-127000000D02*
G75*
G03X104500000Y-127000000I-4500000J0D01*
G01*
X104500000Y-118000000D02*
G75*
G03X104500000Y-118000000I-4500000J0D01*
G01*
X113500000Y-118000000D02*
G75*
G03X113500000Y-118000000I-4500000J0D01*
G01*
X122500000Y-118000000D02*
G75*
G03X122500000Y-118000000I-4500000J0D01*
G01*
X131500000Y-118000000D02*
G75*
G03X131500000Y-118000000I-4500000J0D01*
G01*
X140500000Y-118000000D02*
G75*
G03X140500000Y-118000000I-4500000J0D01*
G01*
X149500000Y-118000000D02*
G75*
G03X149500000Y-118000000I-4500000J0D01*
G01*
X158500000Y-118000000D02*
G75*
G03X158500000Y-118000000I-4500000J0D01*
G01*
X167500000Y-118000000D02*
G75*
G03X167500000Y-118000000I-4500000J0D01*
G01*
X176500000Y-118000000D02*
G75*
G03X176500000Y-118000000I-4500000J0D01*
G01*
X185500000Y-118000000D02*
G75*
G03X185500000Y-118000000I-4500000J0D01*
G01*
X194500000Y-118000000D02*
G75*
G03X194500000Y-118000000I-4500000J0D01*
G01*
X203500000Y-118000000D02*
G75*
G03X203500000Y-118000000I-4500000J0D01*
G01*
X203500000Y-109000000D02*
G75*
G03X203500000Y-109000000I-4500000J0D01*
G01*
X194500000Y-109000000D02*
G75*
G03X194500000Y-109000000I-4500000J0D01*
G01*
X185500000Y-109000000D02*
G75*
G03X185500000Y-109000000I-4500000J0D01*
G01*
X176500000Y-109000000D02*
G75*
G03X176500000Y-109000000I-4500000J0D01*
G01*
X167500000Y-109000000D02*
G75*
G03X167500000Y-109000000I-4500000J0D01*
G01*
X158500000Y-109000000D02*
G75*
G03X158500000Y-109000000I-4500000J0D01*
G01*
X149500000Y-109000000D02*
G75*
G03X149500000Y-109000000I-4500000J0D01*
G01*
X140500000Y-109000000D02*
G75*
G03X140500000Y-109000000I-4500000J0D01*
G01*
X131500000Y-109000000D02*
G75*
G03X131500000Y-109000000I-4500000J0D01*
G01*
X122500000Y-109000000D02*
G75*
G03X122500000Y-109000000I-4500000J0D01*
G01*
X113500000Y-109000000D02*
G75*
G03X113500000Y-109000000I-4500000J0D01*
G01*
X104500000Y-109000000D02*
G75*
G03X104500000Y-109000000I-4500000J0D01*
G01*
X203500000Y-100000000D02*
G75*
G03X203500000Y-100000000I-4500000J0D01*
G01*
X194500000Y-100000000D02*
G75*
G03X194500000Y-100000000I-4500000J0D01*
G01*
X185500000Y-100000000D02*
G75*
G03X185500000Y-100000000I-4500000J0D01*
G01*
X176500000Y-100000000D02*
G75*
G03X176500000Y-100000000I-4500000J0D01*
G01*
X167500000Y-100000000D02*
G75*
G03X167500000Y-100000000I-4500000J0D01*
G01*
X158500000Y-100000000D02*
G75*
G03X158500000Y-100000000I-4500000J0D01*
G01*
X149500000Y-100000000D02*
G75*
G03X149500000Y-100000000I-4500000J0D01*
G01*
X140500000Y-100000000D02*
G75*
G03X140500000Y-100000000I-4500000J0D01*
G01*
X131500000Y-100000000D02*
G75*
G03X131500000Y-100000000I-4500000J0D01*
G01*
X122500000Y-100000000D02*
G75*
G03X122500000Y-100000000I-4500000J0D01*
G01*
X113500000Y-100000000D02*
G75*
G03X113500000Y-100000000I-4500000J0D01*
G01*
X104500000Y-100000000D02*
G75*
G03X104500000Y-100000000I-4500000J0D01*
G01*
D15*
X135290000Y-177120000D02*
X136290000Y-177120000D01*
X136290000Y-175420000D02*
X135290000Y-175420000D01*
X162500000Y-71850000D02*
X163500000Y-71850000D01*
X163500000Y-70150000D02*
X162500000Y-70150000D01*
X135500000Y-71850000D02*
X136500000Y-71850000D01*
X136500000Y-70150000D02*
X135500000Y-70150000D01*
X108240000Y-177040000D02*
X109240000Y-177040000D01*
X109240000Y-175340000D02*
X108240000Y-175340000D01*
X189500000Y-71850000D02*
X190500000Y-71850000D01*
X190500000Y-70150000D02*
X189500000Y-70150000D01*
X108500000Y-71850000D02*
X109500000Y-71850000D01*
X109500000Y-70150000D02*
X108500000Y-70150000D01*
X71175000Y-79275000D02*
X71175000Y-80275000D01*
X72875000Y-80275000D02*
X72875000Y-79275000D01*
X231150000Y-104000000D02*
X231150000Y-105000000D01*
X232850000Y-105000000D02*
X232850000Y-104000000D01*
X189120000Y-177580000D02*
X190120000Y-177580000D01*
X190120000Y-175880000D02*
X189120000Y-175880000D01*
X161250000Y-176790000D02*
X162250000Y-176790000D01*
X162250000Y-175090000D02*
X161250000Y-175090000D01*
X231150000Y-122000000D02*
X231150000Y-123000000D01*
X232850000Y-123000000D02*
X232850000Y-122000000D01*
X231150000Y-158000000D02*
X231150000Y-159000000D01*
X232850000Y-159000000D02*
X232850000Y-158000000D01*
X231150000Y-140000000D02*
X231150000Y-141000000D01*
X232850000Y-141000000D02*
X232850000Y-140000000D01*
X36919500Y-93049120D02*
X36919500Y-102050880D01*
X33419380Y-93049120D02*
X33419380Y-102050880D01*
X33419380Y-102050880D02*
X47920240Y-102050880D01*
X47920240Y-102050880D02*
X47920240Y-93049120D01*
X47920240Y-93049120D02*
X33419380Y-93049120D01*
X86400000Y-80650000D02*
X86400000Y-81850000D01*
X84650000Y-81850000D02*
X84650000Y-80650000D01*
X86400000Y-76750000D02*
X86400000Y-77950000D01*
X84650000Y-77950000D02*
X84650000Y-76750000D01*
X101125000Y-71600000D02*
X101125000Y-70400000D01*
X102875000Y-70400000D02*
X102875000Y-71600000D01*
X115125000Y-71600000D02*
X115125000Y-70400000D01*
X116875000Y-70400000D02*
X116875000Y-71600000D01*
X128125000Y-71600000D02*
X128125000Y-70400000D01*
X129875000Y-70400000D02*
X129875000Y-71600000D01*
X142125000Y-71600000D02*
X142125000Y-70400000D01*
X143875000Y-70400000D02*
X143875000Y-71600000D01*
X155125000Y-71600000D02*
X155125000Y-70400000D01*
X156875000Y-70400000D02*
X156875000Y-71600000D01*
X169125000Y-71600000D02*
X169125000Y-70400000D01*
X170875000Y-70400000D02*
X170875000Y-71600000D01*
X182125000Y-71600000D02*
X182125000Y-70400000D01*
X183875000Y-70400000D02*
X183875000Y-71600000D01*
X196125000Y-71600000D02*
X196125000Y-70400000D01*
X197875000Y-70400000D02*
X197875000Y-71600000D01*
X102875000Y-192400000D02*
X102875000Y-193600000D01*
X101125000Y-193600000D02*
X101125000Y-192400000D01*
X116875000Y-192400000D02*
X116875000Y-193600000D01*
X115125000Y-193600000D02*
X115125000Y-192400000D01*
X129875000Y-192400000D02*
X129875000Y-193600000D01*
X128125000Y-193600000D02*
X128125000Y-192400000D01*
X143875000Y-192400000D02*
X143875000Y-193600000D01*
X142125000Y-193600000D02*
X142125000Y-192400000D01*
X156875000Y-192400000D02*
X156875000Y-193600000D01*
X155125000Y-193600000D02*
X155125000Y-192400000D01*
X170875000Y-192400000D02*
X170875000Y-193600000D01*
X169125000Y-193600000D02*
X169125000Y-192400000D01*
X183875000Y-192400000D02*
X183875000Y-193600000D01*
X182125000Y-193600000D02*
X182125000Y-192400000D01*
X197875000Y-192400000D02*
X197875000Y-193600000D01*
X196125000Y-193600000D02*
X196125000Y-192400000D01*
X231400000Y-96625000D02*
X232600000Y-96625000D01*
X232600000Y-98375000D02*
X231400000Y-98375000D01*
X231400000Y-110625000D02*
X232600000Y-110625000D01*
X232600000Y-112375000D02*
X231400000Y-112375000D01*
X231400000Y-114625000D02*
X232600000Y-114625000D01*
X232600000Y-116375000D02*
X231400000Y-116375000D01*
X231400000Y-128625000D02*
X232600000Y-128625000D01*
X232600000Y-130375000D02*
X231400000Y-130375000D01*
X231400000Y-132625000D02*
X232600000Y-132625000D01*
X232600000Y-134375000D02*
X231400000Y-134375000D01*
X231400000Y-146625000D02*
X232600000Y-146625000D01*
X232600000Y-148375000D02*
X231400000Y-148375000D01*
X231400000Y-150625000D02*
X232600000Y-150625000D01*
X232600000Y-152375000D02*
X231400000Y-152375000D01*
X231400000Y-164625000D02*
X232600000Y-164625000D01*
X232600000Y-166375000D02*
X231400000Y-166375000D01*
D13*
X52565000Y-141028000D02*
X52565000Y-185192000D01*
X52565000Y-185192000D02*
X72615000Y-185192000D01*
X72615000Y-185192000D02*
X72615000Y-141028000D01*
X72615000Y-141028000D02*
X64090000Y-141028000D01*
X64090000Y-141028000D02*
X64090000Y-142028000D01*
X64090000Y-142028000D02*
X61090000Y-142028000D01*
X61090000Y-142028000D02*
X61090000Y-141028000D01*
X61090000Y-141028000D02*
X52565000Y-141028000D01*
D15*
X109000000Y-83500000D02*
X111600000Y-83500000D01*
X111600000Y-83500000D02*
X111600000Y-72500000D01*
X111600000Y-72500000D02*
X106400000Y-72500000D01*
X106400000Y-72500000D02*
X106400000Y-83500000D01*
X106400000Y-83500000D02*
X108950000Y-83500000D01*
X108950000Y-83500000D02*
X109000000Y-83500000D01*
X136000000Y-83500000D02*
X138600000Y-83500000D01*
X138600000Y-83500000D02*
X138600000Y-72500000D01*
X138600000Y-72500000D02*
X133400000Y-72500000D01*
X133400000Y-72500000D02*
X133400000Y-83500000D01*
X133400000Y-83500000D02*
X135950000Y-83500000D01*
X135950000Y-83500000D02*
X136000000Y-83500000D01*
X163000000Y-83500000D02*
X165600000Y-83500000D01*
X165600000Y-83500000D02*
X165600000Y-72500000D01*
X165600000Y-72500000D02*
X160400000Y-72500000D01*
X160400000Y-72500000D02*
X160400000Y-83500000D01*
X160400000Y-83500000D02*
X162950000Y-83500000D01*
X162950000Y-83500000D02*
X163000000Y-83500000D01*
X190000000Y-83500000D02*
X192600000Y-83500000D01*
X192600000Y-83500000D02*
X192600000Y-72500000D01*
X192600000Y-72500000D02*
X187400000Y-72500000D01*
X187400000Y-72500000D02*
X187400000Y-83500000D01*
X187400000Y-83500000D02*
X189950000Y-83500000D01*
X189950000Y-83500000D02*
X190000000Y-83500000D01*
X109000000Y-190500000D02*
X111600000Y-190500000D01*
X111600000Y-190500000D02*
X111600000Y-179500000D01*
X111600000Y-179500000D02*
X106400000Y-179500000D01*
X106400000Y-179500000D02*
X106400000Y-190500000D01*
X106400000Y-190500000D02*
X108950000Y-190500000D01*
X108950000Y-190500000D02*
X109000000Y-190500000D01*
X136000000Y-190505000D02*
X138600000Y-190505000D01*
X138600000Y-190505000D02*
X138600000Y-179505000D01*
X138600000Y-179505000D02*
X133400000Y-179505000D01*
X133400000Y-179505000D02*
X133400000Y-190505000D01*
X133400000Y-190505000D02*
X135950000Y-190505000D01*
X135950000Y-190505000D02*
X136000000Y-190505000D01*
X163010000Y-190505000D02*
X165610000Y-190505000D01*
X165610000Y-190505000D02*
X165610000Y-179505000D01*
X165610000Y-179505000D02*
X160410000Y-179505000D01*
X160410000Y-179505000D02*
X160410000Y-190505000D01*
X160410000Y-190505000D02*
X162960000Y-190505000D01*
X162960000Y-190505000D02*
X163010000Y-190505000D01*
X189990000Y-190685000D02*
X192590000Y-190685000D01*
X192590000Y-190685000D02*
X192590000Y-179685000D01*
X192590000Y-179685000D02*
X187390000Y-179685000D01*
X187390000Y-179685000D02*
X187390000Y-190685000D01*
X187390000Y-190685000D02*
X189940000Y-190685000D01*
X189940000Y-190685000D02*
X189990000Y-190685000D01*
X219500000Y-104500000D02*
X219500000Y-107100000D01*
X219500000Y-107100000D02*
X230500000Y-107100000D01*
X230500000Y-107100000D02*
X230500000Y-101900000D01*
X230500000Y-101900000D02*
X219500000Y-101900000D01*
X219500000Y-101900000D02*
X219500000Y-104450000D01*
X219500000Y-104450000D02*
X219500000Y-104500000D01*
X219500000Y-122500000D02*
X219500000Y-125100000D01*
X219500000Y-125100000D02*
X230500000Y-125100000D01*
X230500000Y-125100000D02*
X230500000Y-119900000D01*
X230500000Y-119900000D02*
X219500000Y-119900000D01*
X219500000Y-119900000D02*
X219500000Y-122450000D01*
X219500000Y-122450000D02*
X219500000Y-122500000D01*
X219500000Y-140500000D02*
X219500000Y-143100000D01*
X219500000Y-143100000D02*
X230500000Y-143100000D01*
X230500000Y-143100000D02*
X230500000Y-137900000D01*
X230500000Y-137900000D02*
X219500000Y-137900000D01*
X219500000Y-137900000D02*
X219500000Y-140450000D01*
X219500000Y-140450000D02*
X219500000Y-140500000D01*
X219500000Y-158500000D02*
X219500000Y-161100000D01*
X219500000Y-161100000D02*
X230500000Y-161100000D01*
X230500000Y-161100000D02*
X230500000Y-155900000D01*
X230500000Y-155900000D02*
X219500000Y-155900000D01*
X219500000Y-155900000D02*
X219500000Y-158450000D01*
X219500000Y-158450000D02*
X219500000Y-158500000D01*
X222850000Y-181170000D02*
X221850000Y-181170000D01*
X221850000Y-182870000D02*
X222850000Y-182870000D01*
X221250000Y-68190000D02*
X220250000Y-68190000D01*
X220250000Y-69890000D02*
X221250000Y-69890000D01*
X233860000Y-169240000D02*
X233860000Y-170790000D01*
X230760000Y-170790000D02*
X230760000Y-169240000D01*
X230760000Y-169240000D02*
X233860000Y-169240000D01*
X231040000Y-172060000D02*
X233580000Y-172060000D01*
X91575240Y-76474160D02*
X91575240Y-76425900D01*
X90874200Y-73675180D02*
X91575240Y-73675180D01*
X91575240Y-73675180D02*
X91575240Y-73924100D01*
X91575240Y-76474160D02*
X91575240Y-76674820D01*
X91575240Y-76674820D02*
X90874200Y-76674820D01*
X36969500Y-75899120D02*
X36969500Y-84900880D01*
X33469380Y-75899120D02*
X33469380Y-84900880D01*
X33469380Y-84900880D02*
X47970240Y-84900880D01*
X47970240Y-84900880D02*
X47970240Y-75899120D01*
X47970240Y-75899120D02*
X33469380Y-75899120D01*
D16*
X42170000Y-135300000D02*
X33370000Y-135300000D01*
X33370000Y-135300000D02*
X33370000Y-126100000D01*
X48070000Y-132600000D02*
X48070000Y-135300000D01*
X48070000Y-135300000D02*
X46170000Y-135300000D01*
X33370000Y-126100000D02*
X48070000Y-126100000D01*
X48070000Y-126100000D02*
X48070000Y-128700000D01*
D15*
X37370000Y-162000000D02*
X36970000Y-162000000D01*
X37370000Y-165600000D02*
X36970000Y-165600000D01*
X38470000Y-158500000D02*
X38470000Y-169100000D01*
X37370000Y-158500000D02*
X37370000Y-169100000D01*
X44570000Y-158500000D02*
X36970000Y-158500000D01*
X36970000Y-169100000D02*
X44570000Y-169100000D01*
X44570000Y-169100000D02*
X44570000Y-158500000D01*
D16*
X59300000Y-124650000D02*
X56640000Y-124650000D01*
X59300000Y-132330000D02*
X59300000Y-124650000D01*
X56640000Y-132330000D02*
X56640000Y-124650000D01*
X59300000Y-132330000D02*
X56640000Y-132330000D01*
X59300000Y-133600000D02*
X59300000Y-134930000D01*
X59300000Y-134930000D02*
X57970000Y-134930000D01*
D15*
X37370000Y-185350000D02*
X36970000Y-185350000D01*
X38470000Y-181850000D02*
X38470000Y-188850000D01*
X37370000Y-181850000D02*
X37370000Y-188850000D01*
X44570000Y-181850000D02*
X36970000Y-181850000D01*
X36970000Y-188850000D02*
X44570000Y-188850000D01*
X44570000Y-188850000D02*
X44570000Y-181850000D01*
X37370000Y-149000000D02*
X36970000Y-149000000D01*
X37370000Y-152600000D02*
X36970000Y-152600000D01*
X38470000Y-145500000D02*
X38470000Y-156100000D01*
X37370000Y-145500000D02*
X37370000Y-156100000D01*
X44570000Y-145500000D02*
X36970000Y-145500000D01*
X36970000Y-156100000D02*
X44570000Y-156100000D01*
X44570000Y-156100000D02*
X44570000Y-145500000D01*
D16*
X52490000Y-188400000D02*
X52490000Y-187200000D01*
X54250000Y-187200000D02*
X54250000Y-188400000D01*
X42220000Y-119150000D02*
X33420000Y-119150000D01*
X33420000Y-119150000D02*
X33420000Y-109950000D01*
X48120000Y-116450000D02*
X48120000Y-119150000D01*
X48120000Y-119150000D02*
X46220000Y-119150000D01*
X33420000Y-109950000D02*
X48120000Y-109950000D01*
X48120000Y-109950000D02*
X48120000Y-112550000D01*
D13*
X57075715Y-140028000D02*
X57647144Y-140028000D01*
X56961430Y-140370857D02*
X57361430Y-139170857D01*
X57761430Y-140370857D01*
X58161429Y-140370857D02*
X58161429Y-139570857D01*
X58161429Y-139799429D02*
X58218572Y-139685143D01*
X58275715Y-139628000D01*
X58390001Y-139570857D01*
X58504286Y-139570857D01*
X59418572Y-140370857D02*
X59418572Y-139170857D01*
X59418572Y-140313714D02*
X59304286Y-140370857D01*
X59075715Y-140370857D01*
X58961429Y-140313714D01*
X58904286Y-140256571D01*
X58847143Y-140142286D01*
X58847143Y-139799429D01*
X58904286Y-139685143D01*
X58961429Y-139628000D01*
X59075715Y-139570857D01*
X59304286Y-139570857D01*
X59418572Y-139628000D01*
X60504286Y-139570857D02*
X60504286Y-140370857D01*
X59990000Y-139570857D02*
X59990000Y-140199429D01*
X60047143Y-140313714D01*
X60161429Y-140370857D01*
X60332857Y-140370857D01*
X60447143Y-140313714D01*
X60504286Y-140256571D01*
X61075714Y-140370857D02*
X61075714Y-139570857D01*
X61075714Y-139170857D02*
X61018571Y-139228000D01*
X61075714Y-139285143D01*
X61132857Y-139228000D01*
X61075714Y-139170857D01*
X61075714Y-139285143D01*
X61647143Y-139570857D02*
X61647143Y-140370857D01*
X61647143Y-139685143D02*
X61704286Y-139628000D01*
X61818572Y-139570857D01*
X61990000Y-139570857D01*
X62104286Y-139628000D01*
X62161429Y-139742286D01*
X62161429Y-140370857D01*
X62904286Y-140370857D02*
X62790000Y-140313714D01*
X62732857Y-140256571D01*
X62675714Y-140142286D01*
X62675714Y-139799429D01*
X62732857Y-139685143D01*
X62790000Y-139628000D01*
X62904286Y-139570857D01*
X63075714Y-139570857D01*
X63190000Y-139628000D01*
X63247143Y-139685143D01*
X63304286Y-139799429D01*
X63304286Y-140142286D01*
X63247143Y-140256571D01*
X63190000Y-140313714D01*
X63075714Y-140370857D01*
X62904286Y-140370857D01*
X63818571Y-140370857D02*
X63818571Y-139170857D01*
X64218571Y-140028000D01*
X64618571Y-139170857D01*
X64618571Y-140370857D01*
X65190000Y-140370857D02*
X65190000Y-139570857D01*
X65190000Y-139170857D02*
X65132857Y-139228000D01*
X65190000Y-139285143D01*
X65247143Y-139228000D01*
X65190000Y-139170857D01*
X65190000Y-139285143D01*
X66275715Y-140313714D02*
X66161429Y-140370857D01*
X65932858Y-140370857D01*
X65818572Y-140313714D01*
X65761429Y-140256571D01*
X65704286Y-140142286D01*
X65704286Y-139799429D01*
X65761429Y-139685143D01*
X65818572Y-139628000D01*
X65932858Y-139570857D01*
X66161429Y-139570857D01*
X66275715Y-139628000D01*
X66790000Y-140370857D02*
X66790000Y-139570857D01*
X66790000Y-139799429D02*
X66847143Y-139685143D01*
X66904286Y-139628000D01*
X67018572Y-139570857D01*
X67132857Y-139570857D01*
X67704286Y-140370857D02*
X67590000Y-140313714D01*
X67532857Y-140256571D01*
X67475714Y-140142286D01*
X67475714Y-139799429D01*
X67532857Y-139685143D01*
X67590000Y-139628000D01*
X67704286Y-139570857D01*
X67875714Y-139570857D01*
X67990000Y-139628000D01*
X68047143Y-139685143D01*
X68104286Y-139799429D01*
X68104286Y-140142286D01*
X68047143Y-140256571D01*
X67990000Y-140313714D01*
X67875714Y-140370857D01*
X67704286Y-140370857D01*
M02*
